<svg width="70" height="63" viewBox="0 0 70 63" fill="none" xmlns="http://www.w3.org/2000/svg">
<path d="M68.1235 20.4795C66.9753 19.4996 65.3435 18.6138 64.2545 17.6374C64.2391 17.6236 64.2233 17.6095 64.2083 17.596C63.7677 17.1996 63.3246 16.7701 62.7873 16.26C62.7187 16.1949 62.6467 16.1268 62.5759 16.0597C61.9408 15.4604 61.1453 14.7281 60.0236 13.7939C56.2524 10.6576 52.6746 9.22039 51.5804 8.77686C49.372 7.89124 47.1335 6.74628 44.0168 5.30082C43.7327 5.16941 43.4408 5.03432 43.1398 4.89764C42.8954 4.78668 42.7817 4.50432 42.8837 4.26396C42.986 4.02371 43.2664 3.91751 43.5127 4.02932C43.8095 4.16399 44.0975 4.29591 44.377 4.42507C44.3782 4.42566 44.3795 4.42626 44.3808 4.42684C47.5369 5.88981 49.7417 7.01852 51.9109 7.88738C53.0361 8.34352 56.7251 9.82468 60.6212 13.064C61.7601 14.0131 62.5765 14.7617 63.2203 15.3694C63.292 15.4368 63.3613 15.5028 63.4287 15.5666C63.4302 15.5682 63.4318 15.5697 63.4334 15.5712C63.9766 16.0877 64.4063 16.5045 64.8333 16.8883C64.8427 16.8964 64.8521 16.9046 64.8615 16.9127C65.9742 17.9098 67.5941 18.7863 68.7233 19.7495C68.9343 19.9291 68.9797 20.248 68.811 20.4471C68.6447 20.648 68.3314 20.6562 68.1235 20.4795ZM11.1671 47.6497C11.4608 47.9006 11.746 48.1968 12.0156 48.5214C12.7585 49.4381 13.5009 50.5236 14.2046 51.5297C15.1867 52.9499 16.1546 54.2615 16.619 54.9C17.0684 55.5246 17.6876 56.1123 18.4996 56.7379C18.6852 56.8806 18.8836 57.0268 19.0897 57.1734C19.7731 57.659 20.5662 58.168 21.4718 58.7019C23.5689 59.9352 25.4825 60.5015 27.0121 60.7788C27.8412 60.9292 28.5496 61.0123 29.1702 61.0655C29.5098 61.0945 29.835 61.1148 30.1334 61.1295C30.1339 61.1296 30.1344 61.1296 30.1349 61.1297C31.2642 61.1842 32.1089 61.1773 32.8848 61.2778C34.2739 61.4506 35.4187 61.542 36.8359 61.7015C38.8 61.9369 41.5258 61.2668 43.1079 60.4157C43.1961 60.3698 43.2856 60.3219 43.3758 60.2737C44.5233 59.6532 45.9008 58.8693 47.8974 57.6533C49.5463 56.6393 50.9835 55.769 52.2517 54.9288C52.6139 54.6885 52.9608 54.4514 53.2867 54.2178C54.1152 53.6232 54.8419 53.0349 55.4715 52.386C55.7234 52.126 55.9802 51.8491 56.2115 51.5861C58.7898 48.4719 58.54 45.6999 58.5308 43.9552C58.4264 42.1392 58.1372 40.8815 57.9084 39.8639C57.732 39.1101 57.5688 38.4999 57.4247 37.9798C57.2179 37.289 57.0447 36.7788 56.8929 36.3631C56.8085 36.1342 56.7297 35.9342 56.6465 35.7527C55.8962 34.1334 54.8938 32.9474 53.7548 31.7735C53.5009 31.5132 53.238 31.2529 52.9681 30.9907C52.0633 30.1163 51.3477 29.6773 50.7826 29.3775C50.5351 29.2474 50.3164 29.1458 50.1124 29.0526C50.1086 29.051 50.1048 29.0494 50.1009 29.0478C50.0725 29.0348 50.0447 29.0217 50.0168 29.009C49.9959 28.9994 49.9744 28.9907 49.9535 28.9811C49.9435 28.9801 49.9351 28.9782 49.9286 28.9772C49.9235 28.9764 49.9196 28.9756 49.9171 28.9752C49.9165 28.9752 49.9159 28.9753 49.9153 28.9754C49.8695 28.9669 49.8349 28.9526 49.8278 28.9497C49.8153 28.9446 49.8049 28.9392 49.7995 28.9366C49.798 28.9359 49.7965 28.9351 49.795 28.9344C49.7672 28.9208 49.7344 28.9019 49.7123 28.8888C49.6523 28.8532 49.5493 28.7898 49.3877 28.6885C49.2414 28.6084 49.0941 28.5393 48.9066 28.4519C48.8948 28.4465 48.8829 28.4411 48.871 28.4356C48.6877 28.3504 48.4711 28.2488 48.1993 28.113C47.9519 27.9893 47.8322 27.6942 47.9382 27.4546C48.0435 27.2145 48.3392 27.1233 48.5914 27.2492C48.8533 27.3801 49.0594 27.4763 49.2458 27.5632C49.2577 27.5686 49.2696 27.5741 49.2815 27.5795C49.4753 27.67 49.656 27.7549 49.8396 27.8562C49.9011 27.8901 49.9632 27.926 50.0205 27.9601C50.1121 28.0085 50.2166 28.058 50.3374 28.1133C50.357 28.1222 50.377 28.1313 50.3975 28.1407C50.4272 28.1542 50.4575 28.1686 50.489 28.183C50.691 28.2748 50.9304 28.3844 51.1999 28.5257C51.8307 28.8602 52.6313 29.3505 53.6518 30.3363C53.9192 30.5961 54.1826 30.8566 54.4429 31.1232C55.6323 32.3482 56.7799 33.6927 57.6116 35.5488C57.7242 35.803 57.8194 36.0562 57.9142 36.33C58.0358 36.6824 58.1573 37.0687 58.2982 37.5477C58.4496 38.1119 58.6326 38.7903 58.8451 39.7105C59.0714 40.7373 59.3681 42.0225 59.4757 43.932C59.4733 45.763 59.7821 48.748 56.9103 52.2234C56.6802 52.4849 56.4229 52.7624 56.175 53.0191C55.4852 53.7328 54.6816 54.3811 53.8106 55.0043C53.4789 55.2416 53.1361 55.4771 52.7844 55.7107C51.4963 56.5646 50.0664 57.4306 48.4299 58.4396C46.4243 59.664 45.0557 60.4465 43.8851 61.0824C43.8448 61.1044 43.8044 61.1263 43.7639 61.1482C43.7135 61.175 43.6632 61.2016 43.6133 61.2278C41.8846 62.1623 38.9111 62.9088 36.6828 62.6391C35.2952 62.4802 34.1702 62.3904 32.7514 62.2133C32.0559 62.1225 31.3146 62.1314 30.1755 62.0796C29.8576 62.0645 29.4996 62.042 29.1144 62.0094C28.4648 61.9542 27.7231 61.8676 26.857 61.711C25.2304 61.4178 23.197 60.8149 20.9839 59.5117C20.0684 58.971 19.2765 58.4642 18.5678 57.9624C18.3487 57.807 18.1348 57.6493 17.9318 57.4933C17.0826 56.8406 16.3586 56.1668 15.8248 55.42C15.3807 54.8067 14.4165 53.4959 13.4329 52.0744C12.6905 51.0127 11.9437 49.9245 11.2255 49.0529C11.0067 48.7964 10.7786 48.5633 10.5486 48.3675C10.4556 48.2882 10.3617 48.2073 10.2679 48.1272C9.4581 47.4353 8.60585 46.7072 7.71464 46.2219C5.57334 45.4284 3.54682 43.4424 2.01388 40.2207C0.444611 37.1057 -0.103698 32.0807 1.21844 28.3529C1.32899 28.0404 1.43639 27.7152 1.53149 27.4076C1.54816 27.3537 1.56484 27.2996 1.58154 27.2452C2.99018 22.3984 4.05637 18.1172 4.55623 16.7028C4.57775 16.6354 4.59742 16.574 4.61527 16.5188C4.63122 16.4695 4.64527 16.4248 4.65816 16.3856C4.85102 15.7988 5.00571 15.2598 5.18309 14.6898C5.19284 14.6584 5.20264 14.6271 5.21248 14.5957C5.40349 13.9912 5.62147 13.3503 5.96782 12.5911C7.24938 9.79493 8.87113 7.19784 11.2569 5.19508C11.6972 4.82668 12.1538 4.48854 12.6316 4.17697C12.633 4.17607 12.6345 4.17518 12.6359 4.17429C13.9707 3.30098 15.4334 2.69283 16.8365 2.35837C17.3157 2.2402 17.7816 2.13583 18.243 2.0438C20.5725 1.58416 22.1767 1.36001 23.4297 1.18898C23.825 1.13646 24.1862 1.09148 24.5324 1.05217C25.2758 0.967857 25.9343 0.910706 26.6124 0.891994C27.8904 0.85786 29.0776 0.83882 30.2562 0.869847C30.3613 0.872654 30.4661 0.876382 30.5708 0.880027C31.8492 0.925215 33.1296 1.03373 34.4706 1.28896C34.7825 1.34836 34.9979 1.61067 34.9502 1.86737C34.9027 2.12403 34.6179 2.28023 34.3151 2.22234C33.0455 1.98004 31.8278 1.87379 30.5782 1.82809C30.4755 1.82441 30.3723 1.82166 30.2688 1.8188C29.1203 1.78734 27.9392 1.80315 26.6657 1.83642C26.0267 1.85372 25.4184 1.90568 24.7044 1.98543C24.3625 2.02379 23.9977 2.06892 23.5906 2.12269C22.3442 2.29168 20.7537 2.51367 18.4487 2.96736C17.9904 3.05857 17.5271 3.16231 17.0496 3.28025C15.7737 3.58582 14.444 4.13236 13.2114 4.9286C12.7607 5.21882 12.3277 5.5369 11.9081 5.88505C9.65588 7.75833 8.0875 10.2391 6.83668 12.9655C6.51864 13.6614 6.31464 14.2549 6.12846 14.8421C6.11789 14.8751 6.10736 14.9082 6.09688 14.9412C5.92374 15.4953 5.76366 16.0525 5.56358 16.6606C5.53677 16.7422 5.50238 16.8462 5.4623 16.9717C4.969 18.3644 3.917 22.5899 2.49167 27.4991C2.48692 27.5142 2.48217 27.5291 2.47743 27.5441C2.36097 27.9237 2.24685 28.2861 2.14059 28.6123C0.863175 33.0888 1.7561 35.9386 2.42948 37.621C3.10944 39.1677 3.64335 40.1637 4.06647 40.9765C4.14796 41.1305 4.22614 41.2746 4.30003 41.4098C4.6214 41.9963 4.88385 42.4367 5.19408 42.8383C6.13591 44.0462 6.97825 44.7194 8.1501 45.3689C9.14392 45.9167 10.0808 46.7175 10.8837 47.4066C10.8849 47.4076 10.8861 47.4087 10.8873 47.4097C10.9826 47.4915 11.0759 47.5719 11.1671 47.6497ZM44.3039 26.5659C44.0481 26.4241 43.9372 26.1256 44.0556 25.8933C44.176 25.6618 44.4861 25.587 44.7495 25.7327C45.3731 26.078 45.9875 26.4403 46.5836 26.8119C46.8339 26.9678 46.9215 27.2748 46.7845 27.4966C46.6468 27.7183 46.3405 27.7734 46.0963 27.6214C45.5128 27.2574 44.9131 26.9035 44.3039 26.5659ZM14.4212 44.0923C14.608 44.2673 14.6149 44.5664 14.4379 44.7598C14.2606 44.9523 13.9657 44.9654 13.7796 44.7912C13.6812 44.6989 13.5151 44.5495 13.2925 44.3501C12.0129 42.7941 5.92034 39.3746 5.68831 31.5993C5.71458 30.9772 5.78741 30.4153 5.88987 29.8914C5.90381 29.8204 5.91788 29.7497 5.93214 29.6791C6.26665 27.8753 5.99798 26.2238 6.91558 22.6696C8.64962 17.2115 9.78454 9.28454 17.8812 6.87873C25.0852 5.45658 32.7283 5.74598 39.6485 8.66774C42.1762 9.74852 44.6875 10.8592 47.1988 11.9914C51.3894 13.8827 55.4029 16.1502 59.2548 18.7121C62.5141 20.7795 67.8003 25.6085 68.9204 26.9135C69.1085 27.106 69.1034 27.4088 68.9176 27.592C68.7316 27.7749 68.4399 27.7735 68.2571 27.5865C67.1828 26.3292 61.9875 21.5685 58.7662 19.5231C54.9567 16.9871 50.9794 14.7372 46.8258 12.862C44.3114 11.728 41.7812 10.6463 39.2275 9.61657C32.5182 6.94526 25.1246 6.9621 18.2686 8.55507C11.8767 10.471 10.5617 17.7398 8.93697 23.2055C8.02543 26.736 7.24153 28.1023 6.84725 29.9366C6.83961 29.9711 6.8323 30.0058 6.82532 30.0407C6.7291 30.5239 6.6619 31.0351 6.63562 31.6108C6.76035 38.5954 12.5814 42.0995 13.9147 43.6338C14.1443 43.8397 14.3167 43.9942 14.4212 44.0923ZM21.592 52.7829C23.1998 53.8642 25.4455 55.0438 27.8888 55.5102C28.8126 55.6922 29.7291 55.8283 30.6301 55.9184C32.2744 56.0849 33.8242 56.0859 35.0576 55.9966C36.9686 55.8516 38.1933 55.8269 39.4317 55.7668C39.4449 55.766 39.4581 55.7652 39.4713 55.7644C40.703 55.6892 41.9659 55.5738 43.8522 54.8622C45.749 54.1444 48.2231 52.7286 50.3526 50.9061C50.3544 50.9048 50.3561 50.9035 50.3579 50.9022C51.2505 50.1418 52.0405 49.2396 52.655 48.3429C53.3579 47.2561 53.3256 46.0088 53.3409 44.9846C53.3466 43.3333 52.9205 41.7575 52.3938 40.468C50.7912 36.9966 48.0933 35.2467 47.033 33.973C46.9218 33.8569 46.8082 33.743 46.6924 33.6309C43.914 30.8222 39.6212 29.6275 36.2578 27.4149C35.9014 27.0337 36.8661 26.591 37.5994 27.0743C37.6264 27.0901 37.6532 27.106 37.68 27.1218C37.9329 27.2709 38.1595 27.4011 38.4842 27.5628C38.9589 27.775 39.3229 27.9235 39.6481 28.0591C40.4616 28.2854 45.3784 30.9787 47.215 32.8398C47.3981 33.0065 47.5605 33.1625 47.6964 33.3044C48.7078 34.5824 51.6725 35.507 54.0923 39.6279C54.8277 41.0916 55.4272 42.8654 55.4321 44.9852C55.4246 46.2717 54.9834 48.0223 53.6756 49.2737C52.835 50.0697 51.8966 50.8334 50.9788 51.6168C50.9727 51.6219 50.9666 51.6271 50.9605 51.6322C48.764 53.5117 46.1959 54.9853 44.2079 55.7388C42.1933 56.5001 40.8353 56.6232 39.5502 56.7027C39.5377 56.7033 39.5251 56.7038 39.5126 56.7044C38.2494 56.7668 37.0448 56.7918 35.1441 56.9374C33.8419 57.0325 32.2229 57.032 30.5125 56.8574C29.597 56.765 28.6683 56.6269 27.7335 56.4434C25.1387 55.9522 22.7647 54.709 21.0819 53.5791C20.8733 53.4412 20.8264 53.1495 20.9729 52.9334C21.1198 52.7175 21.3955 52.653 21.592 52.7829ZM25.0046 47.9834C26.4811 48.6112 27.7376 48.9026 28.9675 49.0268C32.9739 49.5078 37.0236 49.4331 41.2567 48.5731C42.751 48.0236 44.8269 47.0549 46.5261 45.8426C46.5454 45.8294 46.5647 45.8161 46.5838 45.8029C47.2603 45.3224 47.877 44.8019 48.3024 44.3738C48.0021 44.73 47.8992 45.0796 47.8938 45.1706C47.886 45.2738 47.9264 45.1815 47.9321 45.0314C47.9741 44.5308 47.7353 43.5056 47.4706 42.903C47.2616 41.9357 44.805 39.9856 43.7345 38.8503C43.6345 38.7449 43.5377 38.6444 43.4439 38.5484C42.1979 37.2638 41.8153 37.028 41.2061 36.6551C41.1888 36.6443 41.1715 36.6334 41.1542 36.6226C41.1526 36.6226 41.1511 36.6226 41.1495 36.6225C41.1212 36.6198 41.0991 36.6147 41.088 36.6116C41.0654 36.6053 41.0484 36.5978 41.042 36.5951C41.0272 36.5886 41.0156 36.5819 41.0114 36.5796C40.9943 36.5703 40.975 36.5587 40.9632 36.5511C40.8517 36.4794 40.5083 36.2465 40.2423 36.0555C39.9699 35.8594 39.7849 35.7033 39.5879 35.5372C39.568 35.5204 39.5474 35.5032 39.5279 35.4866C39.3514 35.3382 39.1539 35.1757 38.8583 34.9663C38.6764 34.8379 38.637 34.5561 38.7702 34.333C38.9045 34.1107 39.1658 34.0347 39.3535 34.1666C39.6756 34.3936 39.8887 34.5694 40.0737 34.7236C40.0942 34.7408 40.1146 34.758 40.1349 34.7752C40.3284 34.9379 40.4996 35.0796 40.7479 35.2582C41.1197 35.4987 41.4027 35.6673 41.6642 35.8255C42.2894 36.207 42.7414 36.4893 43.9739 37.7461C44.1072 37.8811 44.2467 38.0252 44.392 38.1791C45.3887 39.272 47.8385 41.0974 48.3177 42.484C48.6322 43.1947 48.9109 44.3122 48.8768 45.0159C48.8717 45.2307 48.8281 45.4062 48.8062 45.4159C48.7823 45.4357 48.8205 45.2354 49.0005 45.0104C48.5276 45.4904 47.871 46.0445 47.1584 46.5529C47.1379 46.5676 47.1174 46.5824 47.0967 46.5971C45.308 47.8765 43.1586 48.8775 41.6092 49.4496C37.4331 51.0181 32.9767 51.7268 28.6545 50.9082C27.1586 50.6168 25.751 49.9118 24.4871 48.7743C23.6449 48.2347 22.8978 47.5973 22.228 46.9376C21.1092 45.8321 20.2046 44.6814 19.3328 43.5985C18.4811 42.4948 17.657 41.5899 16.8036 40.7965C16.3803 40.3966 15.3987 39.2222 14.3085 37.6563C13.9924 37.1981 13.6701 36.7023 13.3681 36.1858C12.621 34.9105 12.0399 33.5521 11.972 32.3294C11.9565 32.0667 11.9603 31.832 11.9802 31.6022C11.9864 31.5308 11.9944 31.4595 12.0044 31.3876C12.3958 29.5347 12.6794 27.8978 13.5234 24.6171C14.4186 20.2474 17.606 13.4929 18.9399 13.7847C19.1392 13.7159 19.2979 13.6955 19.4546 13.6872C20.3519 13.5396 20.972 13.4808 21.4549 13.4446C21.6554 13.4298 21.831 13.4203 21.992 13.412C22.4141 13.3906 22.74 13.379 23.1634 13.3501C26.2095 13.1847 28.3189 13.0325 31.7043 13.3372C31.9169 13.3595 32.0604 13.5906 32.0263 13.8494C31.9921 14.1083 31.8008 14.2986 31.5975 14.2776C28.3319 13.9845 26.2568 14.1297 23.2575 14.2904C22.8279 14.3193 22.4883 14.3305 22.0706 14.3513C21.9164 14.3591 21.7511 14.3684 21.5659 14.3818C21.1089 14.4155 20.5202 14.4704 19.6676 14.6089C19.5749 14.6022 19.4916 14.5974 19.3696 14.6261C19.0787 14.6067 17.8692 15.5637 16.8446 17.7817C15.8143 19.9152 15.0012 22.7022 14.4432 24.8382C13.598 28.1217 13.3203 29.7408 12.9174 31.6445C12.9125 31.6912 12.9087 31.7375 12.9058 31.7837C12.8946 31.9694 12.8975 32.1573 12.9155 32.3672C12.9907 33.3209 13.4858 34.5253 14.1964 35.7287C14.4807 36.2131 14.7886 36.6857 15.0922 37.1252C16.1687 38.6681 17.096 39.7702 17.4518 40.106C18.3425 40.9322 19.2129 41.8888 20.1195 43.0692C20.9809 44.1389 21.8674 45.2565 22.9259 46.2964C23.5559 46.914 24.2462 47.4985 25.0046 47.9834ZM43.7243 18.3777C43.499 18.277 43.4027 18.0025 43.5049 17.7619C43.6077 17.5218 43.8729 17.4072 44.099 17.508C45.2939 18.0415 46.1438 18.4301 46.8144 18.7404C48.0464 19.3125 48.6418 19.6008 49.4883 20.0912C51.6837 21.3669 53.7514 22.6507 55.577 23.8614C58.6059 25.8638 60.9171 27.6584 62.0566 28.6558C62.2381 28.8137 62.2438 29.102 62.0755 29.3013C61.907 29.5003 61.6312 29.5377 61.4532 29.3828C60.3408 28.4086 58.0785 26.6496 55.0891 24.6713C53.2786 23.4696 51.2212 22.1926 49.029 20.9183C48.2141 20.446 47.6571 20.1754 46.4608 19.6194C45.7974 19.3124 44.9408 18.9208 43.7243 18.3777Z" fill="#FF7B00" fill-opacity="0.8"/>
</svg>
