<svg width="502" height="530" viewBox="0 0 502 530" fill="none" xmlns="http://www.w3.org/2000/svg">
<path d="M232.445 128.228C223.93 115.166 213.855 102.709 204.86 89.4591C196.055 75.8157 179.994 67.0978 164.715 64.2303C154.183 61.7957 142.164 64.3984 133.865 72.3889C107.176 104.002 116.68 143.39 123.415 174.095C125.604 182.326 133.271 186.891 139.19 188.611C140.344 188.969 141.496 189.264 142.644 189.51C146.235 190.274 149.776 190.593 153.34 190.612C160.426 190.439 164.776 186.308 167.929 182.621C175.504 170.783 173.293 161.458 174.183 151.69C174.444 134.695 162.772 123.135 153.212 112.456C151.916 111.07 150.589 109.699 149.228 108.341C145.816 104.935 142.162 101.589 138.28 98.3636C124.192 86.9276 107.218 75.5591 84.3076 70.7461C71.1935 68.5153 56.5266 67.6023 41.1477 75.2211C26.5329 85.5736 28.9647 100.358 28.9689 112.261C29.7537 124.684 32.1274 137.122 35.146 149.981C37.4638 159.765 40.1242 169.35 42.9143 178.71C46.5602 191.429 57.4982 199.858 67.6247 204.245C70.1944 205.58 74.9526 205.784 77.9261 204.077C80.9144 202.505 82.3773 200.614 83.5717 199.166C86.4152 195.571 88.2262 191.249 88.7357 186.667C89.303 181.472 88.1939 175.991 85.0124 171.397C78.6716 162.252 68.1472 159.879 60.5664 158.657C46.5171 156.724 34.5975 161.213 23.9579 166.245C18.7088 168.764 13.8258 173.537 11.853 179.753C9.93972 188.098 12.4398 192.025 13.7475 196.489C15.3281 200.775 17.1282 204.654 18.964 208.45C22.6513 216.009 26.5045 223.126 30.2665 230.149C45.6866 257.469 64.3413 280.581 94.6845 291.474C96.6244 291.781 98.9956 292.098 101.966 291.487C104.943 290.931 108.087 288.871 109.787 286.686C114.452 280.158 114.882 275.029 114.72 268.825C113.694 256.496 105.641 248.749 100.482 242.736C90.0031 231.58 76.448 231.179 65.8812 231.332C36.6408 235.23 24.3497 256.403 15.1646 272.992C12.2782 280.361 15.3745 285.322 17.5997 288.812C33.1626 307.044 45.8003 316.027 54.4451 324.315C57.5916 327.144 60.7406 329.985 63.8857 332.842C78.8134 347.196 101.545 354.107 121.073 354.209C125.911 354.974 132.895 352.416 136.125 348.973C140.744 344.506 143.501 339.636 145.097 333.53C146.649 327.411 145.539 320.569 142.757 315.265C139.854 309.623 135.417 304.952 129.695 301.847C111.626 293.608 96.3296 303.133 83.7966 310.039C71.0223 317.773 59.4652 327.145 48.1459 337.081C38.6536 345.302 31.8955 357.091 29.09 369.483C23.8871 387.02 34.7111 405.69 42.6588 417.35C48.8116 426.083 56.1916 425.725 61.9553 426.663C67.9491 427.198 73.6771 426.964 79.3719 426.516C88.5634 426.139 98.2886 420.53 103.946 416.037C111.47 409.716 109.448 403.259 108.951 398.841C105.066 381.214 91.8397 369.471 77.8845 361.146C71.6819 357.442 63.7958 356.404 57.058 357.53C49.8328 358.663 43.5429 361.456 37.7158 364.42C27.9745 369.427 19.3645 376.518 12.2569 385.081C10.2131 387.55 8.37854 390.042 6.7852 392.446C0.401807 402.105 0.452178 410.999 0.109402 411.125C0.049716 411.59 -0.642238 402.383 6.03653 391.957C7.41858 389.816 9.00275 387.607 10.7691 385.41C18.1054 376.319 27.0771 368.828 37.2846 363.578C42.4695 360.935 48.0306 358.441 54.3528 357.066C54.4354 357.048 54.5182 357.031 54.601 357.013C62.0245 355.327 71.2345 356.038 78.3577 360.327C92.483 368.765 105.887 380.61 109.88 398.659C110.338 401.066 110.641 403.655 110.263 406.721C109.857 409.657 108.738 413.856 104.474 416.822C98.9049 421.266 88.8146 427.095 79.4483 427.459C73.7111 427.91 67.9398 428.148 61.8543 427.604C56.0074 426.615 48.4391 427.136 41.839 417.822C33.9661 406.317 22.8443 387.092 28.169 369.264C31.0122 356.694 37.8971 344.701 47.5204 336.37C58.9099 326.374 70.5192 316.961 83.3828 309.183C96.013 302.271 111.413 292.516 130.144 301.012C136.055 304.222 140.609 309.022 143.603 314.836C146.473 320.301 147.629 327.414 146.02 333.753C144.36 340.076 141.559 345.031 136.767 349.672C133.448 353.24 126.001 355.968 120.992 355.155C101.459 355.073 78.2972 348.053 63.2433 333.546C61.68 332.127 60.1319 330.726 58.5787 329.323C49.0449 320.121 34.8752 310.124 16.8186 289.356C14.514 285.718 11.2051 280.527 14.3003 272.595C23.7357 255.609 36.0082 234.381 65.8479 230.385C76.5446 230.243 90.348 230.588 101.193 242.11C106.326 248.113 114.593 256.002 115.664 268.757C115.816 275.204 115.438 280.382 110.517 287.288C108.718 289.605 105.335 291.823 102.163 292.412C98.9979 293.061 96.5213 292.72 94.5277 292.406C63.4145 281.233 44.9884 258.041 29.4341 230.597C25.6693 223.568 21.8124 216.445 18.1113 208.857C16.2681 205.046 14.4582 201.148 12.8583 196.809C11.552 192.264 8.92886 188.372 10.9532 179.463C13.0145 172.966 18.1126 168 23.5402 165.397C34.2873 160.323 46.3082 155.751 60.7158 157.722C68.3362 158.956 79.1908 161.354 85.7894 170.855C89.1177 175.663 90.2661 181.368 89.6774 186.77C89.1473 191.535 87.2682 196.019 84.315 199.754C83.0859 201.239 81.5658 203.23 78.3537 204.922C75.1572 206.766 69.9735 206.54 67.24 205.112C56.9851 200.673 45.7547 192.056 42.0052 178.983C38.6876 167.849 35.5512 156.422 32.9559 144.669C30.3701 132.817 28.3663 121.311 27.8887 109.655C28.1154 98.585 26.2672 84.3357 40.6814 74.3901C56.4305 66.5945 71.2011 67.5628 84.4806 69.8075C110.809 75.4803 129.435 89.1445 144.551 102.556C147.87 105.583 150.988 108.677 153.909 111.801C154.219 112.132 154.525 112.461 154.827 112.788C154.901 112.867 154.974 112.947 155.047 113.026C164.39 123.493 175.48 135.149 175.137 151.72C174.21 161.646 176.564 170.866 168.667 183.223C165.4 187.034 160.885 191.37 153.338 191.564C147.861 191.509 142.412 190.882 136.796 188.79C136.09 188.521 135.383 188.225 134.676 187.896C129.761 185.733 124.205 180.903 122.503 174.352C115.701 143.193 106.135 103.812 133.209 71.7168C141.79 63.4582 154.138 60.8241 164.919 63.3129C180.349 66.1965 196.731 75.1028 205.641 88.9312C214.734 102.322 224.939 114.916 233.515 128.139C241.26 139.777 245.537 150.834 245.192 150.778C244.941 150.721 240.169 139.766 232.445 128.228ZM231.547 213.247C229.664 222.985 227.878 233.2 225.991 243.733C221.141 271.9 221.266 302.786 221.245 334.202C221.825 356.047 220.652 378.72 231.198 400.246C232.017 401.41 232.702 402.475 234.405 403.613C234.905 403.864 235.405 404.323 236.901 404.232C237.641 404.175 238.575 403.646 239 403.068C239.452 402.493 239.589 402.016 239.685 401.647C239.964 400.224 239.763 399.572 239.657 398.809C235.965 379.267 219.664 366.618 204.619 358.064C188.696 349.212 171.787 343.544 155.219 339.734C141.189 337.112 131.721 347.578 124.183 354.418C113.557 365.822 117.003 380.372 119.123 391.222C124.048 409.171 138.736 417.677 148.999 424.932C160.111 432.105 171.768 431.541 179.917 430.619C183.258 430.201 186.581 429.558 189.882 428.743C203.453 424.834 209.443 412.129 214.76 401.154C218.468 393.754 216.544 384.531 213.404 377.917C211.386 373.925 208.547 371.266 203.268 370.689C201.805 370.627 199.827 371.269 198.636 372.708C197.437 374.121 197.153 375.689 197.11 376.889C197.083 379.334 197.779 381.041 198.491 382.652C204.336 394.301 214.691 401.418 225.06 408.393C233.349 413.771 242.221 418.67 251.47 423.461C252.322 423.902 253.17 424.335 254.013 424.762C278.079 435.651 305.281 451.233 339.493 441.974C343.697 439.379 346.02 436.06 347.998 432.188C349.838 428.535 349.949 423.986 349.048 420.386C347.535 413.671 343.621 407.619 338.665 403.03C334.062 398.793 328.987 395.621 323.158 393.394C320.738 392.52 318.304 393.349 316.831 394.503C315.421 395.752 313.738 397.128 314.174 400.772C315.611 405.643 319.092 406.335 321.185 407.227C323.497 407.999 325.649 408.381 327.774 408.693C332.009 409.288 336.083 409.498 340.086 409.665C348.645 410.15 355.07 404.034 359.352 400.18C363.251 396.215 363.147 392.631 363.697 389.378C364.052 386.096 364.064 382.983 363.988 379.923C363.813 373.795 363.235 367.923 362.57 362.133C356.859 329.656 338.923 306.362 324.936 284.16C311.787 264.629 297.109 248.382 281.973 234.817C251.939 208.023 215.986 200.263 186.737 200.693C185.58 200.709 184.457 200.749 183.323 200.815C170.042 201.397 157.21 206.648 148.163 213.98C145.906 215.533 144.67 218.432 144.411 220.447C144.089 222.543 144.193 224.277 144.312 225.926C144.315 225.952 144.317 225.978 144.319 226.004C144.32 226.026 144.322 226.048 144.324 226.069C145.86 240.685 154.628 251.2 163.232 259.181C178.958 273.721 200.263 279.509 218.445 273.773C222.93 272.265 226.118 267.943 226.612 263.535C226.502 249.603 216.901 244.213 210.607 237.902C210.372 237.699 210.137 237.496 209.901 237.294C199.05 227.976 184.705 224.049 171.28 226.019C163.979 227.222 159.163 232.604 156.384 237.917C153.136 244.518 152.527 251.207 153.263 257.969C156.763 274.464 168.897 282.429 178.429 291.649C189.859 301.921 205.701 306.983 221.487 305.935C229.435 305.07 233.057 299.089 235.624 294.587C236.697 292.633 237.84 289.532 237.195 286.283C236.566 283.09 234.897 280.936 233.407 279.24C233.048 278.84 232.692 278.469 232.324 278.103C216.864 263.45 195.097 258.919 173.784 255.783C144.878 252.021 108.721 253.845 85.8986 280.836C81.9903 286.594 81.9006 293.35 83.2704 298.951C93.3722 324.814 116.325 333.149 134.337 343.648C155.724 354.593 178.534 355.57 197.534 354.587C202.093 354.337 206.734 353.935 211.403 353.413C220.746 352.372 230.321 350.838 240.22 349.031C263.173 344.62 288.999 336.963 311.791 317.212C323.012 306.999 332.771 291.827 331.987 273.402C331.591 253.678 314.156 237.067 300.861 226.572C295.595 220.457 302.311 210.659 310.199 203.465C318.258 195.937 327.527 189.908 336.689 183.216C339.173 181.427 340.61 181.248 343.046 182.475C345.441 183.756 347.879 186.305 350.039 189C366.729 209.895 377.567 233.849 384.097 257.632C391.609 285.535 391.937 315.448 382.197 338.749C382.208 338.713 382.318 338.578 382.398 338.533C382.479 338.481 382.483 338.503 382.375 338.515C382.163 338.552 381.609 338.466 381.202 338.243C380.133 337.737 378.272 335.175 377.541 332.984C377.412 332.623 377.32 332.225 377.267 331.786C377.047 323.597 384.276 313.329 389.89 304.891C394.4 298.349 399.744 292.518 405.47 287.284C422.943 271.49 443.205 260.799 462.989 252.255C465.741 251.073 468.742 249.962 470.44 249.997C471.26 250.034 471.511 250.126 472.198 250.668C472.853 251.212 473.648 252.231 474.396 253.381C481.398 264.037 485.946 275.709 487.834 287.665C491.155 308.172 486.826 328.433 482.094 347.674C474.412 379.356 457.033 406.625 434.943 423.836C429.797 427.544 419.676 423.735 410.359 421.98C409.3 421.805 408.115 421.494 407.908 421.368C407.881 421.362 407.969 421.362 408.28 421.679C408.584 421.943 409.083 422.939 409.012 423.697C408.965 424.45 408.765 424.682 408.734 424.756C408.689 424.826 408.732 424.756 408.82 424.663C417.584 416.034 431.775 410.223 441.62 400.756C467.344 377.472 485.714 351.516 496.651 324.835C504.21 304.109 497.724 284.257 492.025 268.35C484.291 247.552 470.231 232.64 457.07 221.131C448.053 213.232 437.17 209.42 427.174 207.867C401.031 204.401 379.936 210.946 363.009 217.251C332.743 234.114 326.57 257.4 318.003 272.231C314.397 279.765 311.518 286.54 308.973 292.996C308.224 294.899 307.477 296.853 306.776 298.741C304.841 303.908 304.055 309.599 304.541 315.076C304.855 319.308 306.617 324.533 310.901 327.797C319.642 334.09 329.026 332.169 336.45 330.43C367.487 301.595 374.521 270.396 393.491 237.37C397.451 229.668 400.926 221.513 403.744 212.922C408.609 198.231 411.332 182.221 412.305 165.685C412.722 158.944 412.877 152.446 412.981 146.209C413.374 126.96 408.496 109.232 400.513 95.2766C395.486 86.1835 387.335 79.8414 379.577 75.9933C365.561 69.6426 353.431 74.0412 343.867 77.1559C335.182 80.316 327.759 84.1568 320.947 87.8655C317.726 89.6309 314.383 90.5371 310.901 90.7328C310.729 90.7427 310.555 90.751 310.381 90.7575C309.068 90.8061 307.739 90.757 306.4 90.6255C305.391 90.5263 304.372 90.381 303.344 90.1928C302.939 90.1222 302.575 90.0509 302.302 89.9959C302.086 89.9524 301.918 89.9168 301.81 89.8936C301.789 89.8895 301.769 89.8852 301.748 89.881C299.783 89.4598 298.065 88.939 297.713 88.8349C297.099 88.6515 296.552 88.4764 296.272 88.3859C294.796 87.9135 292.874 87.2211 291.583 86.7333C288.073 85.7041 283.42 82.4967 271.72 80.2998C271.563 80.2814 271.406 80.2647 271.249 80.2496C265.716 79.6602 260.214 81.5043 256.031 84.0322C253.905 85.2816 251.978 86.6988 250.213 87.9798C249.337 88.6143 248.484 89.2213 247.781 89.6482C247.113 90.0913 246.45 90.2342 246.968 90.1393C246.92 90.1444 246.927 90.1409 246.965 90.1477C247.023 90.1547 247.141 90.2006 247.159 90.2167C247.212 90.4125 245.937 88.8948 245.167 86.773C244.329 84.6698 243.585 82.0361 242.868 79.2224C241.414 73.5402 240.068 66.9293 237.766 59.5289C236.146 54.3313 234.131 49.2532 231.785 45.0306C228.329 38.7537 225.29 34.3424 224.753 33.3095C224.006 32.0079 227.805 36.4801 232.516 44.6179C233.9 47.0184 235.197 49.733 236.353 52.6478C241.735 66.6492 242.933 78.2509 245.993 86.2541C246.173 86.7162 246.375 87.1908 246.563 87.5872C247.027 88.602 247.591 89.3582 247.714 89.4381C247.773 89.4875 247.654 89.3679 247.414 89.2807C247.18 89.1883 246.914 89.1795 246.887 89.1843C246.281 89.2589 246.474 89.3002 246.849 89.0797C247.237 88.8741 247.816 88.5034 248.443 88.0661C249.711 87.1846 251.211 86.0426 252.865 84.9178C256.163 82.6719 260.369 80.2668 265.558 79.4696C267.605 79.152 269.761 79.1124 271.831 79.3566C274.627 79.6914 277.008 80.3675 279.156 81.049C285.707 83.1533 292.001 86.2266 299.349 88.2822C300.816 88.6868 302.312 89.0389 303.818 89.3024C309.424 90.2969 315.117 89.9956 320.49 87.0239C325.612 84.2277 331.194 81.3275 337.358 78.6982C348.494 74.5381 362.378 67.6249 380.005 75.1487C387.936 79.0772 396.252 85.6021 401.336 94.8119C409.501 109.082 414.322 127.039 413.93 146.222C413.793 154.504 413.566 163.23 412.766 172.339C411.411 188.215 408.22 203.716 402.977 218.06C400.494 224.899 397.592 231.477 394.34 237.804C375.549 270.219 369.192 301.247 336.695 331.362C329.168 333.108 319.547 335.18 310.31 328.564C305.743 325.087 303.898 319.544 303.572 315.163C303.071 309.541 303.881 303.69 305.858 298.405C308.106 292.352 310.546 286.327 313.187 280.331C316.841 272.064 320.657 264.258 325.279 256.131C333.195 243.785 340.158 227.507 362.648 216.352C380.36 210.022 403.361 201.728 434.151 208.328C442.137 210.369 450.52 214.13 457.694 220.414C470.739 231.842 485 246.782 492.912 268.02C498.566 283.874 505.261 303.893 497.535 325.169C486.581 351.893 468.239 377.925 442.249 401.462C432.356 410.967 417.94 416.966 409.514 425.304C409.455 425.366 409.448 425.396 409.542 425.247C409.617 425.093 409.895 424.738 409.956 423.733C410.049 422.721 409.398 421.414 408.971 421.035C408.536 420.588 408.365 420.55 408.333 420.523C408.324 420.553 409.5 420.886 410.524 421.05C419.94 422.898 430.091 426.384 434.381 423.076C456.181 406.097 473.532 379.005 481.175 347.45C485.724 328.929 489.882 309.62 487.227 290.034C485.579 277.468 480.974 265.097 473.606 253.898C472.881 252.78 472.115 251.821 471.587 251.388C471.017 250.962 471.073 250.99 470.427 250.942C469.07 250.889 466.065 251.951 463.36 253.124C442.478 262.133 421.305 273.523 403.922 290.027C399.037 294.714 394.524 299.834 390.669 305.427C384.879 314.001 377.461 325.146 378.277 332.105C378.319 332.308 378.371 332.493 378.432 332.664C379.076 334.688 380.982 337.164 381.637 337.403C381.89 337.549 382.286 337.588 382.263 337.575C382.254 337.577 382.108 337.594 381.885 337.737C381.664 337.871 381.429 338.151 381.35 338.326C390.957 315.347 390.638 285.488 383.184 257.882C376.673 234.169 365.873 210.342 349.298 189.592C347.18 186.943 344.771 184.463 342.599 183.312C340.365 182.268 339.636 182.345 337.26 183.976C329.566 189.618 322.015 194.582 315.024 200.472C305.277 208.417 295.974 219.815 301.632 226.01C314.578 236.118 332.602 253.307 332.943 273.345C333.733 292.239 323.784 307.581 312.435 317.927C289.443 337.84 263.581 345.518 240.39 349.983C234.2 351.113 228.113 352.142 222.109 353.01C220.071 353.305 218.029 353.584 215.981 353.844C213.437 354.166 210.904 354.455 208.383 354.708C186.482 356.764 159.436 357.46 133.9 344.493C115.757 333.855 92.8086 325.803 82.3515 299.176C80.9431 293.401 81.0027 286.375 85.1211 280.298C108.275 252.922 144.485 251.05 173.909 254.841C194.94 257.987 216.805 262.202 233.004 277.411C234.763 279.217 236.767 281.33 237.882 284.964C239.075 288.727 237.745 292.844 236.484 295.043C236.315 295.358 236.137 295.681 235.956 295.996C233.363 300.294 229.554 306.079 221.556 306.903C205.46 307.968 189.385 302.789 177.793 292.371C168.249 283.081 156.014 275.283 152.314 258.093C151.565 251.145 152.161 244.355 155.534 237.479C158.401 232.01 163.376 226.365 171.133 225.075C184.789 223.074 199.393 227.024 210.519 236.568C212.451 238.222 214.374 239.941 216.273 241.793C220.987 246.979 227.987 252.203 227.551 263.654C227.026 268.355 223.616 273.03 218.759 274.664C200.948 280.293 179.369 275.299 162.597 259.883C155.107 252.968 147.53 244.169 144.288 231.688C143.854 229.905 143.538 228.053 143.38 226.147C143.253 224.454 143.132 222.659 143.458 220.409C143.711 218.262 145.056 214.965 147.603 213.217C156.107 206.349 168.425 200.902 181.379 200.005C183.164 199.856 184.914 199.773 186.725 199.748C216.274 199.305 252.479 207.223 282.601 234.111C297.825 247.756 312.539 264.054 325.722 283.634C339.749 305.925 357.712 329.137 363.51 362.023C364.177 367.831 364.758 373.723 364.935 379.901C365.01 382.988 365 386.131 364.638 389.485C364.047 392.818 364.28 396.481 359.972 400.895C355.762 404.676 349.056 411.119 340.049 410.611C336.032 410.443 331.936 410.234 327.639 409.63C325.481 409.313 323.289 408.927 320.88 408.124C319.668 407.704 318.416 407.213 316.994 406.262C315.657 405.361 313.807 403.65 313.247 400.968C312.744 396.654 314.682 395.166 316.256 393.75C317.905 392.457 320.683 391.494 323.476 392.502C330.529 395.231 336.601 399.211 341.822 404.889C345.699 409.158 348.676 414.462 349.97 420.172C350.908 423.896 350.797 428.744 348.852 432.596C346.782 436.627 344.449 440.015 339.962 442.796C305.093 452.283 278.469 436.791 253.843 425.735C252.914 425.267 251.979 424.789 251.036 424.302C241.631 419.427 232.472 414.382 223.783 408.687C213.91 401.941 203.683 395.039 197.632 383.05C196.895 381.37 196.144 379.591 196.163 376.884C196.209 375.556 196.509 373.769 197.9 372.112C199.281 370.425 201.607 369.667 203.283 369.742C209.13 370.4 212.028 373.168 214.272 377.537C217.385 384.085 219.538 393.725 215.624 401.549C210.343 412.296 204.58 425.389 190.116 429.676C183.023 431.421 175.695 432.468 168.267 432.002C162.579 431.623 155.37 430.287 148.471 425.738C138.692 418.698 123.552 410.471 118.191 391.441C116.142 380.628 112.331 365.884 123.523 353.73C131.045 346.974 140.574 336.106 155.426 338.805C173.124 342.896 191.389 349.05 208.42 359.179C222.539 367.74 237.205 380.308 240.588 398.641C240.696 399.47 240.941 400.143 240.603 401.877C240.484 402.329 240.315 402.929 239.728 403.673C239.176 404.421 237.948 405.106 236.996 405.173C235.075 405.28 234.497 404.707 233.909 404.419C231.953 403.103 231.285 402 230.41 400.769C219.488 378.312 220.931 355.82 220.299 334.201C220.288 301.83 220.318 270.81 225.043 243.56C226.131 237.475 227.17 231.564 228.201 225.863C229.35 219.5 230.548 213.075 231.851 206.665C238.168 181.902 240.037 151.933 265.938 135.402C267.135 134.847 268.691 134.244 270.65 134.231C272.613 134.202 274.516 134.956 275.801 135.787C278.39 137.497 279.766 139.311 281.158 141.054C292.342 155.871 303.395 170.87 306.995 189.12C308.021 194.792 308.458 202.408 304.313 208.474C303.66 209.468 302.925 210.395 302.139 211.246C292.094 222.153 278.093 234.906 258.808 235.57C249.96 235.9 240.872 235.92 231.44 235.054C226.715 234.599 221.921 233.95 216.93 232.63C212.125 230.976 206.16 230.373 201.475 222.369C200.552 220.425 199.765 217.679 200.199 214.742C200.616 211.807 202.052 209.5 203.367 207.877C208.671 201.408 215.194 194.046 225.516 190.913C230.8 188.884 240.041 189.559 245.209 193.772C275.486 217.72 298.24 249.537 317.897 284.719C328.088 304.807 341.649 329.055 330.946 356.297C329.377 359.864 326.694 363.9 322.793 366.569C318.924 369.253 314.86 370.357 311.277 371.089C289.434 375.614 264.68 379.851 240.709 372.02C222.256 365.761 200.321 359.553 186.466 340.435C178.339 328.119 166.817 312.342 174.102 292.728C179.457 279.415 189.657 265.373 204.191 259.125C212.059 255.533 220.05 252.198 228.545 249.604C232.824 248.326 237.192 247.195 242.102 246.701C244.558 246.481 247.207 246.374 250.27 246.959C253.227 247.5 257.581 249.272 259.913 253.442C272.026 277.503 289.414 304.823 274.285 335.596C266.051 348.524 252.895 361.747 235.469 363.499C210.886 366.46 184.136 368.009 161.129 356.864C158.007 355.366 154.921 353.815 151.883 352.191C148.941 350.618 146.024 348.965 143.148 347.212C128.846 338.591 115.624 326.93 107.189 312.261C96.5262 291.563 80.1321 274.745 80.7762 246.07C85.0691 221.809 96.5362 198.521 114.712 182.894C130.674 169.688 150.934 151.612 176.181 160.449C193.558 168.674 213.778 172.171 224.076 195.419C224.798 198.634 225.313 201.736 224.468 205.949C223.975 207.96 223.005 211.088 219.426 213.197C215.744 215.185 212.484 214.328 210.557 213.683C197.14 207.561 188.655 199.207 182.579 187.132C170.797 156.144 147.847 129.985 159.728 95.4049C190.12 51.8948 235.012 47.2968 259.645 48.4088C263.157 48.5742 266.457 48.7925 269.542 49.0941C272.958 49.4269 276.104 49.8628 278.958 50.4013C281.503 50.8803 283.819 51.4413 285.862 52.0422C292.796 54.0434 299.682 57.5639 304.974 62.7781C311.433 69.6558 318.873 74.7072 322.896 87.0028C323.988 91.3739 324.273 97.4428 321.644 102.604C317.746 109.54 314.564 118.015 302.647 122.006C302.464 122.05 302.276 122.094 302.083 122.14C300.644 122.48 299.121 122.827 297.535 123.123C294.232 123.715 290.661 124.231 286.417 123.668C282.316 123.264 276.612 120.437 274.211 115.667C270.531 107.755 271.321 101.864 272.491 95.1418C273.455 90.7681 275.897 83.7175 283.343 81.1062C289.196 79.2778 294.719 79.8339 300.141 82.8562C310.657 89.3935 318.606 98.1431 326.081 108.049C330.526 114.032 334.441 120.242 337.954 126.553C350.018 149.359 364.483 170.616 367.041 197.856C367.408 205.64 367.624 213.368 367.263 221.211C367.064 225.152 366.746 229.099 365.927 233.267C364.69 237.287 365.142 242.327 357.503 247.281C347.541 251.972 336.851 252.705 326.758 250.032C322.415 249.069 316.594 245.249 314.739 239.89C313.056 235.595 313.089 231.186 314.168 227.185C315.174 223.411 317.231 219.913 319.581 217.224C322.964 213.373 326.762 209.83 332.008 207.27C337.015 204.607 345.17 204.091 350.697 207.712C381.834 232.088 407.14 257.356 414.912 294.957C415.434 300.789 414.529 307.445 411.095 313.044C407.342 318.849 403.487 324.968 394.887 328.668C389.631 330.631 384.25 332.531 378.115 333.512C378.06 333.521 378.005 333.529 377.95 333.537C373.836 334.127 369.125 334.386 364.12 332.549C357.649 330.129 348.202 325.749 345.386 315.578C343.784 309.289 344.093 303.603 345.862 297.729C347.64 292.312 350.556 287.784 354.727 283.919C356.189 282.664 358.043 280.875 361.612 279.941C365.293 278.977 369.1 280.373 371.123 281.704C400.532 301.089 412.987 331.478 423.64 358.782C427.571 369.504 431.412 380.106 434.781 390.951C437.285 399.213 439.656 407.347 440.547 416.339C441.858 430.137 437.233 445.806 425.161 454.05C402.97 467.488 380.102 465.522 360.927 460.847C352.579 458.646 344.506 456.269 336.697 452.966C329.374 449.221 319.618 446.764 316.013 433.517C315.094 426.414 317.59 419.864 324.121 415.738C330.741 412.061 337.899 413.465 342.949 416.777C357.33 426.9 367.202 439.438 373.121 453.462C376.41 461.41 378.084 469.86 378.042 478.034C378.019 482.54 377.129 488.285 372.84 492.827C371.811 493.95 370.057 495.372 368.398 496.17C366.73 497.002 365.237 497.434 363.881 497.764C361.182 498.392 358.867 498.63 356.591 498.836C355.453 498.935 354.322 499.027 353.199 499.112C319.716 501.201 285.971 500.48 259.862 477.714C257.547 475.587 255.395 473.303 253.421 470.876C247.735 463.454 241 455.623 240.488 443.025C240.478 440.986 240.787 438.12 242.033 435.535C243.256 432.953 244.949 431.126 246.455 429.728C251.088 425.822 255.103 422.808 262.716 421.695C269.546 420.816 275.807 425.923 278.205 429.759C280.955 433.648 283.548 438.628 284.204 444.296C285.943 466.946 296.349 496.013 272.706 518.389C270.635 520.009 268.423 521.568 266.05 522.972C261.52 525.664 256.311 527.781 250.751 528.633C246.334 529.326 241.774 529.196 237.46 528.349C208.504 521.57 177.15 507.823 165.963 474.067C164.162 465.845 164.189 458.756 165.54 450.664C165.991 448.36 166.603 445.993 167.792 443.428C169.109 440.983 170.43 437.658 175.836 435.492C179.543 434.141 183.741 435.39 185.935 436.936C188.273 438.497 189.65 440.233 190.777 441.898C197.051 451.438 202.082 463.102 201.131 476.218C201.119 476.364 201.107 476.51 201.094 476.656C200.971 482.701 196.484 490.602 191.295 493.112C184.692 496.896 180.003 498.554 179.792 498.508C179.518 498.386 184.149 496.462 190.879 492.417C195.377 490.074 199.574 483.506 200.006 477.859C200.085 477.278 200.144 476.708 200.188 476.144C201.12 463.351 196.199 451.859 189.988 442.422C188.911 440.828 187.598 439.183 185.418 437.729C183.367 436.288 179.53 435.154 176.139 436.388C171.202 438.358 169.902 441.479 168.65 443.828C167.509 446.287 166.91 448.591 166.469 450.843C165.145 458.746 165.12 465.817 166.883 473.841C177.624 506.599 208.583 520.673 237.642 527.418C240.287 527.934 243.015 528.184 245.751 528.124C251.272 528.021 256.745 526.573 261.565 524.282C265.441 522.455 268.942 520.128 272.122 517.641C295.008 496.225 285.141 467.256 283.262 444.408C282.632 438.953 280.133 434.127 277.429 430.302C275.085 426.582 269.219 421.818 262.798 422.639C255.601 423.678 251.571 426.635 247.097 430.424C244.092 432.677 240.999 438.973 241.435 443.029C241.905 455.121 248.497 462.926 254.155 470.279C255.619 472.08 257.18 473.798 258.836 475.432C282.803 498.007 314.775 500.017 347.582 498.536C350.524 498.368 353.49 498.153 356.51 497.891C358.75 497.689 361.031 497.453 363.642 496.846C366.068 496.367 370.039 494.655 372.154 492.172C376.18 487.918 377.076 482.438 377.093 478.03C377.122 471.352 376.013 464.465 373.729 457.774C368.341 442.348 357.853 428.467 342.427 417.568C337.615 414.406 330.801 413.102 324.593 416.559C318.478 420.407 316.067 426.673 316.948 433.366C320.293 445.829 329.821 448.442 337.091 452.104C344.824 455.374 352.859 457.742 361.167 459.931C380.19 464.597 402.944 466.424 424.616 453.277C436.356 445.264 440.888 429.983 439.605 416.423C438.768 407.913 436.549 400.116 434.172 392.191C430.753 381.059 426.797 370.145 422.752 359.108C412.167 331.964 399.751 301.703 370.624 282.507C368.703 281.249 365.211 279.979 361.835 280.861C358.555 281.714 356.782 283.394 355.361 284.621C351.333 288.351 348.482 292.772 346.763 298.017C345.05 303.691 344.751 309.27 346.298 315.326C348.957 324.987 358.012 329.262 364.453 331.663C368.064 333.009 371.635 333.162 374.855 332.935C382.2 332.311 388.423 330.047 394.552 327.783C402.733 324.28 406.601 318.282 410.285 312.554C413.077 307.995 414.184 302.603 414.096 297.649C408.159 259.115 381.503 233.258 350.213 208.525C344.946 205.087 337.264 205.562 332.415 208.124C327.352 210.592 323.615 214.062 320.297 217.843C318.019 220.452 316.048 223.807 315.08 227.435C314.048 231.26 314.024 235.474 315.619 239.541C317.377 244.596 322.81 248.174 327.006 249.119C336.867 251.737 347.379 251.007 357.084 246.433C364.087 241.926 363.828 237.024 364.999 233.081C365.804 228.991 366.121 225.078 366.318 221.165C366.677 213.376 366.462 205.668 366.096 197.902C363.602 171.108 349.193 149.786 337.127 127.012C333.748 120.943 330.016 114.999 325.782 109.235C318.241 99.1285 310.211 90.239 299.659 83.6713C294.536 80.8062 289.2 80.2611 283.651 82.0024C276.735 84.4111 274.359 91.0429 273.416 95.3472C272.275 101.827 271.535 107.691 275.043 115.21C278.865 122.45 287.558 123.384 292.521 122.854C294.361 122.708 296.101 122.434 297.781 122.11C299.39 121.799 300.958 121.432 302.429 121.083C313.52 117.446 316.938 109.169 320.793 102.185C323.278 97.3089 323.047 91.5231 321.972 87.2162C318.209 75.5683 310.8 70.3098 304.312 63.4558C299.464 58.6841 293.222 55.3265 286.822 53.3246C282.576 51.9642 277.098 50.8329 270.658 50.1578C267.246 49.7932 263.552 49.5386 259.6 49.3527C234.941 48.2008 190.419 53.0623 160.551 95.87C148.943 129.308 171.595 155.85 183.441 186.744C189.327 198.507 197.862 206.87 210.869 212.791C212.685 213.402 215.662 214.16 218.963 212.373C222.176 210.484 223.086 207.634 223.546 205.74C224.344 201.782 223.861 198.752 223.158 195.644C213.352 173.329 193.145 169.436 175.834 161.328C151.366 152.691 131.241 170.394 115.333 183.606C97.3417 199.077 85.9733 222.135 81.7058 246.241C81.0305 274.01 97.3244 291.172 108.005 311.784C116.487 326.54 129.864 338.208 144.359 346.841C145.145 347.314 145.931 347.779 146.722 348.238C151.641 351.09 156.6 353.642 161.537 356.011C186.823 367.927 213.156 364.992 235.36 362.536C253.425 360.571 265.715 347.049 273.451 335.054C288.663 301.685 269.376 275.512 258.996 253.965C256.677 249.856 252.374 248.347 249.515 247.9C246.467 247.414 243.898 247.577 241.424 247.846C236.513 248.434 232.168 249.615 227.963 250.912C219.589 253.551 211.952 256.788 204.653 260.129C189.507 266.76 180.193 280.837 175.168 293.183C168.044 313.293 180.057 328.228 187.479 339.721C194.745 349.983 204.901 356.275 214.446 360.763C223.622 365.04 232.656 367.92 241.143 370.694C267.279 378.881 291.293 373.497 310.987 369.63C318.061 368.836 327.19 362.775 329.588 355.685C335.695 341.885 333.364 327.93 330.17 316.721C327.952 309.149 325.09 302.358 322.119 296.089C320.343 292.353 318.511 288.804 316.657 285.392C305.063 264.181 293.648 247.465 281.039 231.714C269.403 217.466 258.137 204.955 244.484 194.794C239.485 190.767 230.99 190.181 225.856 192.106C215.937 195.11 209.565 202.246 204.314 208.651C203.08 210.174 201.783 212.278 201.407 214.912C201.016 217.547 201.717 220.039 202.58 221.858C206.585 228.861 212.179 229.767 216.784 231.337C221.545 232.645 226.22 233.318 230.884 233.793C240.184 234.701 249.424 234.731 258.774 234.39C268.366 234.114 277.786 230.343 285.546 224.79C291.333 220.707 296.492 215.757 301.362 210.512C307.093 204.852 307.275 195.656 305.977 189.285C302.317 170.874 291.154 155.999 280.367 141.658C279.003 139.941 277.637 138.176 275.244 136.609C274.056 135.847 272.359 135.191 270.624 135.222C268.891 135.239 267.48 135.778 266.355 136.3C244.242 149.605 241.105 174.474 235.589 194.063C235.57 194.144 235.551 194.225 235.532 194.306C234.042 200.718 232.743 207.057 231.547 213.247ZM128.478 50.885C114.791 43.2305 102.558 44.3923 102.823 43.8324C102.817 43.8802 115.473 42.2905 129.454 50.367C129.524 50.4096 129.594 50.4524 129.664 50.4955C131.676 51.738 133.595 53.2079 135.359 55.1003C136.24 56.0563 137.082 57.1002 137.865 58.4397C138.254 59.1184 138.632 59.8558 138.965 60.8495C139.234 61.8812 139.782 62.9748 139.204 65.6366C138.574 68.7424 134.85 70.8547 132.764 70.7102C130.546 70.7484 129.175 70.0178 128.129 69.354C126.088 67.95 125.223 66.4521 124.544 65.1473C123.271 62.4997 122.977 60.2446 122.802 58.1259C122.306 51.0834 121.764 44.0038 121.493 36.7662C121.367 33.1331 121.293 29.494 121.501 25.6339C121.616 23.6934 121.782 21.703 122.25 19.4721C122.504 18.326 122.801 17.1375 123.485 15.6633C124.176 14.3086 125.362 11.926 128.776 10.7239C136.45 6.60373 149.501 1.07842 160.969 0.428894C167.441 -0.140299 173.319 0.250278 177.801 0.855022C183.936 1.72779 187.356 3.39099 187.242 3.44429C187.108 3.60117 183.626 2.23149 177.716 1.56847C173.118 1.09165 167.11 0.7914 160.527 1.41812C149.307 2.16035 136.917 7.46582 129.067 11.623C126.064 12.6765 124.979 14.8042 124.339 16.0674C123.705 17.4333 123.418 18.5674 123.174 19.6696C122.723 21.8179 122.558 23.7746 122.444 25.6865C122.239 29.4936 122.312 33.1143 122.437 36.7315C122.707 43.9405 123.249 51.0151 123.745 58.0583C123.911 60.1019 124.204 62.2635 125.39 64.7264C126.019 65.9399 126.825 67.3118 128.65 68.5656C129.584 69.1597 130.8 69.7998 132.73 69.7658C134.549 69.8869 137.746 68.0697 138.29 65.3937C138.795 63.0826 138.317 62.0851 138.068 61.1465C137.764 60.2387 137.413 59.5505 137.047 58.9141C136.312 57.6563 135.51 56.6586 134.666 55.7432C132.976 53.9292 131.12 52.5052 129.169 51.3007C128.94 51.1596 128.709 51.021 128.478 50.885ZM251.627 160.497C246.066 172.205 242.791 184.953 241.736 187.745C240.821 190.575 242.246 182.41 246.629 170.016C249.244 163.837 252.366 151.76 264.23 142.212C265.414 141.362 266.683 140.599 268.051 139.957C271.384 137.863 274.701 140.808 277.151 144.111C285.94 156.064 297.735 170.335 301.869 189.952C302.949 195.857 302.991 202.866 298.282 207.607C288.499 218.038 275.644 229.433 258.644 229.909C242.156 229.447 221.025 233.208 206.844 219.888C205.429 217.268 205.95 213.862 207.969 211.637C213.007 205.459 218.971 199.117 227.162 196.688C231.895 195.079 237.562 195.527 241.718 198.694C269.826 220.912 292.984 252.476 312.565 287.614C322.597 306.962 334.885 330.488 325.495 353.84C323.155 360.138 316.563 364.3 310.118 365.259C288.561 369.77 265.031 373.802 242.514 366.511C224.23 360.423 203.481 354.326 191.081 337.184C183.045 325.39 173.151 310.55 179.183 294.897C184.311 282.217 193.24 269.823 206.451 264.041C214.057 260.541 221.827 257.276 229.927 254.766C233.994 253.529 238.136 252.456 242.476 251.997C246.571 251.711 252.194 251.207 255.332 256.054C264.991 273.44 274.125 292.175 275.005 312.958C275.136 319.914 273.811 327.036 270.033 332.838C261.879 345.715 249.802 357.087 234.911 358.572C230.104 359.125 225.333 359.66 220.58 360.06C201.004 361.742 181.01 361.078 163.175 352.592C143.669 343.286 123.43 331.13 111.047 310.006C101.511 291.515 84.8888 274.009 84.9266 246.834C88.6525 225.958 97.8685 202.993 117.37 185.939C131.601 174.451 150.127 156.037 174.73 164.124C190.152 171.367 210.718 175.516 220.27 196.35C220.752 198.347 221.039 200.398 220.961 202.588C220.838 204.449 220.681 206.542 218.928 208.638C218.047 209.666 216.558 210.388 215.247 210.478C213.936 210.593 212.815 210.32 211.851 209.987C200.446 204.854 191.615 196.622 186.149 185.527C175.786 157.671 152.607 130.689 163.143 97.3359C184.044 65.6402 222.795 50.2751 259.458 52.3654C273.923 53.1792 290.504 54.3124 302.189 65.6322C308.411 72.1281 315.785 77.8294 318.979 87.9076C319.95 91.8747 320.11 96.712 318.022 100.821C314.466 107.463 310.708 115.212 301.711 118.039C297.928 118.926 293.955 119.846 289.682 119.809C285.579 119.877 280.112 118.198 277.818 113.683C274.943 107.627 275.451 101.8 276.534 96.0387C277.41 91.9985 279.532 86.78 284.694 85.039C289.218 83.5963 293.927 84.1178 298.017 86.4475C314.191 96.9074 325.155 112.523 334.278 128.598C345.835 150.481 360.321 171.9 362.799 198.061C363.149 205.589 363.359 213.134 363.018 220.739C362.833 224.549 362.526 228.364 361.78 232.225C360.835 235.944 360.467 240.432 355.609 243.446C346.938 247.544 337.059 248.349 327.885 245.883C324.234 245.007 320.167 242.303 318.743 238.302C317.467 235.058 317.455 231.538 318.33 228.324C319.159 225.234 320.818 222.381 322.852 220.05C328.434 213.591 338.496 205.565 348.472 211.445C365.397 223.141 378.826 238.093 391.064 254.056C401.827 269.866 417.23 289.39 407.273 310.729C403.881 316.084 400.012 321.656 393.301 324.469C384.853 327.369 375.805 331.461 365.71 328.319C359.502 326.006 351.882 322.221 349.762 314.368C348.442 309.253 348.677 304.078 350.202 299.115C351.681 294.579 354.27 290.553 357.79 287.311C359.048 286.203 360.5 284.947 362.664 284.395C364.865 283.819 367.168 284.603 368.707 285.596C395.257 302.774 408.557 332.363 419.26 360.391C425.724 378.764 433.307 396.822 435.86 416.757C436.968 428.892 433.224 442.791 422.434 450.184C404.174 461.519 381.886 461.262 362.141 456.216C354.452 454.181 346.802 451.945 339.35 448.86C332.329 445.557 323.29 442.463 320.795 432.748C320.086 427.826 322.072 422.693 326.543 419.951C330.973 417.446 336.37 418.261 340.265 420.849C358.653 433.894 373.188 454.634 373.059 478.012C373.04 481.836 372.255 486.19 369.219 489.376C365.489 493.341 360.354 493.319 356.164 493.83C322.331 496.302 281.704 496.326 257.435 467.613C251.989 460.643 245.986 452.999 245.689 443.044C245.456 439.638 247.426 435.657 249.986 433.561C253.72 430.327 257.804 427.618 263.169 426.904C267.701 426.351 271.8 429.539 273.91 432.765C276.379 436.269 278.461 440.388 278.98 444.916C281.028 467.4 289.585 495.719 269.406 514.157C261.075 520.933 249.574 525.459 238.5 523.034C210.855 516.812 180.636 502.17 171.33 472.749C169.766 465.726 169.777 458.73 170.984 451.712C171.935 447.876 172.543 443.204 177.615 440.752C181.7 439.515 184.602 442.663 186.146 444.972C192.056 453.925 196.427 464.606 195.578 475.783C195.38 480.476 193 485.941 188.471 488.394C163.333 501.61 129.579 513.206 103.973 493.589C95.3924 485.762 85.7172 477.395 82.8641 464.882C81.1758 456.652 81.4329 447.011 86.8864 439.725C88.9561 436.912 90.991 434.019 93.3697 431.275C94.5722 429.908 95.8459 428.558 97.4715 427.404C98.9907 426.301 101.614 425.126 104.045 426.38C114.735 432.617 121.221 443.992 122.242 455.957C122.532 459.69 122.754 463.462 122.408 467.344C121.976 470.947 121.338 476.189 116.257 477.961C85.6156 483.46 50.273 482.989 26.0925 460.239C11.5599 443.116 -2.94781 417.426 10.8659 395.114C18.137 384.07 28.1228 374.812 39.9193 368.721C50.2235 363.341 63.9178 358.45 75.4751 365.317C88.3722 372.951 100.83 384.076 104.244 399.763C104.857 403.55 105.628 408.604 101.27 412.064C95.214 416.767 87.35 421.3 78.9861 421.754C68.4504 421.889 55.9746 425.127 46.7841 414.972C38.6021 402.702 29.0837 386.855 33.7007 370.574C36.2891 359.181 42.3571 348.371 51.2671 340.626C62.0077 331.188 73.1718 322.082 85.4817 314.522C97.5327 307.611 112.412 298.953 127.469 305.986C128.302 306.433 129.107 306.927 129.881 307.462C133.542 310.002 136.536 313.422 138.567 317.393C140.906 321.886 141.792 327.382 140.526 332.428C139.246 337.442 136.718 341.891 132.94 345.509C130.156 348.324 125.476 350.048 121.475 349.515C102.237 349.303 81.5738 343.106 67.0943 329.324C51.8773 315.024 35.5365 302.589 21.5769 286.046C19.6412 283.177 17.7998 279.273 19.5774 275.017C29.0626 257.021 43.5999 238.394 66.0533 236.234C76.559 235.952 88.7446 237.148 96.7926 245.988C102.321 252.259 109.105 259.419 109.81 269.181C110.025 274.203 109.278 279.066 105.986 283.557C103.532 286.918 98.5618 287.294 95.5004 286.618C67.1962 276.187 48.3621 252.619 34.5713 227.834C27.6466 212.976 16.2244 200.548 16.4602 181.237C17.9878 176.423 21.786 172.651 26.0887 170.574C36.346 165.646 47.7702 161.666 59.8119 163.373C67.2772 164.533 76.1225 166.821 81.1241 174.105C83.5885 177.643 84.4962 182.008 84.0453 186.154C83.643 189.839 82.1705 193.356 79.8856 196.251C78.8618 197.522 77.6816 198.92 75.7996 199.896C73.9282 200.932 71.2804 200.829 69.5243 199.967C59.9077 195.809 50.4565 188.253 47.3334 177.382C42.5358 161.359 38.1549 145.121 35.3661 128.487C34.0104 120.165 33.0039 111.723 33.2308 103.126C33.6815 94.8825 34.385 84.5377 43.2767 79.0156C53.6162 73.644 65.0887 72.9053 76.0843 73.8652C78.5618 74.1017 81.0506 74.4526 83.54 74.9117C107.827 79.8465 131.018 94.937 150.288 115.207C158.954 124.938 170.416 135.736 170.277 151.569C169.573 160.775 171.15 170.627 164.952 180.189C162.247 183.413 158.522 186.704 153.345 186.79C143.963 186.581 130.884 184.907 127.057 173.067C119.814 141.655 112.444 102.867 136.579 75.1693C143.794 68.2427 154.452 65.8721 163.859 68.0768C178.601 70.9263 193.225 78.9116 201.525 91.7142C219.761 119.247 245.762 144.56 246.264 177.74C246.13 182.758 245.241 188.213 240.7 192.025C237.497 194.6 232.792 193.564 230.157 191.635C214.438 185.15 205.108 168.375 202.551 153.612C198.98 136.339 197.914 119.155 203.085 104.572C205.901 96.077 210.689 86.7704 219.276 84.0376C236.547 77.7442 251.542 75.9001 262.112 75.0495C275.724 74.0159 286.624 74.4998 286.484 74.7115C286.34 75.0199 275.229 74.967 261.691 76.0312C251.288 76.8925 236.571 78.7424 219.599 84.9257C211.418 87.5309 206.808 96.3714 203.974 104.892C198.899 119.179 199.916 136.232 203.476 153.417C206.097 168.109 214.935 184.272 230.68 190.848C233.195 192.659 237.305 193.532 240.137 191.266C244.231 187.866 245.217 182.579 245.319 177.735C244.878 145.154 219.069 119.846 200.743 92.2434C192.574 79.6643 178.285 71.8376 163.654 68.9989C154.514 66.8527 144.183 69.177 137.238 75.8453C113.599 102.843 120.716 141.608 127.966 172.81C131.452 183.854 144.079 185.673 153.346 185.846C158.034 185.785 161.617 182.712 164.22 179.591C170.048 170.69 168.675 160.7 169.333 151.539C169.51 136.304 158.267 125.546 149.6 115.854C130.428 95.6734 107.303 80.6925 83.3686 75.8417C81.6042 75.5164 79.8492 75.2475 78.1036 75.0355C66.5785 73.7215 54.4344 74.3091 43.7395 79.8405C28.7678 92.3808 34.6313 112.456 36.2994 128.333C39.0764 144.899 43.448 161.109 48.2393 177.11C51.261 187.63 60.4204 194.996 69.9082 199.102C71.5014 199.871 73.7257 199.952 75.3737 199.051C77.0317 198.196 78.1544 196.898 79.1436 195.664C81.3192 192.908 82.7233 189.553 83.1049 186.051C83.5344 182.111 82.6653 177.97 80.3477 174.646C75.6012 167.717 67.0886 165.457 59.6625 164.307C47.9776 162.639 36.6578 166.536 26.5067 171.422C22.3818 173.415 18.7993 176.996 17.3608 181.527C17.1292 199.608 28.4631 212.682 35.4048 227.386C49.0432 252.011 68.0903 275.518 95.6573 285.685C98.6788 286.322 103.031 285.974 105.255 282.955C108.292 278.841 109.09 274.029 108.866 269.249C108.205 259.915 101.643 252.903 96.0824 246.614C88.4052 238.146 76.4816 236.886 66.0865 237.18C44.3625 239.201 29.75 257.659 20.4381 275.412C18.87 279.103 20.4936 282.777 22.3545 285.505C36.0679 301.757 52.537 314.354 67.7327 328.624C82.0788 342.243 102.301 348.34 121.556 348.571C125.384 349.055 129.601 347.503 132.298 344.811C135.902 341.368 138.387 337.006 139.605 332.205C140.811 327.384 139.975 322.158 137.721 317.822C136.322 315.078 134.429 312.605 132.177 310.518C130.623 309.08 128.894 307.827 127.02 306.821C112.724 300.065 97.9322 308.423 85.9764 315.332C73.7479 322.842 62.6124 331.922 51.8963 341.34C43.1382 348.959 37.1854 359.556 34.6308 370.795C30.1453 386.724 39.3277 402.038 47.6183 414.491C55.8533 423.761 68.4983 421.035 78.9078 420.788C87.0782 420.321 94.5728 416.019 100.726 411.256C104.434 408.386 103.925 403.615 103.286 399.951C99.9944 384.742 87.7346 373.7 74.981 366.173C63.9209 359.584 50.6338 364.246 40.3744 369.609C28.7526 375.612 18.8794 384.769 11.7117 395.667C-1.71207 417.176 12.4512 442.629 26.8473 459.53C50.3964 481.798 85.8068 482.389 115.944 476.933C120.178 475.525 120.947 470.786 121.332 467.243C121.667 463.482 121.451 459.749 121.16 456.043C120.2 444.451 113.739 433.285 103.554 427.366C101.666 426.384 99.5369 427.276 98.1047 428.308C96.612 429.367 95.3729 430.67 94.2036 432.002C91.8819 434.682 89.8553 437.563 87.7829 440.383C82.5918 447.32 82.3056 456.574 83.9674 464.665C86.6656 476.608 96.1657 484.96 104.731 492.733C129.392 511.77 163.064 500.502 187.859 487.372C192.032 485.081 194.163 480.22 194.383 475.69C195.202 464.903 190.954 454.448 185.132 445.645C183.683 443.446 181.103 440.914 178.007 441.91C173.967 443.778 173.027 448.244 172.192 451.945C171.02 458.732 171.022 465.707 172.536 472.452C181.48 500.944 211.439 515.693 238.749 521.763C249.405 524.076 260.397 519.776 268.596 513.119C287.852 495.721 279.805 467.627 277.626 445.076C277.139 440.85 275.188 436.957 272.786 433.552C270.751 430.492 267.222 427.807 263.288 428.278C258.526 428.89 254.424 431.519 250.926 434.582C248.518 436.626 246.914 439.849 247.083 443.049C247.325 452.258 253.123 459.858 258.531 466.722C282.136 494.719 322.331 494.875 356.038 492.352C360.198 491.873 365.027 491.758 368.139 488.346C370.78 485.585 371.548 481.646 371.559 478.006C371.704 455.299 357.408 434.877 339.415 422.14C335.918 419.809 331.09 419.145 327.318 421.299C323.547 423.573 321.688 428.236 322.338 432.5C329.066 448.061 348.145 449.97 362.545 454.672C381.954 459.661 404.022 459.74 421.491 448.847C431.662 441.884 435.28 428.659 434.206 416.904C431.717 397.471 424.134 379.291 417.664 360.977C407.028 333.099 393.671 303.767 367.78 287.089C366.428 286.231 364.713 285.682 363.078 286.106C361.452 286.511 360.153 287.566 358.973 288.62C355.717 291.616 353.253 295.446 351.89 299.654C350.47 304.248 350.26 309.223 351.479 313.893C353.312 320.794 360.203 324.37 366.341 326.641C375.281 329.498 384.338 325.702 392.662 322.776C398.578 320.333 402.462 314.985 405.715 309.786C415.009 290.394 400.367 270.724 389.575 255.164C377.501 239.396 363.905 224.379 347.505 213.067C339.028 207.926 329.737 214.956 324.292 221.293C322.404 223.463 320.921 226.031 320.169 228.827C319.39 231.686 319.419 234.811 320.521 237.597C321.749 240.98 325.032 243.197 328.387 244.033C337.087 246.381 346.603 245.581 354.754 241.714C364.708 229.623 360.664 212.705 360.849 198.155C358.499 172.944 344.115 151.374 332.543 129.563C323.548 113.68 312.556 98.2102 296.995 88.1755C293.504 86.1611 289.186 85.6945 285.348 86.942C281.242 88.2966 279.331 92.633 278.503 96.4753C277.454 101.821 277.125 107.625 279.59 112.709C284.204 120.358 294.208 117.61 301.245 116.063C308.82 113.783 312.818 106.404 316.194 99.9208C318.003 96.3465 317.906 92.1354 316.99 88.367C314.251 79.5023 306.941 73.4616 300.759 67.0989C289.828 56.4527 273.77 55.2023 259.36 54.4236C223.306 52.3208 185.16 67.6873 164.955 98.3604C154.998 128.992 177.532 157.026 188.056 184.67C193.091 195.055 202.031 203.319 212.542 208.014C214.213 208.697 216.683 208.559 217.735 206.773C218.785 205.127 218.908 203.202 218.877 201.386C218.83 199.844 218.599 198.325 218.239 196.847C209.846 178.135 189.211 173.015 173.976 166.034C151.201 158.33 132.734 175.941 118.639 187.392C99.4606 204.076 90.3469 226.577 86.5806 247.138C86.3639 272.677 102.748 290.957 112.214 309.324C124.219 330.059 144.081 342.25 163.628 351.646C179.682 359.365 197.881 360.668 216.01 359.452C222.206 359.05 228.468 358.36 234.804 357.63C249.25 356.198 261.12 345.142 269.237 332.321C272.143 327.856 273.591 322.488 273.955 317.05C274.677 295.096 264.677 274.973 254.507 256.524C251.885 252.35 246.588 252.619 242.568 252.943C238.334 253.391 234.232 254.449 230.202 255.676C222.168 258.166 214.427 261.418 206.849 264.905C193.892 270.586 185.16 282.68 180.06 295.271C174.239 310.208 183.828 324.911 191.861 336.634C203.98 353.42 224.528 359.531 242.812 365.603C265.049 372.805 288.391 368.831 309.931 364.319C316.295 363.322 322.314 359.522 324.621 353.446C333.802 330.749 321.738 307.319 311.72 288.073C292.167 252.961 268.935 221.42 241.159 199.482C237.164 196.484 232.071 196.074 227.427 197.618C219.58 199.936 213.708 206.118 208.718 212.249C206.866 214.382 206.469 217.037 207.723 219.482C220.754 231.728 242.372 228.629 258.616 228.939C275.259 228.473 287.888 217.266 297.575 206.94C301.994 202.474 301.964 195.964 300.909 190.108C296.761 170.555 284.885 156.296 276.377 144.702C275.486 143.548 274.575 142.482 273.622 141.644C271.776 140.025 270.465 139.875 268.461 140.84C258.288 146.073 254.322 155.35 251.627 160.497ZM237.686 410.231C242.878 413.233 248.26 416.13 253.784 418.981C277.949 430.733 307.964 445.403 336.953 437.522C339.624 435.93 341.883 432.987 343.362 429.972C344.622 427.406 344.734 424.477 344.031 421.549C341.598 410.727 331.922 402.396 321.411 398.292C321.041 398.15 320.502 398.249 319.996 398.633C319.751 398.819 319.535 399.064 319.406 399.294C319.269 399.523 319.264 399.727 319.269 399.698C319.821 401.874 324.733 402.98 328.361 403.5C332.248 404.054 336.26 404.269 340.288 404.43C346.244 404.794 351.139 400.584 355.904 396.207C361.063 387.824 358.252 374.116 357.313 362.751C352.923 335.362 335.916 311.018 320.497 287.129C308.587 269.417 294.363 253.092 278.422 238.807C253.524 216.263 219.607 205.382 186.807 205.978C173.859 206.023 161.254 210.143 151.266 218.211C149.312 219.522 149.31 222.703 149.543 225.64C149.719 227.789 150.148 229.927 150.774 232.002C153.579 241.121 159.725 248.946 166.724 255.327C180.209 267.957 199.828 274.186 216.722 268.889C219.292 268.02 221.151 265.579 221.469 262.882C221.802 254.104 213.104 247.217 206.512 241.277C196.944 233.048 183.951 229.492 172.101 231.28C167.264 232.03 163.402 235.994 161.155 240.376C158.589 245.525 157.972 251.651 158.638 257.271C161.231 270.27 173.042 279.01 182.1 287.484C184.678 289.758 187.44 291.733 190.347 293.401C199.95 298.916 210.886 300.926 221.079 300.23C225.333 299.904 228.44 295.769 230.519 291.881C232.707 288.436 231.113 284.93 228.235 282.256C212.301 267.706 191.15 264.495 172.997 261.683C141.098 257.274 108.615 262.585 90.6742 284.14C88.0281 287.962 87.7524 293.053 88.8624 297.585C89.8871 301.824 92.2712 305.686 95.0604 309.102C95.4931 309.632 95.9637 310.181 96.418 310.692C107.444 322.622 121.925 330.859 136.85 338.79C165.023 353.497 200.61 351.199 239.361 344.218C261.996 340.039 287.287 332.372 308.748 313.832C310.632 312.137 312.439 310.321 314.143 308.383C322.138 299.288 328.249 286.974 327.59 273.667C326.978 255.223 312.047 241.221 297.403 229.096C289.982 219.185 299.525 207.635 307.117 200.557C315.292 192.884 324.886 186.62 334.171 179.864C337.068 177.442 341.554 176.729 344.915 178.729C348.308 180.557 350.906 183.437 353.304 186.391C369.332 206.427 381.038 230.661 388.14 256.528C395.291 283.485 397.068 313.655 386.035 340.67C384.758 343.257 381.334 343.207 379.223 342.065C376.294 340.365 374.617 337.422 373.475 334.441C371.316 322.055 380.302 312.114 386.279 302.408C388.05 299.826 389.956 297.336 391.971 294.937C392.047 294.846 392.124 294.756 392.2 294.666C410.59 273.266 435.781 259.103 461.179 248.031C464.104 246.825 467.041 245.469 470.429 245.378C474.047 245.225 476.632 248.269 478.28 250.839C498.729 279.943 495.3 317.626 486.802 348.823C479.172 380.53 461.896 409.135 437.944 427.896C428.276 433.757 418.249 428.247 409.47 427.007C408.219 426.77 406.988 426.58 405.616 425.936C405.272 425.76 404.907 425.55 404.544 425.17C404.184 424.812 403.86 424.132 403.901 423.516C404.011 422.284 404.602 421.738 405.059 421.193C415.666 410.952 428.674 406.096 438.17 396.892C447.87 388.218 456.411 378.979 463.905 369.542C475.335 355.019 485.228 339.475 491.756 322.987C498.309 305.576 493.189 286.71 487.082 270.187C480.381 251.993 467.545 237.253 453.564 225.164C427.771 204.211 391.964 212.38 365.079 222.422C335.351 238.855 323.766 273.164 312.434 300.807C310.804 305.217 310.177 309.93 310.595 314.533C310.861 317.82 312.111 321.044 314.632 322.953C320.285 327.198 328.196 326.155 334.876 324.456C360.047 298.219 372.103 262.516 387.851 234.491C403.406 204.972 406.478 173.748 406.622 146.117C406.989 128.461 402.713 111.866 395.049 98.3624C390.815 90.6675 383.986 85.1361 376.781 81.5109C356.54 73.8084 338.028 86.1327 323.745 93.0197C322.109 93.8981 320.463 94.5977 318.752 95.1454C302.325 100.505 287.243 89.08 271.075 85.793C261.719 84.2565 255.13 92.7872 247.422 95.52C242.736 95.8966 240.758 90.4711 239.4 86.4989C238.028 82.2288 237.082 77.8167 236.031 73.4088C233.947 64.6266 231.702 55.6657 227.211 47.6129C216.39 28.757 200.169 9.70013 177.179 6.09932C161.103 3.84896 144.413 8.05471 130.44 15.8644C128.319 16.7603 127.978 18.9006 127.538 20.592C127.167 22.3476 127.004 24.1426 126.901 25.9184C126.709 29.4731 126.776 33.0033 126.901 36.5466C127.168 43.6204 127.711 50.679 128.213 57.7379C128.341 59.4252 128.628 61.143 129.403 62.7299C129.795 63.5097 130.318 64.2836 131.122 64.8253C131.524 65.0884 132.005 65.2991 132.571 65.2845C133.121 65.2949 133.815 64.878 133.956 64.2411C133.686 59.614 129.95 57.2722 126.818 55.1275C114.22 47.5795 98.8027 47.8606 84.8508 50.2933C75.1141 52.0175 68.7512 60.3936 63.8225 68.0898C51.1795 104.993 63.9737 143.938 71.3217 180.344C78.6739 209.491 101.142 230.579 120.266 251.609C120.281 251.626 120.332 251.673 120.35 251.688C140.977 267.221 161.772 284.983 188.601 287.162C188.707 287.141 188.96 287.027 189.045 286.962C189.826 286.452 190.207 285.24 190.12 284.511C189.616 281.277 188.757 279.896 188.495 278.751C188.177 277.694 188.112 277.315 188.232 277.551C188.354 277.786 188.667 278.614 189.206 279.978C189.473 280.663 189.805 281.464 190.154 282.504C190.32 283.029 190.513 283.603 190.587 284.42C190.71 285.162 190.352 286.699 189.357 287.371C189.23 287.467 188.856 287.635 188.701 287.666C175.118 288.873 154.618 277.887 135.329 264.295C134.023 263.369 132.768 262.464 131.488 261.525C127.406 258.531 123.569 255.571 119.716 252.484C119.674 252.449 119.555 252.34 119.518 252.299C113.051 245.23 106.183 238.136 98.166 228.85C83.5324 211.974 74.0251 196.301 70.261 180.602C69.5236 177.57 68.8239 174.601 68.1567 171.68C67.1947 157.933 48.9352 119.052 62.8825 67.4833C67.6791 60.0966 74.018 51.1614 84.654 49.2087C98.2005 46.8933 113.914 46.2112 127.377 54.2172C129.095 55.2774 130.717 56.5293 132.142 58.0582C132.852 58.8255 133.513 59.6562 134.076 60.6197C134.576 61.6361 135.303 62.5023 134.979 64.5131C134.744 65.6242 133.469 66.3733 132.62 66.3404C131.734 66.3628 131.079 66.0531 130.552 65.7141C129.506 65.0075 128.915 64.0936 128.467 63.2127C127.593 61.4194 127.303 59.5921 127.166 57.8129C126.68 50.8678 126.145 43.8492 125.878 36.7374C125.754 33.1789 125.684 29.6042 125.877 25.9696C125.981 24.1604 126.144 22.3048 126.533 20.4419C127.056 18.6666 127.139 16.264 130.129 14.9041C143.72 7.25555 161.086 2.79873 177.293 5.13808C201.192 8.95638 217.355 28.6159 228.021 47.1555C232.755 55.6732 234.965 64.9277 237.058 73.7348C238.106 78.1447 239.058 82.5263 240.413 86.6143C241.722 90.5272 243.81 95.0477 247.344 94.5963C254.23 92.0779 261.747 83.2127 271.184 84.864C291.61 90.3633 309.379 100.869 323.284 92.1721C324.547 91.493 325.829 90.8139 327.052 90.1797C340.342 84.0685 357.572 72.9883 377.24 80.606C384.52 84.2511 391.586 89.9003 395.976 97.8392C403.698 111.374 408.134 128.163 407.803 146.134C407.718 173.547 404.831 205.107 389.111 235.134C373.197 263.251 362.606 298.048 335.299 326.061C328.453 327.776 320.152 329.116 313.592 324.303C310.579 322.03 309.167 318.248 308.877 314.687C308.427 309.846 309.08 304.848 310.788 300.206C322.245 272.429 333.155 238.123 364.368 220.647C391.513 210.55 427.713 201.807 454.888 223.641C468.992 235.816 482.127 250.811 489.013 269.469C495.148 286.095 500.551 305.425 493.705 323.723C486.911 340.867 476.72 356.766 464.855 371.704C457.471 380.912 449.06 389.941 439.537 398.424C429.878 407.728 416.403 412.922 406.489 422.513C406.121 422.898 405.832 423.375 405.841 423.583C405.841 423.677 405.851 423.722 405.959 423.846C406.066 423.963 406.26 424.094 406.484 424.206C407.414 424.658 408.627 424.896 409.805 425.113C418.803 426.571 428.822 431.482 436.861 426.431C460.36 408.177 477.709 379.946 485.399 348.481C493.956 317.428 497.549 280.406 477.364 251.439C475.719 248.883 473.509 246.323 470.429 246.449C467.428 246.506 464.474 247.801 461.592 248.994C437.283 259.51 413.182 272.932 395.006 292.89C394.731 293.196 394.46 293.502 394.188 293.811C391.638 296.716 389.246 299.76 387.06 302.945C381.077 312.502 372.3 322.831 374.367 334.121C375.422 336.931 377.141 339.788 379.659 341.222C381.532 342.232 384.303 342.15 385.187 340.245C396.026 313.75 394.368 283.604 387.226 256.778C380.169 231.074 368.529 206.94 352.564 186.983C348.295 181.322 340.768 175.161 334.74 180.622C325.411 187.408 315.888 193.627 307.786 201.228C300.182 208.29 291.217 219.431 298.167 228.538C312.383 240.235 327.961 254.761 328.535 273.611C329.202 287.201 323.025 299.66 314.948 308.9C313.192 310.906 311.327 312.784 309.381 314.535C287.789 333.195 262.366 340.933 239.527 345.15C200.727 352.158 164.733 354.456 136.412 339.637C119.077 330.251 101.745 320.953 91.1113 305.223C90.7708 304.665 90.4466 304.098 90.1407 303.519C89.185 301.713 88.4127 299.802 87.9336 297.812C86.7785 293.083 87.0413 287.72 89.8884 283.596C108.676 261.209 141.354 256.429 173.122 260.742C191.337 263.59 212.542 266.694 228.899 281.582C231.867 284.193 233.8 288.668 231.354 292.324C229.208 296.285 226.05 300.741 221.146 301.172C210.842 301.875 199.782 299.869 189.999 294.29C186.99 292.574 184.135 290.539 181.475 288.193C172.381 279.633 160.483 271.054 157.7 257.393C157.02 251.578 157.63 245.352 160.315 239.943C162.653 235.396 166.682 231.179 171.955 230.346C184.113 228.514 197.356 232.161 207.125 240.556C213.732 246.608 222.656 253.249 222.408 263.001C222.057 266.019 219.948 268.799 217.036 269.781C199.65 275.228 179.746 268.804 166.088 256.028C158.32 248.928 151.456 240.017 149.148 229.462C148.889 228.227 148.703 226.976 148.6 225.717C148.392 222.762 148.227 219.218 150.706 217.448C160.776 209.301 173.707 205.062 186.795 205.031C219.821 204.429 253.991 215.407 279.051 238.1C295.065 252.452 309.327 268.823 321.284 286.603C336.726 310.558 353.776 334.837 358.251 362.64C359.093 374.169 362.353 387.358 356.524 396.921C351.831 401.225 346.645 405.763 340.252 405.375C336.209 405.212 332.176 404.998 328.225 404.435C324.524 403.78 319.543 403.218 318.345 399.893C318.142 398.497 320.267 396.799 321.728 397.402C332.505 401.616 342.397 410.09 344.951 421.336C345.691 424.385 345.582 427.611 344.215 430.38C342.645 433.551 340.376 436.564 337.422 438.343C307.375 446.505 277.683 431.556 253.35 419.822C248.471 417.304 243.709 414.752 239.079 412.12C227.276 405.533 218.253 398.474 217.993 397.876C217.688 397.327 225.989 403.573 237.686 410.231ZM243.272 406.642C247.608 409.078 252.025 411.425 256.5 413.723C281.134 426.391 313.105 438.23 333.932 432.225C334.771 431.828 336.958 429.327 337.84 427.334C338.406 426.068 338.522 425.066 338.05 422.936C336.347 414.76 327.977 407.454 319.326 404.138C320.267 404.487 321.367 404.501 322.117 404.322C322.885 404.145 323.371 403.865 323.76 403.576C324.147 403.272 324.459 402.967 324.821 402.343C325.129 401.726 325.755 400.64 325.353 398.416C325.198 397.64 324.804 396.933 324.502 396.564C324.194 396.18 324.001 396.057 323.957 396.022C323.865 395.97 324.263 396.194 324.803 396.369C325.918 396.751 327.576 397.089 329.291 397.33C332.764 397.817 336.621 398.026 340.531 398.173C343.6 398.363 346.555 396.299 351.778 391.451C351.388 391.797 351.332 391.968 351.362 391.9C351.396 391.837 351.509 391.583 351.616 391.227C351.838 390.505 352.039 389.431 352.168 388.27C352.432 385.921 352.467 383.221 352.394 380.485C352.238 374.979 351.677 369.246 350.999 363.492C347.071 338.669 330.284 314.022 315.105 290.735C303.495 273.516 289.541 257.555 274.054 243.715C250.572 222.538 218.7 212.081 186.896 212.646C175.058 212.809 164.74 216.014 155.226 223.611C155.495 223.43 155.908 222.961 156.067 222.63C156.24 222.294 156.221 222.197 156.197 222.367C156.128 222.711 156.112 223.852 156.223 225.09C156.935 233.868 163.318 243.208 171.235 250.346C183.136 261.593 200.605 266.877 214.479 262.534C214.579 262.494 214.576 262.493 214.633 262.43C214.684 262.368 214.758 262.225 214.782 262.033C215.075 261.549 213.849 258.279 211.287 255.341C208.794 252.325 205.553 249.322 202.142 246.412C194.288 239.608 183.175 236.421 173.141 237.94C171.462 238.092 168.775 240.195 167.145 243.463C165.465 246.668 164.745 252.058 165.314 256.403C166.332 264.137 177.108 274.086 186.539 282.447C195.603 290.576 208.243 294.415 220.601 293.557C220.614 293.554 220.639 293.571 220.864 293.457C221.08 293.346 221.455 293.083 221.883 292.658C222.75 291.81 223.749 290.383 224.612 288.751C224.874 288.267 224.939 287.991 224.917 288.083C224.888 288.16 224.904 288.602 224.958 288.724C225.108 289.001 224.588 287.997 223.547 287.019C211.466 275.494 191.174 271.006 172.111 268.325C144.39 264.246 112.156 268.858 96.2717 288.013C95.1462 289.545 94.6593 292.681 95.497 295.964C100.27 310.735 122.017 323.033 140.03 332.642C168.805 347.47 204.566 343.233 238.143 337.394C262.332 333.102 286.422 324.308 304.191 308.771C304.995 308.051 305.774 307.316 306.53 306.563C315.003 298.169 321.432 286.063 320.809 274.076C319.884 258.287 309.411 248.149 291.943 233.079C286.81 226.915 287.284 216.312 290.7 210.481C293.89 204.247 298.164 199.787 302.525 195.639C311.242 187.479 321.294 180.955 330.151 174.514C332.221 172.961 335.023 171.373 338.536 170.939C342.047 170.476 345.543 171.486 348.013 172.812C353.007 175.562 355.807 178.95 358.512 182.231C375.182 203.128 387.197 228.175 394.471 254.799C401.778 283.123 404.034 313.533 391.794 343.551C390.334 346.777 386.463 348.969 383.672 349.168C380.79 349.482 378.442 348.87 376.267 347.773C370.549 344.268 369.17 340.739 367.436 336.605C364.637 326.168 368.89 320.255 371.406 314.498C374.33 308.835 377.628 303.777 381.037 298.803C383.226 295.623 385.593 292.592 388.093 289.704C389.294 288.318 390.524 286.966 391.781 285.646C410.913 265.81 434.756 252.737 458.748 242.353C461.948 241.113 464.839 239.445 470.453 239.225C473.28 239.115 477.051 240.529 479.091 242.391C481.213 244.205 482.363 245.923 483.408 247.483C505.191 278.524 501.109 319.173 492.479 350.208C484.396 383.161 466.632 412.588 441.263 432.385C426.515 440.595 416.639 433.126 408.51 432.439C407.051 432.132 405.769 432.065 403.144 430.859C402.46 430.499 401.61 430.063 400.522 428.931C399.449 427.905 398.238 425.422 398.399 423.324C398.856 419.19 400.305 418.459 401.015 417.462C413.72 405.481 425.452 401.702 434.552 392.838C444.599 383.875 453.39 374.263 461.002 364.481C471.554 350.83 480.803 336.024 486.692 321.074C492.478 305.926 488.045 288.281 481.999 272.076C475.734 255.073 463.64 241.059 449.994 229.269C427.722 210.7 393.056 217.598 367.118 227.514C341.572 241.246 328.37 275.645 317.649 302.712C316.293 306.403 315.792 310.213 316.136 314.036C316.351 316.444 317.11 317.845 318.033 318.539C320.769 320.887 327.362 320.735 333.451 319.049C351.475 298.13 368.104 259.252 382.78 231.901C397.744 203.364 400.697 173.591 400.83 146.034C401.151 129.309 397.138 113.876 389.961 101.236C386.344 94.7071 380.684 90.0597 374.129 86.7442C359.554 80.602 340.283 91.1216 326.559 98.2049C323.51 99.8517 320.232 101.039 316.955 101.706C295.868 105.228 281.14 92.8936 270.391 91.6283C267.266 91.2302 264.299 92.2284 261.11 94.1984C259.518 95.173 257.934 96.3498 256.119 97.6351C254.171 98.8316 252.632 100.644 247.913 101.348C245.366 101.641 242.161 100.658 240.253 99.0665C238.29 97.51 237.202 95.806 236.362 94.319C234.729 91.3045 233.925 88.617 233.172 86.0683C231.737 80.9924 230.794 76.4116 229.747 72.1331C227.706 63.6006 225.432 56.2652 222.164 50.4626C211.143 31.4511 198.497 18.1134 181.084 12.7607C180.037 12.4797 178.977 12.2469 177.927 12.0715C177.858 12.0608 177.788 12.0502 177.718 12.0397C177.28 11.9737 176.869 11.9211 176.495 11.8797C175.627 11.7829 174.936 11.7194 174.515 11.6824C173.221 11.5681 172.175 11.5092 171.786 11.4882C170.864 11.4382 170.111 11.4151 169.844 11.4075C168.722 11.3737 167.48 11.372 166.653 11.3865C160.596 11.3235 147.825 12.8704 132.231 21.3969C132.754 21.2303 133.164 20.9362 133.374 20.7335C133.582 20.5332 133.641 20.4221 133.651 20.4082C133.659 20.3799 133.514 20.6782 133.407 21.0564C133.17 21.8496 132.984 22.9778 132.861 24.1396C132.615 26.475 132.564 29.031 132.575 31.5112C132.683 40.9792 133.412 49.4813 133.926 57.3282C134 58.5968 134.287 59.7545 134.527 60.2047C134.611 60.4225 134.764 60.4167 134.237 60.0472C133.951 59.8888 133.476 59.5563 132.295 59.5912C131.715 59.6232 130.908 59.8021 130.107 60.3774C129.302 60.9343 128.657 61.9286 128.451 62.7772C128.264 63.5392 128.332 63.8804 128.35 64.0824C128.379 64.28 128.404 64.3339 128.407 64.3454C128.415 64.3582 128.351 64.1956 128.244 64.0113C128.025 63.6279 127.648 63.1249 127.204 62.6455C126.308 61.6729 125.143 60.7445 123.857 59.9468C122.999 59.4145 122.108 58.9233 121.184 58.4708C119.961 57.8721 118.689 57.3456 117.378 56.8879C108.921 53.9802 98.4867 53.5092 85.8342 55.7138C81.9582 56.3694 78.1051 58.7123 74.4893 62.773C72.0546 65.4899 70.0593 68.4315 68.3415 71.0048C65.5503 75.5254 65.0437 80.0719 64.9958 78.8492C65.0706 78.0711 65.5224 74.2479 67.6909 70.5851C70.1702 66.6454 73.3608 61.8443 77.6024 58.5194C80.1893 56.4898 82.9107 55.2578 85.6639 54.7755C102.255 51.8644 115.419 53.6314 124.254 59.0659C124.289 59.0873 124.324 59.1088 124.359 59.1303C125.436 59.7984 126.437 60.5558 127.291 61.3702C127.946 61.9929 128.517 62.6601 128.905 63.2596C129.096 63.5522 129.242 63.8396 129.296 63.9896C129.324 64.0598 129.325 64.0976 129.307 64.0084C129.301 63.9123 129.215 63.7005 129.376 63.0231C129.537 62.3475 130.068 61.5491 130.711 61.1214C131.353 60.6778 131.976 60.5589 132.408 60.5434C133.284 60.5372 133.58 60.779 133.741 60.8651C134.021 61.0747 133.801 60.9335 133.663 60.6141C133.332 59.9567 133.055 58.7132 132.974 57.3965C132.413 48.4729 131.505 39.1134 131.658 28.2599C131.715 26.1574 131.846 24.1154 132.138 22.3737C132.283 21.5074 132.486 20.7044 132.684 20.2253C132.773 19.9955 132.874 19.8508 132.831 19.9135C132.799 19.9604 132.508 20.301 131.936 20.4859C149.676 10.8843 162.948 9.35675 176.607 10.9275C177.592 11.0442 178.578 11.2099 179.556 11.4188C197.741 16.0049 211.492 30.1146 222.989 49.9969C226.385 56.0288 228.674 63.5485 230.723 72.1279C231.774 76.4346 232.716 80.9966 234.142 85.9948C234.892 88.5086 235.686 91.1123 237.268 93.9856C238.075 95.393 239.117 96.9762 240.923 98.3778C242.684 99.8085 245.531 100.654 247.833 100.396C252.109 99.7678 253.676 98.0341 255.587 96.8404C257.385 95.5659 258.994 94.3704 260.631 93.3695C263.9 91.3473 267.121 90.2426 270.503 90.676C283.233 92.1362 302.578 109.091 326.1 97.359C326.414 97.1904 326.732 97.0198 327.056 96.8476C340.365 90.1462 359.149 79.5545 374.559 85.8959C381.184 89.2444 387.05 94.0188 390.787 100.769C397.99 113.453 402.105 129.058 401.777 146.048C401.633 173.391 398.779 203.419 383.622 232.331C368.847 259.638 353.014 297.99 333.692 319.963C327.509 321.65 320.691 321.959 317.456 319.288C316.262 318.388 315.419 316.678 315.195 314.121C314.837 310.167 315.358 306.203 316.761 302.388C327.557 275.308 340.438 240.895 366.767 226.637C392.804 216.725 427.673 209.545 450.614 228.556C464.303 240.384 476.535 254.518 482.884 271.747C488.934 287.991 493.499 305.849 487.575 321.408C481.647 336.455 472.403 351.255 461.833 364.952C454.167 374.815 445.309 384.507 435.181 393.543C426.01 402.464 414.057 406.425 401.71 418.103C401.043 419.022 399.741 419.721 399.343 423.357C399.203 425.201 400.261 427.375 401.212 428.286C402.175 429.289 402.943 429.686 403.568 430.015C405.978 431.125 407.251 431.214 408.674 431.509C416.915 432.293 426.812 439.433 440.701 431.625C465.838 412.014 483.537 382.732 491.561 349.984C500.184 318.93 504.183 278.753 482.618 248C481.598 246.475 480.479 244.818 478.485 243.115C476.563 241.37 473.101 240.072 470.449 240.17C465.177 240.369 462.278 241.987 459.12 243.221C435.16 253.589 411.375 266.652 392.389 286.378C391.109 287.725 389.858 289.105 388.638 290.521C386.222 293.325 383.934 296.263 381.816 299.339C378.42 304.294 375.138 309.331 372.247 314.93C369.735 320.601 365.671 326.499 368.327 336.285C369.973 340.25 371.395 343.693 376.702 346.933C378.721 347.953 380.911 348.519 383.558 348.229C386.125 348.041 389.619 346.057 390.948 343.128C403.018 313.55 400.837 283.173 393.559 255.049C386.314 228.529 374.347 203.596 357.774 182.821C355.112 179.586 352.342 176.27 347.575 173.649C345.216 172.385 341.937 171.445 338.651 171.878C335.362 172.283 332.709 173.776 330.719 175.269C321.799 181.755 311.811 188.241 303.169 196.331C298.85 200.436 294.639 204.851 291.544 210.906C288.241 216.598 287.806 226.608 292.707 232.522C309.781 247.184 320.873 257.864 321.752 274.019C322.383 286.359 315.844 298.614 307.289 307.139C306.494 307.939 305.676 308.717 304.829 309.479C286.835 325.281 262.605 334.135 238.341 338.504C204.631 344.433 168.686 348.823 139.409 333.843C121.258 324.104 99.4299 312.278 94.0591 296.316C93.1505 292.759 93.5822 289.195 95.0319 287.156C111.708 267.042 144.356 262.676 172.33 266.676C191.554 269.381 212.028 273.721 224.777 285.769C225.911 286.849 226.625 287.991 226.647 288.222C226.673 288.348 226.673 288.244 226.652 288.412C226.627 288.569 226.486 289 226.176 289.58C224.421 293.14 221.612 295.552 220.729 295.342C207.929 296.252 194.783 292.288 185.322 283.829C175.862 275.352 164.861 265.72 163.447 256.646C162.843 251.92 163.541 246.326 165.456 242.593C167.265 238.993 170.288 236.373 172.846 236.05C183.482 234.435 195.114 237.783 203.399 244.935C210.069 250.424 217.501 258.541 216.722 262.28C216.571 263.365 215.969 264.088 215.131 264.382C200.263 269.037 182.193 263.38 169.908 251.81C161.78 244.457 155.069 234.861 154.251 225.252C154.138 223.94 154.133 222.694 154.243 222.056C154.292 221.739 154.358 221.625 154.317 221.708C154.286 221.787 154.104 221.992 154.056 222.016C163.734 214.26 174.731 210.805 186.87 210.676C219.068 210.109 251.477 220.741 275.321 242.292C290.919 256.262 304.933 272.327 316.625 289.719C331.785 313.105 348.629 337.667 352.67 363.296C353.339 369.078 353.892 374.844 354.039 380.439C354.105 383.222 354.067 385.978 353.783 388.453C353.642 389.678 353.429 390.833 353.16 391.7C352.928 392.567 352.47 393.053 352.83 392.664C347.722 397.376 344.267 399.979 340.47 399.731C336.541 399.573 332.65 399.354 329.076 398.843C327.306 398.588 325.583 398.239 324.314 397.801C323.693 397.594 323.192 397.334 323.102 397.262C323.058 397.233 323.138 397.266 323.326 397.497C323.509 397.717 323.782 398.196 323.888 398.725C324.193 400.42 323.72 401.196 323.52 401.61C323.276 402.03 323.092 402.203 322.857 402.391C322.621 402.567 322.318 402.749 321.792 402.872C321.281 402.997 320.493 402.99 319.824 402.742C328.868 406.254 337.544 413.803 339.396 422.624C339.911 424.932 339.789 426.365 339.06 427.917C338.04 430.127 335.829 432.721 334.585 433.37C312.366 439.667 280.899 427.39 256.04 414.614C252.211 412.629 248.417 410.602 244.684 408.517C229.835 400.074 213.686 390.491 207.48 378.495C207.079 377.699 206.968 376.856 207.003 377.194C206.985 377.357 206.996 378.11 206.152 379.142C205.306 380.202 203.773 380.637 203.112 380.577C202.625 380.551 202.769 380.517 202.917 380.594C203.084 380.663 203.331 380.802 203.548 380.965C203.998 381.292 204.299 381.716 204.359 381.876C207.113 387.985 207.886 392.682 205.821 397.077C201.214 407.311 194.92 417.622 187.519 419.333C175.472 422.406 162.837 422.741 154.223 416.974C142.269 409.165 130.76 400.068 128.226 389.088C127.732 386.982 127.31 384.882 126.986 382.805C125.543 374.067 126.173 365.036 130.571 361.082C138.273 353.464 146.722 346.866 153.232 348.649C186.403 356.582 224.362 371.732 230.894 400.394C230.917 400.514 230.923 400.592 230.919 400.543C230.929 400.472 230.859 400.35 231.037 399.536C231.153 399.124 231.304 398.45 232.096 397.449C232.833 396.44 234.634 395.456 235.9 395.388C237.182 395.268 237.855 395.518 238.273 395.653C238.696 395.808 238.889 395.926 239.031 396.01C239.292 396.174 239.308 396.21 239.301 396.199C239.287 396.187 239.223 396.125 239.148 396.04C238.995 395.868 238.796 395.61 238.609 395.327C230.484 378.971 230.354 354.778 230.068 334.21C230.087 303.276 229.896 273.258 234.701 245.323C242.552 208.289 244.877 162.705 270.193 144.576C270.723 144.318 270.919 144.342 270.652 144.351C270.535 144.352 270.365 144.319 270.298 144.293C270.227 144.267 270.255 144.265 270.363 144.332C270.852 144.599 272.068 145.847 273.092 147.207C279.476 155.53 285.484 164.023 290.19 172.901C292.556 177.46 295.523 183.536 296.785 190.778C297.665 196.122 297.791 200.686 294.507 204.045C285.735 213.254 274.199 224.15 258.491 224.607C250.458 224.84 241.986 224.815 233.29 224.005C228.971 223.589 224.561 222.974 220.412 221.894C216.415 220.99 211.937 218.59 211.787 217.605C211.443 216.86 211.445 216.522 211.464 216.393C211.473 216.262 211.614 215.815 212.203 215.097C216.955 209.237 222.414 203.792 228.678 202.007C232.897 200.788 235.276 201.028 238.497 203.236C248.592 210.685 258.427 221.111 267.779 232.086C282.041 248.988 295.516 268.522 307.438 290.398C313.855 302.298 319.843 315.066 322.161 328.473C323.485 336.357 323.214 344.418 320.051 351.386C317.904 356.282 314.899 358.18 308.947 359.368C287.734 363.773 265.376 367.517 244.419 360.7C226.344 354.735 206.82 348.596 196.144 333.618C188.218 322.359 180.24 308.392 184.92 297.346C189.858 285.342 197.453 274.882 209.071 269.738C216.433 266.354 223.983 263.191 231.643 260.814C235.467 259.642 239.353 258.657 243.017 258.266C246.626 257.718 250.164 258.777 249.862 259.173C257.339 272.38 264.045 286.591 267.28 301.411C269.491 311.748 269.447 322.238 264.742 329.405C257.003 341.582 246.503 351.094 234.2 352.306C233.643 352.37 233.082 352.434 232.519 352.498C208.971 355.315 185.95 356.407 165.922 346.855C147.006 337.79 128.062 326.276 116.67 306.719C107.126 288.963 91.0945 268.581 91.495 248.043C95.0932 228.138 103.814 206.782 121.843 191.063C135.634 179.458 153.912 163.799 172.208 170.509C185.512 175.991 200.814 181.942 210.526 192.454C212.032 194.249 213.139 196.151 213.582 197.987C214.069 199.935 214.238 202.184 213.942 203.517C213.876 203.832 213.781 204.057 213.756 204.098C213.724 204.15 213.824 203.962 214.1 203.8C214.371 203.632 214.665 203.614 214.65 203.619C214.65 203.623 214.43 203.597 214.126 203.488C205.903 199.918 196.602 191.682 192.431 182.703C182.305 156.889 160.576 126.279 169.144 100.729C186.95 73.4034 223.451 57.011 259.132 59.2589C273.296 59.9698 288.168 61.4578 297.368 70.5744C303.427 76.6061 310.595 83.4663 312.25 89.462C313.029 92.7543 312.973 95.4729 311.825 97.7702C308.88 103.859 304.294 110.356 300.126 111.315C292.973 113.235 285.065 113.761 283.873 110.354C282.404 107.618 282.309 101.874 283.281 97.535C283.999 94.1735 285.405 91.9836 286.939 91.5753C289.109 90.808 292.473 91.1477 294.498 92.3967C308.583 101.437 319.611 116.597 328.236 131.96C339.939 153.794 353.976 175.859 355.887 198.395C356.236 205.867 356.432 213.306 356.1 220.525C355.924 224.13 355.615 227.697 354.973 230.971C354.651 232.593 354.231 234.154 353.705 235.388C353.215 236.64 352.447 237.37 352.544 237.238C345.674 240.516 337.095 241.244 329.699 239.2C327.108 238.46 325.888 237.507 325.181 235.749C324.54 234.156 324.478 232.068 325.01 230.151C325.564 228.124 326.593 226.311 328.094 224.577C333.252 218.495 340.511 214.232 344.924 217.397C374.463 240.565 410.724 278.219 401.334 307.132C398.412 311.973 394.448 316.626 390.847 317.97C382.643 321.055 373.581 323.846 368.157 321.812C362.067 319.599 357.416 316.553 356.466 312.513C356.301 311.912 356.169 311.256 356.073 310.584C355.638 307.479 355.924 304.069 356.832 301.232C357.888 297.922 360.021 294.693 362.458 292.478C363.426 291.572 364.277 291.124 364.304 291.163C364.333 291.165 364.227 291.156 364.328 291.174C364.419 291.195 364.685 291.295 365.033 291.514C392.693 310.097 403.728 340.062 412.685 362.806C420.247 383.82 427.148 402.142 428.843 417.383C429.707 427.623 426.705 436.906 421.085 442.153C420.227 442.978 419.315 443.725 418.354 444.4C411.118 449.212 402.025 451.22 394.147 452.009C383.357 453.01 373.432 451.782 363.952 449.304C352.364 446.05 339.29 442.813 330.34 435.435C328.83 434.033 328.018 432.643 327.876 431.61C327.449 429.691 328.885 426.734 330.119 426.173C331.53 425.297 334.291 425.447 336.316 426.844C353.372 438.918 366.184 458.38 365.878 477.981C365.884 480.939 365.163 483.294 364.022 484.423C363.253 485.717 359.584 486.34 355.554 486.679C321.705 489.353 283.699 488.116 262.965 463.118C257.746 456.689 252.788 449.25 252.794 443.069C252.8 441.887 252.932 441.287 253.165 440.785C253.395 440.275 253.935 439.569 254.794 438.782C257.319 436.435 261.503 434.14 263.781 433.963C264.608 433.906 265.087 434.019 265.79 434.432C266.481 434.848 267.325 435.688 268.114 436.823C270.222 439.811 271.622 442.773 271.967 445.748C274.457 467.935 280.746 495.214 265.111 508.649C257.582 514.673 248.813 518.094 239.835 516.217C215.358 511.004 185.923 496.68 177.972 471.117C176.708 465.69 176.641 458.814 177.675 453C177.98 451.399 178.418 449.871 178.971 448.689C179.242 448.104 179.55 447.611 179.784 447.332C180.01 447.041 180.167 447.048 179.793 447.193C179.613 447.26 179.305 447.273 179.167 447.238C179.021 447.208 179.045 447.186 179.175 447.272C179.445 447.433 180.007 447.987 180.49 448.726C181.126 449.683 181.74 450.661 182.326 451.654C189.032 462.493 188.861 473.098 188.449 473.793C188.076 474.693 188.916 465.983 183.118 455.051C182.093 453.061 180.941 451.118 179.699 449.251C179.266 448.583 178.767 448.12 178.657 448.066C178.607 448.032 178.693 448.111 178.989 448.17C179.274 448.235 179.767 448.212 180.097 448.091C180.71 447.862 180.666 447.732 180.512 447.94C180.349 448.132 180.076 448.56 179.83 449.091C179.326 450.168 178.901 451.631 178.607 453.179C177.597 458.811 177.669 465.671 178.893 470.891C186.515 495.684 215.728 510.167 240.017 515.286C248.675 517.086 257.082 513.844 264.528 507.901C279.482 495.28 273.615 468.135 271.026 445.86C270.706 443.095 269.399 440.288 267.338 437.366C266.597 436.298 265.828 435.556 265.294 435.239C264.743 434.926 264.512 434.871 263.863 434.906C262 435.01 257.801 437.248 255.436 439.478C254.627 440.218 254.176 440.837 254.022 441.187C253.866 441.528 253.747 441.955 253.741 443.072C253.692 448.743 258.505 456.158 263.7 462.521C283.94 487.024 321.668 488.439 355.474 485.737C357.435 485.57 359.374 485.334 360.872 484.976C361.616 484.8 362.209 484.589 362.514 484.43C362.832 484.253 362.865 484.252 363.337 483.771C364.23 482.911 364.941 480.819 364.932 477.977C365.257 458.783 352.593 439.519 335.795 427.634C334.013 426.391 331.599 426.334 330.591 426.993C329.779 427.269 328.42 429.941 328.81 431.459C328.895 432.293 329.812 433.814 331.636 435.321C340.403 442.011 353.006 445.287 364.192 448.388C374.984 451.206 386.123 452.321 397.9 450.594C404.646 449.563 412.126 447.47 417.808 443.625C419.373 442.526 420.797 441.234 422.059 439.716C426.381 434.628 428.65 426.413 427.9 417.467C426.26 402.576 419.398 384.227 411.797 363.133C402.921 340.571 391.885 310.682 364.534 292.317C364.246 292.135 364.065 292.081 364.102 292.093C364.127 292.108 364.408 292.121 364.521 292.084C364.786 291.966 364.018 292.303 363.091 293.18C360.794 295.262 358.727 298.387 357.733 301.52C356.789 304.448 356.546 308.153 357.147 311.269C357.214 311.614 357.292 311.947 357.378 312.261C358.18 315.806 362.438 318.732 368.489 320.927C373.315 322.814 382.37 320.182 390.513 317.085C393.703 315.933 397.674 311.401 400.525 306.642C409.718 279.379 373.719 240.96 344.44 218.209C340.769 215.411 333.902 219.176 328.81 225.195C327.38 226.848 326.438 228.52 325.922 230.401C325.436 232.141 325.506 234.034 326.06 235.4C326.67 236.853 327.503 237.566 329.947 238.288C337.109 240.276 345.51 239.552 352.125 236.391C351.903 236.506 351.966 236.536 352.152 236.282C352.336 236.038 352.595 235.584 352.835 235.018C353.321 233.88 353.732 232.369 354.045 230.788C354.673 227.592 354.981 224.058 355.155 220.481C355.485 213.314 355.291 205.896 354.943 198.44C353.098 176.362 339.117 154.222 327.41 132.42C318.849 117.146 307.81 102.053 294.017 93.2106C292.274 92.1095 289.094 91.7948 287.246 92.4696C286.626 92.6983 286.21 92.9932 285.62 93.9012C285.056 94.7907 284.547 96.1791 284.204 97.7398C283.248 101.884 283.425 107.616 284.701 109.898C285.231 112.483 292.733 112.388 299.909 110.395C303.414 109.692 308.115 103.367 310.977 97.3525C311.995 95.3038 312.082 92.8753 311.329 89.6749C309.886 84.2418 302.747 77.222 296.708 71.2514C287.86 62.4455 273.225 60.8994 259.087 60.2036C223.688 57.9467 187.463 74.331 169.967 101.194C161.656 125.491 183.102 156.615 193.294 182.315C197.267 190.969 206.617 199.222 214.439 202.595C214.677 202.682 214.81 202.681 214.674 202.674C214.556 202.663 214.062 202.713 213.616 202.987C213.166 203.253 212.954 203.586 212.927 203.641C212.893 203.71 212.966 203.568 213.017 203.318C213.269 202.233 213.131 200.056 212.663 198.212C212.299 196.693 211.386 195.029 210.107 193.435C200.861 183.02 185.234 176.89 171.861 171.389C154.403 164.869 136.173 180.175 122.466 191.776C104.619 207.34 95.9968 228.472 92.4256 248.214C91.9825 267.809 107.924 288.574 117.488 306.241C128.689 325.48 147.381 336.925 166.331 346C184.668 354.766 205.983 354.516 227.981 352.05C230.005 351.832 232.04 351.599 234.093 351.364C245.953 350.202 256.241 341.012 263.946 328.889C267.876 322.921 268.48 314.23 267.038 305.315C264.359 289.391 257.083 273.891 249.038 259.642C249.04 259.666 249.134 259.72 248.958 259.611C248.792 259.514 248.367 259.347 247.773 259.241C246.585 259.016 244.866 259.023 243.114 259.209C239.555 259.589 235.709 260.559 231.921 261.721C224.328 264.077 216.803 267.227 209.467 270.6C198.107 275.64 190.706 285.799 185.793 297.719C181.323 308.042 188.995 321.88 196.919 333.072C207.308 347.69 226.637 353.85 244.715 359.799C265.386 366.527 287.564 362.844 308.762 358.437C314.632 357.212 317.07 355.675 319.186 350.997C321.83 345.162 322.416 338.482 321.66 331.761C319.953 317.484 313.468 303.602 306.604 290.85C295.351 270.199 282.752 251.722 269.431 235.545C259.312 223.372 248.677 211.955 237.948 204.011C234.882 201.965 233.064 201.767 228.938 202.92C222.99 204.604 217.622 209.91 212.938 215.697C212.685 216.008 212.527 216.262 212.458 216.402C212.387 216.548 212.4 216.559 212.404 216.528C212.411 216.499 212.399 216.467 212.419 216.574C212.44 216.676 212.506 216.902 212.649 217.207C212.547 217.195 213.588 218.303 215.194 219.042C216.799 219.835 218.775 220.491 220.829 221.021C224.936 222.074 229.344 222.679 233.634 223.083C242.275 223.87 250.623 223.885 258.464 223.657C274.292 223.142 285.504 212.045 293.814 203.392C296.915 200.219 296.64 195.915 295.84 190.932C295.297 187.694 294.372 184.834 293.485 182.458C288.877 170.44 280.829 158.924 272.327 147.791C271.337 146.468 270.138 145.275 269.848 145.145C269.793 145.111 269.835 145.15 269.997 145.206C270.154 145.263 270.434 145.314 270.654 145.313C271.132 145.301 271.065 145.217 270.597 145.448C246.203 162.734 243.36 208.584 235.635 245.493C230.84 273.367 231.035 303.388 231.015 334.21C231.262 354.739 231.569 379.117 239.397 394.804C239.564 395.055 239.739 395.282 239.857 395.413C239.914 395.478 239.956 395.517 239.94 395.501C239.915 395.483 239.861 395.413 239.524 395.202C239.34 395.093 239.099 394.947 238.59 394.761C238.088 394.599 237.29 394.306 235.791 394.447C234.311 394.53 232.22 395.676 231.361 396.853C230.438 398.021 230.256 398.818 230.117 399.312C229.903 400.29 229.983 400.475 229.974 400.601C229.981 400.704 229.981 400.655 229.963 400.562C223.694 372.639 185.866 357.372 153.026 349.573C147.222 347.876 138.9 354.13 131.227 361.765C126.849 365.59 126.436 375.52 128.309 384.916C128.555 386.228 128.837 387.548 129.147 388.872C131.534 399.373 142.841 408.429 154.743 416.183C163.001 421.732 175.376 421.461 187.289 418.415C194.068 416.936 200.415 406.862 204.96 396.684C206.865 392.591 206.213 388.324 203.493 382.255C203.514 382.277 203.319 381.964 202.982 381.723C202.822 381.602 202.636 381.5 202.548 381.465C202.481 381.42 202.425 381.491 203.097 381.523C203.962 381.595 205.833 381.055 206.873 379.754C207.912 378.487 207.925 377.513 207.948 377.221C207.95 376.892 207.921 376.977 207.983 377.178C208.04 377.382 208.162 377.719 208.339 378.098C213.942 389.126 229.202 398.561 243.272 406.642ZM119.515 310.878C108.968 309.471 98.1626 315.81 97.4104 315.663C96.3881 316.181 105.263 309.947 116.849 309.695C119.676 309.743 122.259 310.349 124.481 311.545C128.104 313.486 131.132 316.697 132.94 320.25C134.746 323.769 135.245 327.465 134.393 330.948C133.504 334.624 131.228 338.474 128.671 340.865C126.433 342.895 124.82 343.441 122.012 343.232C100.529 342.933 83.4965 336.038 71.3324 324.676C60.4466 314.761 50.4193 305.906 41.4192 297.605C35.8625 292.409 30.2711 287.301 26.7171 282.47C25.2401 280.478 24.8839 278.13 25.2637 277.627C35.0888 258.471 50.6627 243.316 66.2719 242.46C76.2774 242.102 86.5306 243.759 92.1217 250.105C97.7033 256.361 103.135 262.452 103.594 269.631C103.864 272.959 102.833 277.506 101.17 279.592C101.12 279.652 101.073 279.706 101.025 279.759C100.527 280.275 100.209 280.451 99.5192 280.592C98.8351 280.723 97.7613 280.673 96.535 280.462C72.8912 271.657 52.7495 248.357 40.1006 224.861C33.0125 210.935 22.2109 194.199 22.4502 183.167C23.388 180.226 25.7573 177.734 28.8698 176.223C38.4755 171.542 49.2088 168.153 58.8162 169.598C66.0515 170.693 72.663 172.809 75.9472 177.711C77.4345 179.825 78.08 182.702 77.772 185.467C77.5067 187.936 76.4874 190.373 74.9345 192.335C74.1402 193.362 73.3432 194.088 72.9564 194.259C72.7614 194.352 72.7211 194.348 72.6424 194.352C72.5659 194.351 72.3891 194.331 72.0863 194.196C63.2685 190.357 55.8078 184.039 53.3836 175.563C48.5078 159.284 44.1636 143.027 41.5012 126.832C39.2314 111.602 36.7642 91.2412 46.3711 84.5308C51.2702 81.8628 57.5157 80.5073 63.5572 80.0245C69.8318 79.5345 76.1838 79.9868 82.3939 81.131C107.174 86.2963 128.951 101.927 145.697 119.526C154.855 129.417 164.46 140.026 163.997 151.374C163.615 160.546 163.759 171.235 160.099 176.225C158.04 178.796 155.262 180.617 153.354 180.532C144.463 180.58 134.558 177.779 133.061 171.372C124.799 138.317 121.353 100.279 140.885 79.5811C146.502 74.186 155.074 72.3052 162.524 74.074C177.298 76.9691 189.418 84.3815 196.463 95.1371C211.92 117.535 227.011 135.394 234.43 152.634C239.859 164.505 239.916 174.738 239.655 174.565C239.396 174.463 238.812 164.28 233.375 152.586C225.995 135.666 211.082 117.98 195.68 95.6664C188.761 85.1275 176.98 77.8813 162.319 74.9963C155.13 73.2845 146.886 75.1249 141.545 80.2572C122.506 100.278 125.699 138.238 133.971 171.115C135.139 176.738 144.579 179.669 153.355 179.587C154.778 179.698 157.41 178.094 159.367 175.627C162.658 171.29 162.716 160.476 163.053 151.344C163.549 140.58 154.173 130.034 145.009 120.173C128.386 102.689 106.677 87.1473 82.2227 82.06C76.7125 81.0449 71.1163 80.5843 65.5563 80.8455C58.9627 81.1612 52.0554 82.5196 46.8333 85.3546C38.1264 91.116 40.058 111.555 42.4321 126.67C45.0818 142.795 49.4168 159.027 54.2886 175.291C56.6123 183.419 63.7805 189.544 72.4698 193.332C72.6825 193.427 72.7287 193.407 72.6483 193.407C72.5707 193.4 72.4471 193.451 72.5315 193.415C72.6942 193.364 73.4335 192.739 74.1932 191.749C75.637 189.926 76.5878 187.649 76.8325 185.364C77.1191 182.805 76.5119 180.151 75.1716 178.251C72.141 173.703 65.8637 171.617 58.6669 170.532C49.416 169.126 38.7885 172.43 29.2874 177.071C26.3525 178.498 24.1987 180.798 23.3502 183.457C23.115 193.258 33.8261 210.638 40.9336 224.413C53.4247 247.739 73.7747 270.983 96.6918 279.529C97.7813 279.717 98.7046 279.761 99.2334 279.68C99.7767 279.586 99.8749 279.523 100.182 279.266C100.26 279.194 100.346 279.104 100.44 278.99C101.848 277.282 102.93 272.781 102.651 269.699C102.237 262.949 97.0237 257.002 91.4118 250.73C86.2134 244.781 76.2638 243.034 66.3052 243.406C51.5981 244.101 35.9219 258.853 26.1252 278.022C25.9541 277.972 26.095 280.076 27.4954 281.929C29.9395 285.329 33.8826 289.163 37.807 292.923C47.7535 302.33 59.2897 312.412 71.9713 323.976C84.006 335.177 100.594 341.968 122.093 342.288C124.733 342.449 125.882 342.071 128.029 340.167C130.415 337.949 132.645 334.184 133.471 330.726C134.265 327.461 133.813 324.037 132.095 320.679C130.377 317.3 127.467 314.217 124.032 312.38C122.664 311.647 121.163 311.147 119.515 310.878Z" fill="#FF7B00" fill-opacity="0.8"/>
</svg>
