<svg width="437" height="361" viewBox="0 0 437 361" fill="none" xmlns="http://www.w3.org/2000/svg">
<path d="M241.859 174.33C246.097 174.845 250.282 174.495 254.202 173.714C261.093 171.969 262.917 166.723 264.115 163.283C267.045 153.778 263.461 143.946 257.605 137.197C247.845 125.952 235.01 117.5 221.196 111.825C211.425 107.981 202.501 103.643 190.734 101.09C166.003 101.874 154 116.256 139.546 126.374C130.978 133.237 124.492 141.956 120.178 151.203C119.788 152.041 119.414 152.886 119.056 153.742C117.572 157.303 116.356 161.005 115.548 164.951C113.441 174.991 116.923 185.229 122.414 193.046C126.479 199.386 134.948 202.979 142.003 202.768C149.307 202.627 155.367 201.11 162.48 197.21C164.98 195.754 166.102 192.555 166.11 190.961C166.205 189.223 165.921 188.111 165.65 187.114C165.065 185.162 164.337 183.761 163.385 182.273C162.424 180.801 161.173 179.597 159.903 178.704C154.298 175.089 149.489 175.157 144.939 174.977C143.798 174.967 142.669 174.991 141.547 175.04C125.806 176.011 115.385 187.026 105.214 196.412C87.4398 219.214 94.5564 244.283 92.2482 271.471C92.195 273.878 92.1455 276.471 92.9544 279.73C93.6725 283.027 96.2481 286.632 98.4085 288.436C102.385 292.061 107.391 294.705 112.563 296.146C141.009 302.006 163.469 289.917 184.673 281.511C195.091 276.087 205.539 272.893 212.005 256.553C212.445 254.149 212.356 250.67 210.59 247.643C208.852 244.617 206.208 242.937 204.108 241.989C199.796 240.143 196.308 239.959 192.962 239.795C186.341 239.612 180.281 240.446 174.549 241.392C168.157 242.609 165.462 247.103 163.814 249.402C152.923 274.391 163.864 291.756 169.416 308.899C179.218 329.166 193.735 340.28 205.866 352.532C208.626 355.18 212.475 358.082 217.365 359.138C222.231 360.174 226.243 359.389 229.481 358.82C270.971 346.744 298.395 328.601 321.71 317.25C329.127 312.923 335.261 311.457 342.402 303.308C343.968 301.223 345.266 298.067 345.394 295.211C345.566 292.347 344.993 290.039 344.382 288.146C343.29 284.838 342.118 281.88 340.948 279.275C333.96 263.091 320.467 249.236 304.575 241.099C292.069 235.462 280.155 226.087 260.622 230.653C253.596 233.873 251.97 237.644 249.36 241.67C241.593 259.855 253.795 271.811 261.111 281.651C269.664 291.594 279.058 300.226 290.208 308.332C297.936 312.856 303.498 310.136 307.924 308.834C312.432 307.167 316.347 305.012 320.132 302.682C327.66 297.958 334.542 292.619 341.139 286.173C352.161 274.809 360.068 262.056 369.423 250.455C382.113 233.666 381.686 213.111 377.409 194.067C372.819 180.561 362.185 176.616 354.055 171.697C348.149 168.467 341.921 165.499 337.658 162.139C334.45 159.541 330.432 157.841 326.283 157.37C320.961 156.67 315.37 158.201 311.222 160.368C299.647 166.921 293.474 173.131 292.85 172.979C292.752 173.009 298.341 166.898 309.803 160.044C314.217 157.576 320.41 155.636 326.392 156.431C330.718 156.922 334.91 158.697 338.251 161.402C341.955 164.341 347.531 167.108 352.885 169.992C352.938 170.02 352.991 170.048 353.044 170.077C361.614 175.289 373.094 178.947 378.324 193.827C382.65 213.159 383.117 233.867 370.158 251.05C360.822 262.625 352.927 275.377 341.805 286.844C335.121 293.376 328.199 298.739 320.598 303.507C316.774 305.858 312.821 308.035 308.219 309.734C303.699 311.033 297.979 313.95 289.669 309.11C278.365 300.889 268.961 292.235 260.338 282.203C256.107 277.154 252.123 271.786 249.102 265.283C246.236 259.071 243.719 249.798 248.534 241.205C251.246 237.061 252.778 233.226 260.304 229.759C280.679 225.063 292.421 234.639 305.021 240.26C319.257 247.622 331.808 259.393 339.216 273.581C341.314 277.497 343.449 282.27 345.288 287.85C345.931 289.839 346.535 292.283 346.342 295.331C346.194 298.372 344.797 301.707 343.175 303.866C335.518 312.524 329.53 313.751 322.15 318.094C298.385 329.677 271.16 347.711 229.655 359.751C226.385 360.321 222.256 361.145 217.154 360.06C212.027 358.95 208.028 355.918 205.212 353.215C193.047 340.909 178.534 329.891 168.541 309.257C163.007 291.939 151.786 274.813 163.029 248.875C164.703 246.56 167.514 241.779 174.394 240.46C180.151 239.51 186.26 238.664 192.996 238.85C196.407 239.021 199.966 239.191 204.5 241.128C206.705 242.125 209.538 243.912 211.412 247.175C213.316 250.44 213.403 254.178 212.937 256.712C211.48 262.716 209.288 264.553 207.18 267.211C205.024 269.64 202.729 271.672 200.336 273.514C195.545 277.184 190.397 280.034 185.054 282.378C162.501 290.951 138.17 305.592 106.887 295.092C103.564 293.597 100.441 291.563 97.7724 289.144C95.5415 287.291 92.7845 283.44 92.0346 279.974C91.1854 276.549 91.2448 273.893 91.297 271.443C93.6819 244.32 86.2123 219.443 104.548 195.727C114.744 186.346 125.23 175.121 141.502 174.085C144.911 173.949 148.365 173.966 152.159 174.653C155.743 175.397 160.636 176.606 164.184 181.747C165.045 183.079 165.706 184.349 166.286 185.964C166.337 186.109 166.386 186.255 166.435 186.408C166.764 187.495 167.114 188.695 167.083 190.629C167.151 192.357 166.039 196.234 162.991 198.018C155.486 202.123 149.353 203.608 141.796 203.722C134.515 203.905 125.768 200.065 121.631 193.592C115.964 185.531 112.461 175.003 114.615 164.764C115.767 159.187 117.67 154.112 120.038 149.301C120.283 148.805 120.535 148.31 120.793 147.817C125.127 139.551 131.218 131.83 138.955 125.637C153.614 115.445 165.257 100.994 190.888 100.163C202.945 102.786 211.772 107.115 221.554 110.956C235.522 116.694 248.469 125.235 258.317 136.58C264.344 143.525 268.058 153.677 265.018 163.559C263.763 167.117 261.898 172.721 254.386 174.64C250.227 175.469 245.763 175.826 241.225 175.2C232.612 174.27 225.604 168.346 223.127 164.343C221.724 162.274 220.91 161.026 221.026 160.999C221.136 160.976 222.097 162.098 223.582 164.013C226.26 167.912 233.354 173.566 241.859 174.33ZM384.976 167.039C380.006 168.01 374.451 167.796 368.775 167.147C368.444 167.115 368.19 167.014 368.174 167C368.166 166.998 368.23 167.03 368.328 167.171C368.425 167.304 368.526 167.572 368.526 167.805C368.513 168.301 368.349 168.309 368.494 168.173C368.617 168.04 368.905 167.825 369.268 167.64C376.745 163.772 386.731 163.446 395.187 166.607C407.742 171.248 412.958 185.492 417.596 199.581C420.078 205.861 417.529 213.315 413.766 219.858C410.56 225.928 405.441 230.154 399.154 233.227C380.222 241.953 357.702 241.154 337.109 241.299C333.386 241.282 329.674 241.25 325.981 241.242C324.329 241.239 322.617 241.116 321.499 240.751C321.233 240.665 321.024 240.561 320.955 240.511C320.875 240.457 321.005 240.514 321.113 240.769C321.223 241.025 321.174 241.254 321.182 241.211C321.187 241.184 321.262 241.003 321.398 240.801C322.579 239.023 324.599 238.276 327.041 238.658C360.2 247.84 373.6 284.367 384.318 305.864C387.071 313.15 379.946 321.955 376.09 328.293C374.545 330.682 372.724 332.568 370.865 334.036C365.01 338.69 356.798 340.681 348.194 341.1C326.081 342.351 302.131 343.912 274.963 344.007C271.507 344.021 267.994 344.013 264.429 343.978C259.135 343.928 253.726 343.414 248.249 342.471C234.443 340.11 220.307 335.041 205.631 329.162C189.972 322.855 182.992 302.574 179.722 283.234C178.147 273.824 177.394 264.439 177.045 255.287C176.942 252.203 177.41 250.075 179.04 247.844C181.606 244.154 186.71 242.243 192.021 241.335C201.458 240.302 212.843 244.878 222.833 248.204C249.694 257.84 276.395 271.511 285.459 290.472C286.438 293.607 281.855 299.322 277.577 303.254C273.132 307.428 268.238 311.165 263.453 314.875C250.691 323.72 233.225 324.759 218.78 327.505C205.763 329.504 193.142 329.903 181.498 330.162C174.871 330.282 168.455 330.276 162.272 330.177C156.073 330.076 150.131 329.722 144.392 329.143C144.372 329.141 144.353 329.139 144.334 329.138C124.624 327.165 107.694 322.446 92.665 316.757C75.917 310.348 66.8978 294.746 60.2532 280.473C57.6894 274.84 55.4832 269.153 53.4681 263.473C49.8888 245.164 58.5797 223.613 63.1258 204.013C66.5536 190.94 73.4005 177.431 84.6992 171.658C90.9208 168.732 98.8169 168.543 106.582 170.09C114.62 171.715 123.169 175.131 130.1 180.38C141.292 188.305 142.126 204.229 137.335 219.473C131.819 233.514 106.009 236.791 87.2107 237.262C68.1295 237.504 48.2249 233.525 34.0141 224.82C22.2408 216.627 21.2661 198.368 17.0282 184.207C16.5003 182.318 15.9196 180.4 15.256 178.467C14.7278 176.934 14.2981 175.293 13.9513 173.595C11.0595 158.094 13.2113 139.576 18.0512 120.125C21.8576 111.361 35.4033 101.267 46.8581 91.5084C62.7003 81.5882 90.3925 84.329 117.455 83.444C125.605 83.3466 133.987 84.0801 142.113 86.4875C151.404 89.0765 158.37 94.1487 167.318 99.8934C180.804 109.052 190.97 125.45 197.89 140.214C207.991 164.286 202.415 193.632 193.078 213.371C190.57 216.626 187.159 218.65 183.1 219.727C176.68 221.387 169.366 221.234 162.328 220.783C146.063 219.564 130.385 216.563 115.331 214.007C113.935 213.765 112.562 213.527 111.175 213.287C96.204 210.548 80.2493 206.689 71.8189 197.868C65.269 187.233 67.3393 169.48 68.0025 155.256C68.2203 152.173 68.4995 149.164 68.8417 146.211C71.7078 120.508 80.0156 98.3366 95.2156 79.7746C97.0245 76.5642 106.58 75.9894 113.563 75.9147C121.008 75.8349 128.452 76.0974 135.776 76.2753C160.969 77.2998 184.5 82.6119 205.623 88.7754C231.19 96.5097 253.526 106.768 273.459 116.691C304.033 131.574 331.419 140.725 356.839 144.529C366.794 145.138 372.453 139.443 377.773 135.957C383.028 132.083 387.775 128.287 392.367 124.722C395.011 122.662 397.587 120.666 400.112 118.73C404.721 114.569 411.712 113.199 415.473 104.271C417.931 96.6402 413.216 90.6779 409.95 87.2811C406.378 83.6616 402.642 81.1194 399.024 78.8701C391.753 74.4514 384.907 71.3875 378.411 68.9419C374.343 67.5681 371.265 68.9011 369.132 69.7964C366.942 70.7986 365.224 71.9123 363.609 72.9917C360.419 75.1601 357.731 77.2464 355.157 79.1337C350.712 82.7135 348.958 86.2549 347.018 89.5333C343.505 95.9454 341.205 101.717 339.108 107.117C331.511 127.289 326.049 147.044 320.657 167.139C315.076 188.048 311.802 209.814 309.799 232.774C309.049 241.196 308.418 249.678 307.993 258.569C307.333 270.967 307.467 284.763 308.011 297.772C308.018 298.998 307.973 300.114 307.847 300.907C307.715 301.716 307.565 302.147 307.24 302.753C298.191 317.633 277.279 320.547 261.714 324.927C248.257 328.555 235.525 327.089 226.896 322.121C226.824 322.079 226.753 322.038 226.683 321.997C219.5 317.929 217.554 308.497 216.784 299.701C216.769 299.533 216.755 299.371 216.742 299.204C216.641 297.943 216.566 296.686 216.508 295.423C216.464 294.473 216.429 293.515 216.403 292.554C216.389 292.173 216.38 291.836 216.372 291.582C216.366 291.381 216.362 291.224 216.36 291.123C216.359 291.104 216.358 291.085 216.358 291.066C216.312 289.294 216.305 287.746 216.303 287.35C216.303 287.336 216.303 287.324 216.303 287.314C216.3 286.725 216.3 286.209 216.299 285.946C216.298 284.549 216.308 282.816 216.32 281.651C216.361 278.566 216.402 273.392 216.828 265.298C217.215 258.297 217.715 251.571 218.928 243.369C219.007 242.848 219.087 242.336 219.168 241.833C220.554 233.974 222.188 224.359 227.946 215.317C228.699 214.156 229.535 213.029 230.488 211.681C231.052 210.748 233.034 209.936 235.336 209.727C234.627 209.81 234.456 209.738 234.421 209.747C234.381 209.744 234.464 209.766 234.564 209.801C234.807 209.882 235.087 209.993 235.437 210.144C236.066 210.417 236.722 210.742 237.319 211.055C238.431 211.645 239.244 212.141 239.542 212.371C239.953 212.688 239.365 212.468 238.137 211.939C237.505 211.668 236.705 211.318 235.844 210.982C235.619 210.894 235.403 210.813 235.205 210.743C234.982 210.663 234.768 210.593 234.606 210.546C234.426 210.492 234.276 210.459 234.261 210.464C234.282 210.448 234.305 210.586 235.435 210.488C233.443 210.746 231.735 211.514 231.369 212.075C231.33 212.123 231.294 212.17 231.26 212.22C224.83 220.608 223.054 228.001 221.29 235.669C221.181 236.178 221.084 236.651 220.986 237.14C219.383 245.261 218.544 253.304 217.974 261.988C217.787 264.888 217.638 267.905 217.533 270.733C217.36 275.484 217.261 280.913 217.287 287.349C217.289 287.759 217.292 288.171 217.295 288.584C217.307 289.966 217.329 291.379 217.371 292.816C217.692 301.752 218.395 313.324 224.518 319.187C225.302 319.935 226.177 320.596 227.167 321.176C235.682 326.182 248.351 327.561 261.471 324.013C277.383 319.639 298.034 316.364 306.404 302.3C307.191 301.519 307.113 297.256 306.906 292.647C306.304 279.585 306.564 266.676 307.256 254.376C307.664 247.03 308.216 239.788 308.849 232.692C310.82 210.099 314.062 188.135 319.729 166.898C326.131 143.367 332.24 120.049 342.509 96.3487C345.531 90.2976 347.421 84.5149 354.559 78.3362C355.393 77.7218 356.237 77.094 357.099 76.454C359.436 74.7295 361.848 72.895 364.783 71.0447C367.797 69.5725 371.008 66.0324 378.747 68.0162C385.146 70.4307 391.847 73.4168 399.15 77.8094C402.783 80.0463 406.588 82.591 410.324 86.2855C413.677 89.7503 419.07 95.959 416.384 104.576C412.353 114.068 405.279 115.307 400.696 119.486C396.868 122.418 392.901 125.512 388.699 128.793C384.742 131.866 380.602 135.155 375.93 138.449C371.264 141.443 365.706 146.181 356.737 145.473C331.481 141.7 304.127 132.662 273.037 117.537C253.252 107.689 230.966 97.4317 205.354 89.6812C184.371 83.5571 160.866 78.2416 135.752 77.2203C128.437 77.0425 120.999 76.7808 113.591 76.8598C109.89 76.9131 106.173 77.0514 102.776 77.5628C99.3733 78.0043 96.3542 79.3164 96.0272 80.2596C81.1794 98.4873 73.071 119.534 70.0155 144.39C69.5588 148.005 69.2101 151.588 68.9456 155.323C68.2162 169.472 66.4381 187.54 72.5443 197.263C80.6323 205.756 96.6983 209.704 111.336 212.356C113.573 212.743 115.804 213.131 118.05 213.52C132.792 216.028 147.894 218.83 163.078 219.884C169.848 220.292 176.867 220.372 182.854 218.813C186.777 217.765 189.945 215.877 192.334 212.786C201.388 193.582 206.986 164.085 197.023 140.595C190.211 125.995 179.893 109.547 166.855 100.723C159.025 95.844 153.5 91.5237 146.102 88.8386C136.803 85.3071 126.979 84.2862 117.465 84.3983C90.345 85.2218 62.4193 82.7669 47.4676 92.2508C36.0483 101.915 22.3906 112.397 18.9854 120.367C14.9485 136.42 12.9469 151.701 13.8517 165.455C13.9653 167.031 14.1242 168.585 14.3402 170.122C14.6074 172.024 14.9593 173.873 15.4131 175.62C15.6375 176.484 15.8923 177.341 16.1732 178.157C21.991 194.227 22.0058 215.244 34.5489 224.033C48.5038 232.585 68.3211 236.566 87.1965 236.317C105.779 235.961 131.522 232.236 136.422 219.223C141.1 204.177 140.405 188.893 129.519 181.139C120.272 174.233 108.111 170.229 97.555 170.104C93.0326 170.072 88.7283 170.836 85.1166 172.533C74.2522 178.057 67.4216 191.357 64.0558 204.253C59.5042 223.709 50.9167 245.533 54.3665 263.151C56.9372 270.39 59.8224 277.692 63.395 284.84C69.6861 297.127 77.9736 310.095 92.9967 315.872C106.331 320.893 121.664 325.476 140.454 327.753C147.281 328.582 154.55 329.105 162.288 329.231C167.948 329.322 173.864 329.336 180.019 329.241C192.082 329.006 205.195 328.628 218.629 326.572C233.078 323.853 250.616 322.678 262.874 314.128C267.665 310.415 272.545 306.684 276.936 302.56C281.209 298.723 285.467 292.899 284.542 290.702C275.9 272.585 249.214 258.593 222.519 249.097C212.591 245.764 201.049 241.259 192.186 242.267C186.962 243.153 182.124 245.038 179.814 248.391C178.297 250.494 177.909 252.262 177.991 255.249C178.374 265.217 179.225 275.411 181.104 285.615C184.488 303.965 191.594 322.578 205.982 328.284C220.42 334.062 234.37 339.102 248.184 341.5C253.641 342.45 259.074 342.982 264.438 343.033C268.222 343.07 271.975 343.077 275.694 343.058C300.944 342.963 324.968 341.489 348.143 340.148C359.366 339.676 370.104 336.079 375.273 327.771C375.33 327.683 375.387 327.596 375.443 327.508C378.882 321.871 385.986 312.853 383.443 306.261C373.246 285.918 359.867 248.86 326.904 239.599C324.687 239.276 323.18 239.882 322.192 241.323C322.093 241.466 322.065 241.571 322.098 241.46C322.129 241.37 322.199 240.901 321.993 240.412C321.791 239.926 321.5 239.732 321.48 239.72C321.443 239.7 321.581 239.781 321.791 239.848C322.703 240.154 324.378 240.294 325.98 240.293C330.704 240.303 335.46 240.352 340.233 240.361C360.167 240.216 381.457 240.465 398.73 232.382C404.975 229.315 409.811 225.294 412.942 219.395C416.703 212.873 419.025 205.706 416.712 199.919C411.989 185.432 406.713 171.832 394.835 167.491C386.529 164.384 376.733 164.828 369.706 168.499C369.408 168.65 369.2 168.822 369.187 168.847C369.179 168.855 369.227 168.819 369.31 168.659C369.39 168.503 369.506 168.188 369.492 167.762C369.486 167.339 369.309 166.875 369.117 166.611C368.924 166.337 368.756 166.224 368.679 166.174C368.519 166.084 368.655 166.166 368.889 166.184C370.943 166.417 372.941 166.589 374.895 166.67C379.952 166.876 385.094 166.518 389.158 164.752C390.845 164.017 392.289 163.04 393.401 161.822C397.443 157.475 399.746 152.017 399.916 146.181C400.22 139.182 399.379 132.646 395.609 128.162C387.878 118.614 377.954 111.21 367.246 106.869C351.923 100.595 338.231 93.0057 325.657 86.8326C313.763 81.2683 299.558 74.0761 288.124 77.5941C275.757 81.5801 263.474 88.3695 257.978 99.9063C252.407 111.663 245.361 125.381 243.879 136.41C242.882 145.541 244.034 153.776 247.449 153.684C269.401 157.793 301.981 158.577 314.905 141.34C316.389 139.467 317.045 134.591 317.874 129.739C322.101 98.2717 334.429 61.7733 320.181 37.2823C310.933 23.6667 297.125 13.3449 281.62 13.109C257.572 11.5824 234.33 15.1136 214.242 26.0555C192.513 38.1019 181.33 64.685 174.248 89.189C166.75 118.157 154.805 151.11 165.086 171.445C170.598 180.172 176.759 188.376 183.224 189.723C185.738 190.311 188.163 190.844 190.537 191.262C193.004 191.696 195.429 192.008 197.811 192.145C203.529 192.485 208.935 191.739 213.835 189.689C229.294 182.936 248.346 176.07 253.207 165.712C260.397 149.482 265.728 132.181 257.586 121.238C240.45 98.3761 218.577 71.806 198.289 68.9412C177.356 69.9822 152.27 71.5246 141.389 78.9744C128.372 93.6216 118.918 111.01 113.961 127.158C106.372 155.043 107.81 181.632 111.804 202.379C113.297 210.002 114.606 217.085 116.057 223.31C116.784 226.402 117.565 229.323 118.457 231.645C118.9 232.802 119.39 233.801 119.784 234.38C119.974 234.666 120.137 234.838 120.172 234.867C120.213 234.902 120.094 234.794 119.882 234.717C124.509 236.338 129.772 237.435 134.005 238.273C136.617 238.779 138.976 239.181 141.15 239.521C143.042 239.817 144.819 240.066 146.332 240.263C168.348 242.854 193.686 243.795 204.088 231.722C204.545 231.077 204.926 230.403 205.238 229.693C205.339 229.463 205.434 229.227 205.522 228.985C205.579 228.8 205.568 228.848 205.57 228.684C205.567 228.529 205.514 228.142 205.355 227.604C205.042 226.515 204.39 225.002 203.664 223.467C195.821 205.347 183.209 189.212 177.025 162.296C176.524 158.407 176.409 153.78 178.51 149.069C181.106 143.384 185.933 140.591 189.428 138.673C221.323 122.759 252.491 113.065 282.63 105.56C294.375 103.512 305.073 98.2235 320.72 105.533C324.314 107.758 327.144 112.215 327.7 116.309C328.35 120.425 327.617 124.011 326.56 127.151C321.916 140.661 318.307 157.157 304.647 168.329C285.348 181.299 267.418 188.718 249.657 197.359C245.993 199.079 242.348 200.774 238.706 202.455C229.705 206.61 220.845 210.685 212.079 214.594C212.042 214.61 212.006 214.626 211.97 214.642C198.864 220.443 186.117 226.038 172.805 230.506C166.124 232.692 159.521 234.784 152.672 236.52C145.636 237.838 139.245 241.004 128.555 237.188C111.321 230.08 90.5213 221.153 79.1705 202.843C76.5344 198.925 75.4388 193.071 76.2433 188.661C76.7289 185.314 77.1663 181.824 77.7053 178.297C79.3392 169.111 80.3488 159.366 87.9921 150.28C98.9055 139.902 111.524 137.081 123.732 137.431C130.491 137.729 137.515 137.511 144.731 138.121C148.358 138.46 152.07 138.902 156.166 140.383C160.012 141.614 165.926 145.739 166.801 151.996C168.181 191.852 168.522 221.974 185.055 239.82C185.741 240.575 186.419 241.31 187.092 242.022C192.163 247.455 196.874 251.074 202.364 252.533C208.057 254.112 213.911 254.942 219.616 255.254C235.369 256.071 250.105 253.089 263.712 248.135C273.038 244.723 282.164 241.29 291.287 237.635C300.612 233.845 312.051 229.198 317.512 225.387C328.573 215.343 340.96 204.778 342.738 194.907C345.729 176.871 343.322 158.774 332.002 146.81C330.466 145.138 328.794 143.576 326.993 142.116C326.098 141.391 325.206 140.677 324.313 139.978C315.966 133.388 307.304 128.189 297.988 126.586C272.591 122.304 245.529 124.892 219.789 132.906C211.875 135.381 203.962 137.943 196.212 140.827C185.858 144.612 177.926 148.467 177.624 148.352C177.299 148.218 184.725 144.07 195.096 140.235C203.129 137.218 211.306 134.567 219.508 132.002C245.187 124.017 272.289 121.306 298.155 125.652C306.674 127.127 314.69 131.523 322.316 137.254C324.077 138.569 325.831 139.953 327.591 141.38C328.667 142.252 329.681 143.144 330.663 144.085C343.73 156.127 346.963 175.692 343.675 195.052C341.708 205.554 329.215 215.991 318.148 226.088C312.712 229.927 302.097 234.225 293.233 237.87C283.523 241.792 273.936 245.401 264.036 249.025C251.728 253.502 238.439 256.441 223.846 256.337C216.801 256.263 209.419 255.465 202.107 253.446C197.23 252.127 192.912 249.234 188.511 244.835C187.137 243.477 185.758 242.003 184.353 240.457C167.424 222.159 167.255 191.447 165.869 152.159C165.049 146.321 159.551 142.47 155.822 141.266C151.872 139.838 148.217 139.395 144.632 139.062C137.493 138.459 130.488 138.675 123.688 138.376C111.713 138.012 99.2353 140.878 88.6893 150.919C81.5263 159.372 80.3619 168.74 78.7704 177.599C78.1734 181.398 77.7056 185.168 77.1794 188.797C76.4112 193.051 77.447 198.573 79.9718 202.34C91.1146 220.316 111.569 229.169 128.957 236.332C147.948 240.846 158.619 233.126 172.51 229.607C185.069 225.4 197.178 220.133 209.634 214.646C219.044 210.472 228.585 206.085 238.309 201.595C241.41 200.164 244.438 198.757 247.572 197.291C265.762 188.471 284.433 180.733 304.062 167.584C317.376 156.719 321.016 140.428 325.664 126.844C326.689 123.806 327.383 120.357 326.766 116.463C326.234 112.589 323.594 108.431 320.198 106.323C305.364 99.3409 294.489 104.396 282.853 106.479C252.778 113.965 221.613 123.67 189.875 139.507C186.421 141.397 181.814 144.097 179.372 149.46C177.501 153.632 177.475 157.826 177.873 161.447C183.612 188.148 196.385 204.298 204.523 223.063C205.663 225.407 206.609 228.009 206.52 228.74C206.514 228.955 206.5 229.058 206.413 229.311C206.292 229.645 206.158 229.968 206.013 230.283C197.947 244.532 170.379 243.991 147.154 241.323C143.913 240.913 139.716 240.312 134.771 239.382C130.25 238.508 124.654 237.379 119.554 235.604C119.638 235.633 119.65 235.667 119.535 235.565C119.426 235.469 119.219 235.236 118.996 234.901C118.538 234.225 118.028 233.167 117.569 231.967C116.648 229.562 115.862 226.613 115.13 223.498C113.673 217.236 112.365 210.162 110.877 202.56C106.856 181.653 105.414 154.972 113.055 126.891C118.076 110.555 127.552 93.1301 140.693 78.3356C152.455 70.32 177.182 69.1184 198.251 67.9968C219.646 71.127 241.036 97.74 258.355 120.688C266.859 132.226 261.234 149.863 254.08 166.074C248.711 177.175 229.69 183.728 214.198 190.561C208.978 192.749 203.192 193.485 197.146 193.05C196.48 193.004 195.812 192.944 195.14 192.873C191.139 192.452 187.12 191.606 183.01 190.644C175.605 188.955 169.56 180.179 164.284 171.961C153.206 146.532 167.393 113.939 173.271 88.9137C181.299 60.354 194.261 35.5365 213.719 25.0861C236.954 12.5534 260.449 10.7285 281.657 11.8732C290.184 12.0858 297.952 14.951 304.498 19.3682C311.321 23.9579 316.864 30.0602 321.335 36.4853C337.224 68.5113 321.843 104.07 319.319 129.979C319.296 130.113 319.275 130.245 319.253 130.376C318.395 135.301 317.787 139.909 316.105 142.134C315.606 142.89 315.069 143.599 314.488 144.28C299.873 158.801 277.564 157.858 259.847 156.849C255.404 156.451 250.785 155.851 247.114 154.924C242.238 154.336 241.761 145.056 242.627 136.341C244.302 124.461 251.31 111.189 256.889 99.362C262.417 87.8097 274.537 80.7077 287.771 76.465C293.894 74.4223 301.383 75.7667 308.802 78.3492C327.033 84.9123 346.212 97.2816 367.633 105.945C378.782 110.477 388.762 118.13 396.378 127.546C400.439 132.402 401.192 139.295 400.897 146.224C400.738 151.119 399.174 155.758 396.423 159.635C396.388 159.685 396.352 159.736 396.316 159.786C395.643 160.73 394.907 161.631 394.119 162.489C391.907 164.926 388.54 166.343 384.976 167.039ZM359.756 282.453C369.971 287.518 378.588 291.143 378.422 291.343C378.176 291.545 369.229 288.221 358.96 283.115C342.671 275.065 326.98 266.04 311.659 256.463C303.991 251.662 296.383 246.875 288.75 242.072C279.191 236.054 271.641 231.08 271.863 230.913C272.105 230.754 280.039 235.47 289.601 241.491C297.127 246.226 304.608 250.934 312.16 255.662C327.574 265.297 343.366 274.376 359.756 282.453ZM404.043 131.125C405.994 136.485 405.957 142.067 405.724 146.432C405.458 151.488 403.91 155.159 403.267 156.37C402.05 158.222 404.581 154.239 404.907 146.397C404.959 144.637 404.98 142.689 404.864 140.587C404.599 136.795 404.083 130.755 399.511 125.038C397.205 122.189 394.444 119.166 391.133 116.152C385.524 111.047 378.269 105.93 369.202 102.194C358.171 97.6891 346.17 91.4485 332.882 84.5777C319.697 78.5025 304.373 67.8233 286.432 72.1728C273.613 76.2274 259.48 83.3985 252.688 97.2627C247.04 109.33 239.938 121.823 237.852 136.077C237.313 144.311 235.998 156.7 245.865 159.548C269.607 163.496 301.862 166.657 319.954 144.678C322.607 140.733 322.921 135.59 323.826 130.725C327.427 99.8087 341.609 64.3483 324.958 33.984C315.254 19.7296 299.807 7.70275 281.789 7.46905C257.962 6.02589 233.139 9.47803 211.674 21.3027C188.141 34.5503 176.745 61.9288 169.301 87.7943C168.618 90.232 167.945 92.6509 167.282 95.0685C161.248 117.808 155.352 138.579 156.358 158.35C156.779 164.013 158.075 169.575 160.996 174.077C166.626 182.634 172.713 192.031 182.152 194.334C193.208 196.973 204.953 198.493 215.591 193.905C229.829 187.119 248.978 182.229 257.201 167.365C263.146 152.846 271.41 134.142 260.939 118.839C245.71 99.9282 227.739 71.4318 198.132 65.0008C184.143 65.6363 169.252 66.5645 154.148 69.8322C148.406 71.1948 141.967 72.9106 138.504 76.3283C125.842 90.5833 115.858 107.848 110.204 126.052C103.349 150.898 103.05 177.69 107.94 203.132C109.218 209.668 110.421 216.19 111.844 222.597C113.276 228.601 114.973 236.702 118.51 238.429C133.854 243.248 150.856 245.458 167.264 245.818C182.918 245.754 203.265 244.668 209.36 230.389C210.312 228.206 208.863 224.92 207.383 221.718C198.41 198.814 178.489 179.367 182.337 150.804C184.237 146.579 188.081 144.186 191.414 142.382C220.816 127.672 251.942 117.544 283.641 109.717C294.643 107.596 306.132 103.247 318.344 109.131C324.177 112.673 324.453 120.676 322.467 125.745C317.871 139.149 314.33 154.794 301.942 164.888C281.092 178.668 258.84 187.965 236.836 198.397C215.318 208.188 193.978 218.416 171.384 226.171C158.301 229.668 145.993 236.786 130.516 233.013C113.326 225.852 93.8816 217.611 83.1287 200.359C81.0559 197.203 80.2449 192.992 80.8762 189.336C82.8687 177.45 82.8307 164.222 91.4629 153.464C100.173 145.083 111.992 141.712 123.515 142.166C130.113 142.465 136.858 142.279 143.689 142.813C147.107 143.102 150.569 143.514 154.034 144.69C157.351 145.748 161.45 148.443 162.087 152.82C164.111 184.506 160.436 218.933 181.396 243.137C187.02 249.414 193.143 255.263 201.015 257.338C222.067 263.066 244.91 260.444 265.466 252.95C284.326 245.787 304.57 239.324 321.011 229.239C331.71 219.208 344.905 209.508 347.95 195.712C351.711 174.86 347.611 151.156 330.394 137.932C321.014 130.231 310.73 123.264 298.949 121.213C272.129 116.644 244.167 119.515 218.135 127.599C194.989 135.491 168.167 141.57 153.851 161.408C141.283 182.464 134.265 208.899 142.344 232.423C144.794 239.296 147.113 247.575 153.607 249.101C176.272 253.638 203.285 259.071 222.186 245.399C242.136 226.057 260.449 204.041 283.351 187.238C296.869 178.658 306.617 162.283 325.724 162.177C328.96 162.544 332.092 163.857 334.625 165.904C346.474 175.459 365.485 177.963 372.756 195.285C376.7 212.51 377.203 232.349 365.709 247.448C356.406 258.991 348.456 271.779 337.792 282.801C331.738 288.735 325.118 293.926 317.967 298.451C310.775 302.278 303.109 308.903 292.897 304.449C282.812 297.148 273.631 288.831 265.434 279.463C258.082 270.202 247.653 258.763 253.091 244.665C253.206 244.433 253.328 244.203 253.456 243.976C255.557 240.544 257.643 237.086 262.193 235.083C277.415 231.165 290.195 239.458 302.361 245.265C320.048 254.205 333.992 270.676 339.825 289.639C341.041 292.817 340.918 297.535 338.503 300.492C332.725 307.031 325.909 309.256 319.469 312.956C289.856 327.834 261.455 345.069 228.574 353.982C225.414 354.558 221.938 355.13 218.303 354.302C214.658 353.482 211.672 351.273 209.269 348.974C196.462 336.272 182.152 324.423 173.958 307.041C167.923 290.032 158.927 271.35 167.844 252.108C169.366 249.877 171.475 246.86 175.338 246.172C181.064 245.213 186.943 244.432 192.986 244.617C196.009 244.754 199.111 245.024 202.27 246.432C203.817 247.146 205.479 248.309 206.48 250.121C207.5 251.931 207.587 254.035 207.283 255.749C202.604 267.73 192.344 272.53 182.77 277.184C158.023 286.699 127.756 303.929 101.418 285.09C97.3067 281.979 96.435 275.815 96.7062 271.602C97.6843 251.695 95.6847 231.619 101.17 211.371C102.529 207.171 104.632 202.842 108.149 199.433C117.051 191.343 126.578 180.279 141.74 179.115C147.501 179.176 154.672 178.035 160.027 184.483C160.765 185.623 161.364 186.791 161.789 188.194C161.991 188.902 162.167 189.665 162.118 190.652C162.104 191.581 161.569 193.108 160.344 193.831C150.226 199.274 134.278 202.86 125.604 190.819C120.711 183.871 117.423 174.766 119.301 165.703C122.356 151.558 130.44 138.565 141.912 129.323C156.132 118.98 169.769 105.245 190.099 104.889C200.812 107.221 210.082 111.619 219.702 115.453C232.976 120.945 245.249 129.059 254.564 139.83C259.683 145.752 262.691 154.221 260.231 162.093C259.276 165.023 257.619 168.734 253.41 169.718C244.299 171.793 232.713 169.905 227.053 161.496C220.317 151.706 211.506 143.186 208.719 130.89C207.34 122.79 207.833 114.446 210.179 106.941C216.451 88.8932 215.682 68.3569 230.863 56.7293C236.492 53.7176 243.12 51.0602 249.573 52.9586C259.978 55.9595 269.676 59.3409 276.6 65.0323C283.608 70.6805 289.32 75.6695 293.804 79.6222C302.292 87.1212 308.757 93.5157 308.496 93.6212C308.228 93.7342 301.345 87.5352 292.868 80.0569C288.467 76.1813 282.865 71.2954 276.008 65.7697C269.265 60.2209 259.721 56.8661 249.308 53.8658C243.282 52.0782 236.887 54.5693 231.308 57.5633C216.944 68.4156 217.285 89.1006 211.083 107.216C208.78 114.59 208.294 122.753 209.651 130.736C212.284 142.504 221.052 151.152 227.818 160.942C233.228 168.969 244.262 170.813 253.226 168.791C256.806 167.987 258.429 164.632 259.328 161.816C261.673 154.346 258.811 146.186 253.849 140.448C244.652 129.812 232.501 121.77 219.342 116.327C209.751 112.498 200.387 108.089 189.944 105.821C170.596 106.107 156.577 119.74 142.503 130.06C131.206 139.152 123.221 152.007 120.227 165.888C118.415 174.623 121.58 183.462 126.379 190.278C134.484 201.692 150.021 198.328 159.839 193.032C160.75 192.492 161.156 191.37 161.175 190.596C161.216 189.786 161.067 189.103 160.883 188.461C160.497 187.184 159.929 186.068 159.237 185.003C154.53 179.218 147.455 180.058 141.784 180.059C127.196 181.137 117.661 192.029 108.808 200.111C105.906 202.922 103.979 206.431 102.66 209.966C96.375 230.314 98.7144 251.173 97.6517 271.629C97.4122 275.851 98.1806 281.428 102.051 284.386C127.408 302.697 157.728 285.895 182.389 276.318C191.829 271.809 202.044 266.673 206.35 255.59C207.216 252.377 204.906 248.366 201.871 247.29C198.937 245.977 195.909 245.693 192.952 245.563C187.025 245.381 181.195 246.15 175.493 247.105C172.117 247.692 170.126 250.421 168.63 252.636C160.067 270.929 168.776 289.832 174.833 306.683C182.828 323.683 197.129 335.622 209.924 348.29C212.269 350.535 215.109 352.615 218.515 353.38C221.913 354.158 225.269 353.625 228.4 353.052C260.903 344.247 289.463 326.983 319.031 312.116C325.419 308.474 332.395 306.031 337.735 299.937C339.96 297.177 340.07 293.008 338.925 289.933C333.138 271.161 319.427 254.965 301.916 246.102C289.856 240.289 276.927 232.19 262.51 235.976C259.225 237.323 257.29 239.927 255.502 242.463C255.07 243.105 254.662 243.765 254.282 244.441C248.311 257.495 258.576 269.384 265.929 278.584C274.103 287.981 283.369 296.376 293.439 303.667C302.468 307.727 310.427 301.503 317.46 297.641C324.54 293.161 331.132 287.99 337.116 282.12C347.65 271.234 355.615 258.44 364.957 246.838C376.135 232.207 375.721 212.518 371.805 195.535C365.045 179.17 346.16 176.344 333.998 166.683C331.608 164.753 328.66 163.519 325.608 163.173C307.632 163.123 297.435 179.401 283.964 188.057C261.157 204.807 242.977 226.698 222.9 246.188C203.113 260.394 176.205 254.661 153.355 250.175C145.938 248.297 143.781 239.584 141.289 232.79C133.054 208.791 140.174 182.102 152.858 160.798C167.749 140.264 194.585 134.418 217.773 126.437C243.966 118.286 272.084 115.365 299.174 119.956C311.298 122.059 321.79 129.194 331.218 136.919C348.902 150.458 353.094 174.888 349.291 195.919C345.959 210.681 332.605 220.181 321.947 230.269C304.78 240.859 284.929 247.051 265.959 254.305C245.188 261.892 222.083 264.598 200.61 258.779C192.316 256.601 185.912 250.443 180.271 244.157C158.71 219.269 162.563 184.16 160.514 153.095C158.733 145.542 149.773 145.124 143.561 144.421C136.85 143.9 130.122 144.09 123.441 143.794C112.356 143.326 100.781 146.756 92.6835 154.583C84.6846 164.462 84.4735 177.664 82.5443 189.579C81.9802 192.957 82.6871 196.575 84.5632 199.458C94.984 216.144 113.857 224.218 131.255 231.439C144.879 234.851 157.985 228.057 170.832 224.49C193.215 216.791 214.582 206.542 236.073 196.743C257.99 186.349 280.481 176.854 300.785 163.417C312.472 153.936 316.077 138.678 320.67 125.127C322.489 120.326 322.157 113.678 317.292 110.724C306.736 105.511 294.872 109.391 284.097 111.593C252.544 119.396 221.436 129.559 192.351 144.132C189.107 145.878 185.727 148.074 184.149 151.626C180.55 177.307 200.087 198.171 209.214 220.856C210.652 224.099 212.546 227.678 211.265 231.085C203.989 247.277 183.063 247.635 167.237 247.865C150.557 247.488 133.658 245.336 117.796 240.364C112.139 237.047 111.527 229.207 109.826 223.05C108.387 216.579 107.185 210.06 105.905 203.529C100.958 177.769 101.231 150.765 108.203 125.463C113.999 106.836 124.032 89.4931 136.964 74.9149C141.598 70.5094 148.355 69.0849 154.579 67.5938C169.662 64.4474 184.281 63.5438 198.049 62.9403C230.317 70.1587 246.927 98.7281 262.416 117.782C273.539 134.468 264.541 153.522 258.626 167.955C249.43 183.999 230.437 188.182 216.064 195.041C205.066 199.705 193.036 198.063 181.914 195.358C171.919 192.828 165.871 183.218 160.188 174.597C157.808 170.911 156.479 166.577 155.817 162.097C153.493 142.094 159.531 121.028 165.482 98.0641C166.438 94.5361 167.401 91.0579 168.388 87.5368C175.877 61.5676 187.271 33.9776 211.222 20.4656C232.87 8.53088 257.962 5.06764 281.818 6.51547C300.234 6.75614 315.958 19.0547 325.745 33.4408C342.763 64.7136 328.297 99.9896 324.773 130.882C323.856 135.747 323.595 140.934 320.756 145.208C301.848 167.93 269.65 164.399 245.613 160.48C240.583 159.366 237.636 154.287 236.985 149.734C236.169 145.084 236.608 140.44 236.887 136.024C239.068 121.244 246.174 108.945 251.822 96.83C258.83 82.5593 273.272 75.3243 286.143 71.2466C305.183 66.7726 320.483 77.8929 333.739 83.9241C347.037 90.8105 358.889 96.9333 369.578 101.295C374.915 103.494 379.593 106.151 383.624 108.937C391.215 114.196 396.539 119.829 400.271 124.43C402.156 126.759 403.312 129.122 404.043 131.125ZM265.229 349.009C264.948 349.007 264.666 349.005 264.384 349.002C244.352 348.934 224.001 342.006 203.741 333.892C175.835 320.15 173.756 284.542 171.826 255.493C171.61 251.931 172.476 247.806 174.762 244.822C178.627 239.372 185.16 237.207 191.104 236.154C203.191 234.928 213.791 239.73 224.594 243.206C249.156 252.658 277.289 262.994 290.642 289.173C291.959 297.149 285.962 302.277 281.628 306.777C276.904 311.27 271.777 315.181 266.723 319.099C252.493 328.984 235.414 329.754 219.632 332.754C200.342 335.587 181.105 335.654 162.184 335.436C154.088 335.295 146.036 334.72 138.11 333.685C121.653 331.572 105.757 327.278 90.8467 321.608C66.1376 311.757 56.3666 286.071 48.4961 265.256C44.1753 242.034 53.7416 221.824 57.8003 202.637C59.6098 195.654 62.1504 189.04 65.6394 183.115C69.7702 176.156 75.1994 169.986 82.2448 166.513C101.242 158.803 120.334 166.277 133.698 175.676C149.081 186.941 147.367 207.24 143.066 221.044C139.185 232.755 127.077 236.61 117.473 239.36C107.384 241.951 97.2755 242.883 87.2973 243.019C83.4067 243.062 79.5291 242.929 75.6739 242.621C75.0893 242.574 74.4878 242.522 73.8986 242.466C59.1828 240.93 44.2644 237.62 30.9532 229.328C16.0176 218.601 16.5574 198.077 10.4348 180.099C5.12676 161.815 8.07434 140.854 13.4995 118.946C18.5221 107.558 29.8647 100.237 39.9599 91.3585C41.3029 90.2479 42.6357 89.1517 44.0027 88.0301C64.3589 76.05 91.0755 80.3142 117.413 79.1661C135.371 78.4668 154.174 84.4901 169.363 96.2346C184.003 106.173 193.882 122.106 201.712 138.534C211.747 162.834 207.992 191.684 196.425 215.998C193.441 219.932 188.968 222.623 184.211 223.86C165.212 227.8 145.913 223.257 127.006 220.481C126.909 220.465 126.812 220.449 126.716 220.433C121.283 219.526 115.859 218.59 110.423 217.665C95.604 214.78 79.5304 212.006 68.3081 200.798C59.8038 186.69 62.892 170.069 63.3119 154.923C64.9961 126.562 73.5923 98.0941 91.0064 77.2592C96.8496 70.0355 105.949 71.5334 113.309 70.9538C120.968 70.845 128.466 71.0937 135.906 71.255C161.451 72.2187 185.32 77.4958 207.099 83.8138C218.481 87.1929 229.204 91.1711 239.304 95.3099C251.893 100.478 264.046 106.137 275.795 112.013C302.635 125.108 330.232 135.126 357.409 139.239C372.704 137.835 384.139 122.969 396.795 114.438C401.646 110.353 408.395 107.86 410.277 102.532C412.416 94.9482 404.036 88.8726 397.799 84.6881C391.053 80.3825 383.776 76.9959 376.475 74.2884C370.306 73.3374 364.29 79.9657 358.643 83.7857C339.659 109.195 334.817 141.644 326.685 168.71C320.783 191.068 317.897 212.799 316.104 233.316C312.99 259.416 315.605 283.589 312.835 305.78C301.215 324.3 279.342 326.309 263.319 330.966C249.016 334.755 234.394 333.571 223.622 327.182C215.801 322.616 212.935 313.914 211.77 306.556C210.765 300.241 210.648 293.798 210.662 287.353C211.566 261.089 209.949 231.518 226.216 208.698C228.064 206.026 231.419 204.882 234.654 204.486C262.13 216.581 287.751 235.79 314.523 251.882C339.876 266.896 365.007 283.99 394.679 290.353C410.089 283.584 406.517 264.516 410.739 251.541C414.21 239.797 423.845 230.768 426.531 218.384C430.979 197.249 436.753 176.148 435.053 154.354C433.897 148.154 426.95 145.561 421.546 145.529C415.88 145.282 410.353 146.032 404.876 146.743C393.908 148.251 383.059 149.964 372.173 150.261C372.161 150.261 372.124 150.264 372.112 150.265C364.237 151.107 356.46 151.861 348.868 150.183L348.943 150.2C341.844 148.127 334.805 145.598 327.729 143.386C313.912 139.013 327.625 142.674 349.179 149.346L349.035 149.313C355.931 150.782 363.651 150.183 372.005 149.246C372.032 149.243 372.112 149.238 372.139 149.237C373.39 149.2 374.63 149.148 375.892 149.08C377.182 149.009 378.475 148.921 379.765 148.819C392.105 147.968 402.638 145.318 418.341 144.465C421.984 144.409 425.687 144.587 429.146 146.003C432.677 147.341 435.329 150.737 436.07 154.091C437.792 167.882 435.096 178.413 433.68 188.67C432.735 194.322 430.848 204.749 427.629 218.638C425.572 229.687 415.915 239.135 411.815 251.879C409.942 257.95 409.596 265.011 408.137 272.293C406.81 279.304 403.572 288.356 395.073 291.383C365.713 285.763 340.825 268.623 313.988 252.737C287.422 236.643 260.356 216.881 234.774 205.409C231.62 205.791 228.578 206.9 226.977 209.229C209.775 234.201 212.645 264.807 211.611 287.353C211.584 297.459 212.016 306.694 214.605 314.066C216.247 318.825 219.264 323.513 224.116 326.345C234.426 332.466 248.774 333.779 263.051 329.955C278.92 325.332 300.653 323.12 311.775 305.207C314.187 284.557 311.672 259.277 314.683 233.194C316.412 212.718 319.231 190.88 325.125 168.303C333.342 141.103 337.345 109.412 357.547 82.324C360.403 80.1904 363.23 77.9615 366.275 75.9006C369.305 74.0462 372.677 71.2961 377.111 72.5316C384.544 75.2743 391.888 78.6701 398.818 83.0721C405.068 87.4533 414.489 93.2434 412.125 103.151C409.493 109.883 402.677 111.919 398.004 116.002C391.798 120.786 385.629 125.736 379.255 130.648C372.829 135.143 366.426 141.782 357.191 141.258C329.526 137.092 301.994 127.088 274.863 113.879C262.892 107.896 250.5 102.137 237.667 96.8999C227.872 92.9099 217.496 89.0642 206.515 85.776C184.944 79.458 161.165 74.0989 135.86 73.0275C128.431 72.8316 120.94 72.548 113.349 72.6185C106.107 73.0091 96.9138 72.1397 92.3383 78.0552C74.8232 98.8783 66.3259 126.616 64.4848 155.007C63.952 169.999 61.0777 186.865 69.0972 200.139C79.7361 210.88 95.8287 213.886 110.585 216.725C115.14 217.504 119.697 218.29 124.253 219.058C124.591 219.115 124.929 219.172 125.271 219.23C144.719 222.115 164.747 226.89 183.965 222.944C188.576 221.738 192.808 219.189 195.679 215.412C206.891 191.794 210.788 162.791 200.844 138.915C193.142 122.692 183.13 106.698 168.9 97.0615C153.552 85.2578 135.35 79.4659 117.422 80.1127C91.225 81.2072 64.2036 77.1755 44.6029 88.7612C43.268 89.8564 41.965 90.9281 40.6537 92.0122C30.5959 100.799 19.1057 108.492 14.4154 119.183C9.02379 140.889 6.11505 161.879 11.3338 179.794C17.4686 198.041 17.1563 218.383 31.4892 228.539C46.6354 237.835 63.8106 241.056 80.304 241.949C80.8408 241.972 81.3805 241.993 81.923 242.01C83.7074 242.065 85.4889 242.083 87.2829 242.063C97.3725 241.926 107.486 240.967 117.453 238.379C126.971 235.677 138.633 231.659 142.148 220.792C146.436 206.976 148.018 187.343 133.123 176.428C120.082 167.216 101.082 159.847 82.6517 167.366C75.9152 170.678 70.5713 176.677 66.5139 183.492C63.0427 189.359 60.5136 195.932 58.715 202.873C54.6055 222.054 45.1794 242.614 49.3861 264.937C57.2284 285.764 67.0632 311.162 91.1789 320.721C106.788 326.665 123.445 331.051 140.668 333.049C147.772 333.891 154.961 334.363 162.199 334.49C181.096 334.709 200.337 334.633 219.48 331.82C235.247 328.847 252.37 327.96 266.143 318.351C271.199 314.433 276.308 310.532 280.976 306.092C285.302 301.684 290.978 296.483 289.724 289.403C276.843 264.124 248.717 253.417 224.28 244.098C213.541 240.617 202.799 235.886 191.268 237.084C185.415 238.116 179.151 240.248 175.534 245.367C173.364 248.221 172.574 251.988 172.771 255.455C174.624 284.438 177.025 319.822 204.092 333.014C224.01 340.989 243.897 347.776 263.427 348.043C263.75 348.049 264.072 348.054 264.393 348.057C275.265 348.164 284.315 348.18 284.797 348.43C285.297 348.674 276.535 349.091 265.229 349.009ZM262.441 354.856C240.552 354.317 220.397 346.925 201.502 339.496C167.044 321.063 168.235 284.033 165.592 255.739C165.233 251.542 166.615 245.047 169.648 241.21C175.181 233.52 183.497 231.159 190.006 229.951C205.913 228.529 215.54 233.807 226.709 237.2C252.392 247.594 280.417 255.37 296.959 287.59C298.545 294.34 295.727 299.519 293.569 302.897C291.237 306.405 288.695 309.044 286.149 311.506C281.044 316.368 275.797 320.362 270.745 324.294C253.451 336.066 236.707 336.084 220.695 339.3C200.656 342.258 181.485 342.322 162.072 342.123C137.025 341.811 111.725 336.868 88.4838 327.911C60.8526 316.827 50.5695 289.721 42.1488 267.532C36.9355 239.782 47.0153 221.902 51.2924 200.955C55.4445 185.861 62.3184 169.594 79.3635 160.473C101.038 151.73 121.123 158.906 137.761 170.365C155.37 182.784 154.607 207.685 149.553 222.821C144.116 238.673 130.38 242.419 120.065 245.679C109.135 248.616 98.2585 249.674 87.4 249.848C66.7116 249.817 46.3514 246.721 27.0627 235.057C7.19397 219.5 9.78057 197.358 3.84984 182.327C-2.56884 158.958 1.89037 137.896 6.83605 117.219C14.2819 100.861 24.0454 96.6887 32.9651 88.3255C35.1772 86.4801 37.4201 84.6324 39.687 82.7729C66.0232 67.8133 90.5878 73.9532 117.346 72.4097C135.783 71.3419 158.78 79.2136 172.626 90.3941C190.31 102.614 199.161 118.205 207.764 135.874C218.545 163.613 215.341 191.428 201.519 219.997C197.744 225.017 191.618 228.654 185.887 230.09C163.312 234.545 144.357 229.341 124.787 226.544C123.355 226.301 121.946 226.06 120.521 225.815C116.789 225.175 113.068 224.528 109.354 223.887C93.877 220.609 77.9093 218.867 63.5484 204.77C52.3223 185.3 57.1687 170.301 57.2717 154.495C58.8823 125.642 68.8106 94.4712 86.0564 74.3011C90.6535 67.4429 96.6801 66.9875 100.853 66.1164C105.258 65.45 109.288 65.3319 113.243 65.2665C121.13 65.1821 128.623 65.4588 136.05 65.6421C162.551 66.7369 186.525 72.1627 208.649 78.6017C220.935 82.2712 232.384 86.582 243.101 91.025C255.215 96.0574 266.912 101.52 278.213 107.171C304.41 119.995 332.219 129.965 357.991 133.835C361.417 134.621 368.671 129.381 374.709 124.744C380.96 119.935 387.201 114.936 393.458 110.119C398.785 106.009 405.349 102.191 405.09 100.796C406.548 99.6929 401.044 92.8961 394.834 89.3036C388.593 85.317 381.504 82.0111 374.601 79.463C374.955 79.5942 375.215 79.5459 375.073 79.5625C374.951 79.5761 374.541 79.6835 374.047 79.8975C373.037 80.3253 371.711 81.1141 370.383 82.0076C367.694 83.8183 364.863 86.0323 361.954 88.2039C346.712 108.953 339.669 143.713 332.115 170.124C326.349 192.069 323.528 213.424 321.772 233.803C320.644 246.762 319.87 259.22 319.666 271.086C319.563 277.086 319.62 282.791 319.832 288.534C319.598 294.292 321.955 299.618 317.921 308.532C303.53 330.82 280.558 331.715 264.823 336.621C249.374 340.713 233.225 339.665 220.628 332.254C209.314 325.525 206.626 313.244 205.553 304.731C204.807 298.503 204.756 292.766 204.767 287.357C205.278 250.615 207.603 223.115 221.458 205.376C224.973 200.463 230.221 199.232 233.906 198.739C235.062 198.599 235.861 198.742 236.374 198.827C236.978 198.939 237.366 199.048 237.778 199.169C238.211 199.299 238.532 199.411 238.871 199.534C239.21 199.658 239.557 199.794 239.838 199.909C241.098 200.428 242.126 200.921 243.166 201.435C245.235 202.466 247.122 203.499 248.99 204.544C252.658 206.606 256.142 208.679 259.531 210.721C266.308 214.813 272.775 218.838 279.783 223.217C280.654 223.762 281.536 224.314 282.43 224.874C282.489 224.911 282.549 224.947 282.608 224.983C283.738 225.676 284.653 226.242 285.143 226.545C286.132 227.158 286.938 227.661 287.229 227.843C287.915 228.271 288.496 228.635 288.703 228.765C289.551 229.296 290.519 229.904 291.13 230.289C295.388 232.964 306.391 239.91 317.606 246.95C321.548 249.425 325.529 251.864 329.268 254.1C344.038 262.902 354.811 268.723 366.329 274.379C367.525 274.962 368.644 275.5 369.848 276.069C373.61 277.843 377.449 279.58 381.709 281.301C383.814 282.148 385.997 282.981 388.26 283.722C389.369 284.084 390.539 284.434 391.601 284.687C392.164 284.82 392.679 284.921 393.08 284.973C393.283 285.001 393.456 285.012 393.502 285.012C393.534 285.032 393.49 284.94 392.713 285.206C395.671 284.1 397.964 281.968 399.651 278.014C402.947 269.209 403.388 260.402 403.653 261.992C403.432 263.178 403.557 274.466 398.549 281.926C397.043 283.977 395.203 285.288 393.054 286.097C393.418 285.962 393.553 285.971 393.55 285.967C393.566 285.966 393.471 285.968 393.382 285.962C393.286 285.956 393.138 285.943 392.992 285.924C392.856 285.907 392.699 285.883 392.526 285.853C391.859 285.738 391.129 285.563 390.354 285.352C388.864 284.944 387.382 284.451 385.894 283.921C382.99 282.882 380.217 281.748 377.6 280.626C372.349 278.365 367.734 276.157 363.379 273.994C362.2 273.408 361.085 272.846 359.903 272.243C348.952 266.623 339.438 261.334 326.38 253.471C323.13 251.51 320.068 249.623 317.099 247.763C302.744 238.767 291.363 231.581 280.721 224.921C265.627 216.373 257.292 207.32 234.028 199.678C230.427 200.154 225.479 201.369 222.236 205.919C208.304 223.812 206.256 251.451 205.729 287.356C205.769 295.205 205.663 303.739 208.161 313.226C209.833 319.541 213.737 327.166 221.114 331.431C233.233 338.585 249.125 339.801 264.579 335.704C280.182 330.85 302.99 329.905 317.089 308.082C321.063 280.589 317.559 260.751 320.83 233.722C322.582 213.405 325.394 191.986 331.2 169.886C338.823 143.474 345.458 109.104 361.387 87.4476C364.288 85.2827 367.118 83.0679 369.852 81.2251C371.207 80.3152 372.566 79.5005 373.674 79.0294C374.217 78.7946 374.696 78.6595 374.932 78.6281C375.186 78.5937 375.1 78.6406 374.923 78.5744C381.884 81.1451 389.001 84.46 395.331 88.4996C401.545 92.1909 407.563 98.8685 405.986 101.096C405.876 103.17 399.283 106.759 394.036 110.867C387.792 115.673 381.562 120.663 375.295 125.485C369.209 130.103 362.055 135.528 357.89 134.774C331.923 130.874 304.148 120.91 277.791 108.016C266.548 102.394 254.907 96.9561 242.849 91.9434C232.121 87.4925 220.662 83.1756 208.38 79.5072C186.317 73.0834 162.365 67.6726 136.026 66.5865C128.597 66.4031 121.103 66.127 113.254 66.2112C109.32 66.2757 105.318 66.3959 100.998 67.0501C96.8904 67.8867 91.116 68.4115 86.8675 74.7858C69.5826 95.0537 59.8523 125.783 58.2142 154.562C58.0553 170.266 53.4691 185.509 64.2739 204.164C78.1522 217.827 94.1366 219.733 109.514 222.956C113.258 223.602 117.008 224.254 120.768 224.899C122.232 225.15 123.68 225.397 125.149 225.646C144.609 228.443 163.611 233.549 185.641 229.176C191.23 227.771 197.114 224.273 200.775 219.413C214.275 191.465 217.567 163.498 206.898 136.255C198.409 118.759 189.416 103.118 172.165 91.2193C158.13 79.9544 135.723 72.3415 117.355 73.3546C90.6486 74.8388 65.7837 68.9598 40.2864 83.5031C38.052 85.3359 35.8417 87.1567 33.6623 88.9742C24.7637 97.2931 14.8846 101.89 7.844 117.48C2.94786 138.081 -1.33921 159.183 4.99211 181.94C10.9648 197.247 8.74886 219.215 27.8172 233.946C46.6833 245.31 66.9787 248.399 87.3777 248.367C98.1512 248.173 108.938 247.092 119.677 244.178C129.848 240.999 143.056 237.085 147.996 222.395C152.966 207.282 153.535 183.543 136.724 171.72C120.593 160.578 100.645 153.706 80.1366 162.094C63.9714 170.734 57.1127 186.602 53.0903 201.42C48.7791 222.234 38.9713 240.789 43.9609 266.882C52.3217 288.985 62.6552 315.515 89.1753 326.066C112.26 334.95 137.259 339.829 162.105 340.147C181.434 340.352 200.61 340.283 220.382 337.375C236.345 334.226 253.173 333.998 269.578 322.787C274.633 318.865 279.846 314.901 284.845 310.15C289.219 305.195 296.79 300.437 295.161 288.041C279.612 257.604 251.633 249.014 226.146 238.799C215.105 235.377 205.252 230.192 190.286 231.535C183.932 232.691 176.059 234.976 170.921 242.109C168.07 245.724 166.803 251.632 167.119 255.679C169.582 283.793 168.621 320.511 201.953 338.369C220.203 345.63 239.512 352.825 260.519 353.841C261.792 353.898 263.065 353.933 264.34 353.944C293.669 354.232 321.959 352.547 348.719 350.87C361.18 350.336 376.371 346.039 384.183 333.464C388.382 325.566 397.892 317.306 392.937 301.96C388.665 292.491 384.007 283.105 378.764 274.233C367.098 255.514 353.574 234.584 328.351 229.657C323.707 228.713 316.797 230.866 313.82 235.825C312.999 237.213 311.139 239.963 312.767 244.291C314.73 248.293 317.338 248.798 318.76 249.378C321.822 250.28 323.871 250.24 325.984 250.278C351.801 249.914 377.923 252.447 403.136 241.154C410.221 237.826 417.771 231.486 421.474 224.19C425.546 216.981 429.787 206.855 425.833 196.426C421.569 183.839 415.665 164.932 398.452 158.413C387.429 154.381 375.782 154.539 365.24 159.753C364.282 160.252 363.258 160.87 362.158 161.981C361.13 163.07 359.659 164.904 359.665 167.992C359.674 171.168 361.931 173.653 363.508 174.54C365.163 175.535 366.522 175.798 367.728 175.956C377.735 176.773 390.161 178.658 400.68 168.591C406.174 162.829 409.705 154.582 409.908 146.612C410.262 139.012 409.565 129.287 403.467 121.872C394.888 111.21 383.741 102.644 371.177 97.4731C366.774 95.6551 362.422 93.6812 358.101 91.6085C351.977 88.708 343.409 84.1793 332.143 78.3902C320.732 73.6199 307.097 62.3346 284.851 67.103C272.118 71.1631 256.117 78.3335 247.818 94.829C242.214 106.993 235.023 118.291 232.288 135.77C232.029 139.89 231.475 144.983 232.391 150.44C232.959 155.635 237.208 163.471 244.39 165.005C246.979 165.685 249.4 166.089 251.85 166.456C274.347 168.321 303.918 172.823 324.848 147.914C328.64 141.993 328.654 136.569 329.649 131.69C330.061 129.186 330.486 126.671 330.918 124.146C334.044 96.1641 348.113 64.2694 329.986 30.5128C319.891 15.5866 302.82 1.61845 281.976 1.27831C258.333 -0.192665 231.754 3.07188 208.692 15.7843C183.74 29.8277 171.953 57.1315 164.08 83.1229C163.792 84.1027 163.508 85.0893 163.23 86.0826C157.261 107.793 151.644 127.454 150.088 147.599C149.538 157.387 149.756 168.039 155.686 177.493C161.504 186.002 167.439 196.915 180.712 200.531C191.847 203.202 205.375 205.277 218.073 199.861C232.517 192.53 251.152 190.19 263.308 169.892C268.935 155.517 279.551 135.048 266.426 114.914C249.839 95.3268 235.929 66.8086 197.858 58.1364C187.195 58.577 176.107 59.3162 164.506 60.9649C154.57 62.9377 144.416 62.6959 133.429 71.6733C120.462 86.311 109.991 103.721 103.594 124.106C96.5886 149.432 95.9286 177.06 101.17 204.452C102.43 210.894 103.622 217.372 105.087 223.993C105.838 227.318 106.63 230.655 107.816 234.132C109.243 237.42 109.841 241.915 116.119 244.902C132.89 250.167 149.44 252.239 166.785 252.716C183.034 252.116 205.521 253.753 215.849 232.761C216.949 229.996 216.591 226.645 215.925 224.531C215.266 222.303 214.447 220.528 213.635 218.776C204.153 196.616 185.58 172.135 188.635 153.659C189.423 151.775 191.658 150.078 194.678 148.479C223.511 134.055 254.801 123.942 285.278 116.444C295.596 114.013 308.44 111.456 314.529 114.91C316.856 116.337 317.295 119.437 315.916 123.493C311.232 137.746 307.273 151.865 297.658 159.438C277.673 172.531 254.365 182.424 233.929 192.091C215.437 200.586 198.044 208.552 181.816 214.961C177.521 216.647 173.319 218.213 169.214 219.557C156.061 223.676 140.671 229.074 133.481 226.698C112.816 218.427 96.9881 209.702 89.0655 196.632C87.7831 194.54 87.4664 192.778 87.82 190.348C89.6865 176.742 91.2685 164.212 96.6589 158.23C100.493 154.369 106.665 151.574 111.96 150.31C115.824 149.375 119.6 149.078 123.191 149.25C128.494 149.489 133.272 149.456 137.709 149.614C146.232 149.566 155.932 152 155.049 154.05C156.203 163.319 155.455 174.874 156.205 187.336C157.406 208.745 161.206 231.32 176.075 247.962C181.815 254.388 189.295 261.685 199.074 264.251C222.607 270.584 246.558 267.418 267.914 259.672C287.355 252.109 305.488 247.155 325.787 234.496C336.157 224.295 350.219 215.827 354.92 196.788C358.75 175.775 355.125 148.162 334.788 132.527C325.386 124.875 314.126 116.862 300.166 114.41C273.475 109.899 244.745 112.209 216.114 121.12C215.594 121.283 215.075 121.446 214.555 121.61C203.748 124.977 194.279 128.163 193.38 128.233C192.484 128.284 200.496 125.068 211.323 121.639C212.834 121.157 214.328 120.685 215.832 120.214C244.549 111.279 273.404 108.927 300.333 113.477C314.539 115.973 325.945 124.109 335.386 131.792C356.025 147.64 359.737 175.755 355.857 196.932C350.954 216.627 336.787 224.949 326.424 235.197C305.654 248.174 287.78 252.939 268.238 260.561C246.754 268.35 222.628 271.566 198.818 265.161C188.777 262.527 181.121 255.032 175.374 248.597C160.013 231.368 156.352 208.177 155.208 186.358C154.536 174.343 155.219 162.866 154.117 154.213C154.064 153.948 154.043 153.915 153.934 153.761C153.825 153.615 153.542 153.342 153.018 153.043C151.972 152.43 150.157 151.864 148.153 151.498C144.11 150.754 139.326 150.577 134.249 150.47C130.767 150.396 127.112 150.38 123.148 150.196C118.946 149.994 114.519 150.455 110.048 151.813C105.583 153.146 100.37 155.784 97.3568 158.87C92.3256 164.359 90.6022 176.79 88.7566 190.484C88.4383 192.763 88.6985 194.192 89.867 196.129C97.5976 208.876 113.042 217.505 133.883 225.842C140.08 228.023 155.866 222.818 168.919 218.659C173.267 217.235 177.759 215.549 182.335 213.74C198.269 207.404 215.36 199.582 233.533 191.232C253.918 181.597 277.355 171.61 297.074 158.694C306.342 151.429 310.333 137.514 315.021 123.186C315.663 121.354 315.889 119.539 315.67 118.29C315.427 117.027 315.041 116.423 314.008 115.7C308.735 112.573 295.71 114.895 285.501 117.363C255.097 124.839 223.812 134.961 195.125 149.313C192.147 150.884 190.132 152.486 189.496 154.049C186.553 171.157 204.94 196.316 214.491 218.374C215.311 220.145 216.145 221.943 216.834 224.269C217.529 226.46 217.927 230.106 216.737 233.086C205.846 254.976 183.097 252.985 166.769 253.662C149.299 253.174 132.796 251.125 115.791 245.789C108.876 242.463 108.411 237.78 106.922 234.44C105.714 230.898 104.919 227.54 104.164 224.199C102.692 217.55 101.502 211.073 100.241 204.632C94.9747 177.086 95.6301 149.358 102.687 123.839C109.153 103.251 119.652 85.8077 132.732 71.034C144.15 61.7008 153.981 62.1302 163.864 60.1025C175.7 58.3918 186.989 57.6398 197.82 57.1912C237.135 66.2149 250.445 94.739 267.195 114.363C280.705 135.197 269.752 155.902 264.183 170.254C251.487 191.317 232.948 193.305 218.437 200.736C205.486 206.262 191.693 204.143 180.497 201.454C166.706 197.673 160.757 186.554 154.888 178.007C149.567 169.614 148.801 160.172 148.96 151.509C149.844 129.983 155.908 109.307 162.213 86.1969C162.247 86.073 162.282 85.9492 162.317 85.8252C170.22 58.6553 181.934 29.8618 208.242 14.9499C231.482 2.13093 258.327 -1.14666 282.004 0.330291C303.248 0.678988 320.589 14.9168 330.767 29.9739C348.862 63.345 335.419 94.2715 332.348 121.434C331.741 124.942 331.151 128.401 330.585 131.845C329.577 136.724 329.614 142.195 325.639 148.437C305.185 173.121 276.697 169.108 255.026 167.832C251.418 167.388 248.015 166.917 244.142 165.921C236.488 164.293 231.996 155.868 231.448 150.553C230.515 144.936 231.09 139.762 231.341 135.718C234.211 117.579 241.421 106.513 246.968 94.4045C255.652 77.2603 272.02 70.2327 284.568 66.1959C305.38 61.4777 318.026 71.229 328.157 75.3285C338.194 80.3216 345.485 84.2713 350.524 86.7869C357.47 90.2998 364.438 93.645 371.549 96.5826C384.26 101.816 395.541 110.488 404.215 121.273C410.535 128.966 411.22 138.997 410.862 146.653C410.657 154.831 407.006 163.345 401.378 169.239C390.314 179.767 377.69 177.687 367.616 176.899C366.317 176.728 364.839 176.448 363.007 175.347C361.265 174.37 358.724 171.581 358.715 168.008C358.711 164.538 360.356 162.508 361.48 161.317C362.683 160.101 363.786 159.44 364.808 158.907C375.669 153.55 387.499 153.404 398.803 157.532C416.536 164.264 422.499 183.685 426.717 196.087C430.832 206.979 426.396 217.387 422.299 224.654C418.534 232.095 410.716 238.653 403.561 242C377.813 253.491 351.685 250.833 325.985 251.224C323.82 251.183 321.733 251.238 318.468 250.278C316.958 249.652 314.091 249.13 311.893 244.654C310.942 242.465 311.095 240.101 311.509 238.636C311.925 237.119 312.497 236.131 313.029 235.305C316.198 230.009 323.621 227.717 328.487 228.721C355.252 234.114 368.763 256.223 380.67 275.619C385.505 283.991 389.825 292.764 393.799 301.57C397.128 309.1 394.657 316.179 392.526 320.965C390.233 325.952 387.47 330.052 384.981 333.974C376.911 346.943 361.323 351.277 348.769 351.815C321.922 353.499 293.578 355.178 264.331 354.889C263.701 354.884 263.071 354.873 262.441 354.856ZM258.757 252.598C259.583 260.991 266.286 269.028 266.254 269.665C266.77 270.458 260.439 264.099 258.126 254.9C257.483 251.865 257.74 249.211 258.955 247.071C260.421 244.35 263.154 241.354 264.304 241.03C275.088 237.975 288.86 245.557 299.402 250.831C318.328 260.553 329.023 276.312 333.857 291.593C334.628 294.143 334.542 295.19 333.416 296.818C332.811 297.676 332.067 298.33 330.957 299.144C326.581 302.206 321.308 304.889 316.573 307.404C279.518 326.347 255.668 340.283 227.427 347.86C221.401 349.067 217.902 348.736 213.581 344.466C213.309 344.206 213.037 343.945 212.764 343.684C200.243 331.394 186.394 319.124 179.758 304.668C173.513 288.576 166.525 268.411 173.065 255.615C174.421 253.49 175.746 252.391 176.365 252.38C181.968 251.437 187.545 250.738 192.809 250.913C195.394 251.005 197.994 251.381 199.64 252.157C200.461 252.539 200.852 252.946 200.972 253.183C201.1 253.412 201.212 253.844 201.07 254.69C198.844 260.738 188.847 267.751 180.23 271.407C155.516 281.653 124.861 295.529 105.646 280.389C104.319 279.18 103.79 278.393 103.414 277.029C103.044 275.66 102.966 273.754 103.026 271.787C103.619 255.016 103.108 238.364 105.094 222.929C106.141 215.511 108.101 208.243 112.555 203.968C121.757 195.22 131.438 185.844 142.038 185.421C147.36 185.046 153.796 185.992 154.761 187.95C155.189 188.596 155.586 189.424 155.746 189.983C155.832 190.248 155.827 190.472 155.828 190.275C155.837 190.176 155.855 189.932 156.036 189.555C156.206 189.181 156.606 188.727 156.977 188.506C148.359 193.239 135.349 194.795 130.752 187.224C126.347 180.972 124.035 173.621 125.439 166.933C128.228 153.926 135.956 142.069 145.808 134.18C159.838 123.285 176.046 110.682 189.082 110.983C198.37 112.991 208.258 117.497 217.36 121.14C230.613 126.599 241.886 134.503 249.942 143.831C254.214 148.759 256.058 155.246 254.405 160.308C253.802 162.545 252.371 163.914 252.225 163.748C243.426 165.631 235.685 163.461 231.965 157.934C231.574 157.394 231.186 156.862 230.799 156.335C223.87 147.184 219.203 139.974 219.58 139.897C219.768 139.908 224.869 146.922 231.808 156.114C232.114 156.532 232.421 156.952 232.73 157.379C236.226 162.548 243.396 164.642 252.041 162.821C251.976 162.832 251.925 162.871 251.992 162.826C252.055 162.784 252.213 162.645 252.395 162.4C252.769 161.911 253.196 161.04 253.501 160.031C255.041 155.356 253.337 149.19 249.228 144.449C241.288 135.254 230.139 127.426 217 122.013C207.931 118.378 197.944 113.859 188.926 111.915C176.861 111.55 160.295 124.038 146.399 134.916C136.72 142.658 129.092 154.377 126.365 167.119C125.026 173.485 127.217 180.565 131.527 186.684C135.581 193.64 148.151 192.287 156.472 187.707C155.961 188.014 155.425 188.622 155.187 189.141C154.936 189.663 154.9 190.028 154.885 190.216C154.876 190.59 154.908 190.447 154.84 190.249C154.719 189.816 154.353 189.04 153.972 188.47C153.643 187.169 147.317 185.929 142.082 186.364C132.041 186.71 122.382 195.894 113.213 204.646C109.345 208.333 107.348 214.706 106.274 221.442C103.981 237.1 104.599 254.441 103.97 271.815C103.91 273.739 103.998 275.583 104.327 276.785C104.671 277.979 105.021 278.527 106.277 279.687C124.52 294.297 155.206 280.855 179.85 270.542C184.307 268.581 188.55 266.211 192.302 263.345C194.168 261.917 195.91 260.362 197.38 258.712C198.113 257.888 198.765 257.051 199.287 256.235C199.794 255.483 200.176 254.507 200.138 254.531C200.199 254.178 200.197 253.933 200.182 253.802C200.164 253.662 200.15 253.654 200.143 253.637C200.153 253.636 199.952 253.345 199.239 253.013C197.82 252.334 195.294 251.942 192.776 251.858C187.628 251.686 182.1 252.372 176.519 253.313C176.387 253.223 175.181 254.034 173.85 256.142C167.666 267.989 174.363 288.371 180.633 304.309C186.995 318.244 200.655 330.498 213.035 342.634C213.436 343.019 213.836 343.402 214.235 343.783C218.513 347.889 221.206 348.067 227.253 346.93C254.683 339.601 278.191 325.998 316.135 306.563C319.593 304.748 323.189 302.842 326.662 300.787C329.19 299.277 331.795 297.605 332.647 296.263C333.177 295.509 333.322 295.09 333.386 294.507C333.446 293.925 333.328 293.003 332.956 291.888C328.173 276.806 317.709 261.313 298.957 251.668C288.53 246.389 274.563 238.996 264.621 241.923C263.971 242.002 261.147 244.933 259.781 247.537C258.977 248.974 258.63 250.609 258.757 252.598Z" fill="#FF7B00" fill-opacity="0.8"/>
</svg>
