<svg width="362" height="463" viewBox="0 0 362 463" fill="none" xmlns="http://www.w3.org/2000/svg">
<path d="M248.278 62.7018C252.722 75.5615 257.954 90.3405 269.069 102.768C272.666 106.416 276.975 109.752 282.055 111.628C282.344 111.735 282.636 111.838 282.93 111.935C284.05 112.306 285.21 112.606 286.396 112.823C293.948 114.446 302.585 111.961 309.486 108.227C310.529 107.692 311.583 107.128 312.623 106.558C316.7 104.321 320.878 101.857 325.667 99.3436C330.047 97.1262 335.481 92.8917 338.45 86.9524C341.348 80.6223 340.004 76.0455 339.142 71.7167C338.253 68.0854 337.06 64.8403 335.776 61.7327C331.168 51.6054 321.798 49.6263 315.956 47.8533C311.549 46.7881 307.115 46.4836 301.919 48.9131C297.276 51.2743 294.98 55.7956 294.42 59.764C293.812 63.8769 295.338 67.3216 296.265 69.2328C297.268 71.2218 297.881 72.4577 297.929 72.8092C297.924 72.808 297.884 72.5773 297.933 72.3151C297.975 72.0517 298.093 71.836 298.113 71.813C298.175 71.7614 297.711 72.2606 296.951 72.6795C295.509 73.5502 292.709 74.3778 291.399 74.5071C289.408 74.9354 284.751 71.9405 281.858 68.6313C278.784 65.2937 276.478 61.6752 274.859 58.5872C273.914 56.8599 274.159 54.8503 274.666 53.1078C275.349 50.7642 276.807 48.1265 278.679 45.4921C281.952 40.7785 287.68 37.2025 294.657 34.757C301.827 32.0894 311.004 32.3917 317.683 36.3607C323.294 39.8283 327.48 46.9714 332.305 55.6895C333.754 58.2507 335.418 60.6687 337.016 62.9002C339.265 66.0282 341.327 68.9073 343.201 72.0663C344.728 74.619 345.65 76.9333 345.454 77.1151C345.243 77.2868 344.012 75.2843 342.513 72.7571C340.703 69.6896 338.735 66.9074 336.549 63.874C336.539 63.8602 336.529 63.8463 336.519 63.8325C334.835 61.4858 333.037 58.9066 331.483 56.1565C326.625 47.3571 322.49 40.4261 317.171 37.1569C310.809 33.3752 301.871 33.0667 294.969 35.6515C288.072 38.0696 282.554 41.5658 279.451 46.0474C277.871 48.2762 276.62 50.456 275.894 52.435C275.178 54.3484 274.805 56.6069 275.706 58.1538C277.322 61.2386 279.621 64.8197 282.62 68.0584C285.425 71.2987 289.99 73.9974 291.315 73.5646C292.423 73.4641 295.212 72.6429 296.484 71.8572C297.168 71.4851 297.518 71.0498 297.327 71.287C297.246 71.4022 297.068 71.7477 297.002 72.1523C296.928 72.5555 296.979 72.9267 297.011 73.0347C297.015 72.8701 296.445 71.6796 295.415 69.6453C294.471 67.6969 292.834 64.0377 293.484 59.6304C294.076 55.4297 296.512 50.606 301.489 48.0709C307.016 45.4926 311.603 45.8362 316.196 46.9379C322.062 48.7378 331.767 50.6975 336.649 61.3612C338.121 64.9353 339.496 68.6709 340.412 73.0385C341.072 77.0133 342.11 81.3815 339.296 87.3897C336.251 93.5018 330.595 97.9239 326.122 100.183C320.758 102.996 316.129 105.777 311.523 108.24C310.465 108.805 309.417 109.345 308.352 109.864C308.327 109.876 308.302 109.889 308.277 109.901C301.494 113.398 293.135 115.236 286.233 113.76C284.478 113.44 282.792 112.945 281.203 112.32C281.027 112.251 280.853 112.181 280.679 112.109C275.836 110.09 271.8 106.877 268.398 103.429C256.906 90.5162 251.789 75.703 247.342 62.8775C246.315 59.6984 245.795 57.0291 246.056 56.9985C246.316 56.9573 247.255 59.5434 248.278 62.7018ZM134.417 410.359C132.813 406.598 131.186 402.482 129.619 398.12C124.794 384.793 120.759 369.094 118.331 354.601C115.384 337.438 114.517 321.474 114.346 312.278C114.324 311.166 114.348 310.17 114.4 309.301C114.658 304.765 115.813 300.674 119.175 296.753C121.189 294.302 124.209 292.267 127.915 290.736C130.017 289.863 132.341 289.139 134.802 288.548C142.28 286.761 151.075 286.099 160.695 286.015C161.576 286.008 162.465 286.011 163.36 286.025C193.366 286.867 214.198 296.377 228.901 304.094C232.969 306.296 236.243 308.967 238.908 311.757C241.322 314.285 243.27 316.939 244.887 319.57C244.89 319.574 244.893 319.579 244.895 319.583C250.894 329.644 252.823 338.701 254.001 346.839C254.549 350.953 254.823 354.924 254.891 358.76C254.923 360.724 254.889 362.661 254.63 364.105C254.501 364.824 254.317 365.339 254.132 365.644C253.947 365.949 253.728 366.2 253.199 366.617C248.993 369.94 244.038 372.653 238.41 375.026C226.829 379.959 210.844 383.873 195.928 386.072C188.281 386.902 179.27 386.444 172.367 386.437C171.288 386.424 170.243 386.412 169.123 386.398C157.437 386.256 143.38 385.999 123.913 386.036C120.237 386.046 116.377 385.921 112.329 385.561C100.711 384.565 90.3005 381.587 81.0636 377.498C73.876 374.342 67.4676 370.545 61.7518 366.464C58.0134 363.794 54.5985 361.023 51.445 358.216C43.4903 351.117 37.1768 343.862 31.6433 336.702C29.0684 333.362 26.6895 330.031 24.4792 326.751C13.5108 310.297 11.9691 292.816 11.4512 278.8C11.4246 260.035 20.1553 247.268 25.8677 238.337C31.034 230.763 35.5045 225.545 39.0321 221.513C41.3956 218.843 43.4852 216.865 45.3464 215.222C46.7205 214.013 47.9767 212.992 49.1761 212.056C59.9418 203.748 71.564 198.36 86.3054 193.698C89.5886 192.67 93.0428 191.685 96.6963 190.721C98.7083 190.19 100.656 189.693 102.518 189.224C111.409 187.013 118.643 186.689 124.528 186.748C127.614 186.792 130.343 186.967 132.92 187.213C132.968 187.217 133.016 187.222 133.063 187.226C133.423 187.261 133.776 187.298 134.132 187.336C134.4 187.365 134.667 187.393 134.934 187.424C135.04 187.433 135.134 187.442 135.204 187.448C135.26 187.453 135.304 187.457 135.331 187.46C135.337 187.46 135.342 187.461 135.347 187.461C135.854 187.509 136.293 187.564 136.382 187.575C136.538 187.594 136.676 187.613 136.747 187.622C137.118 187.671 137.601 187.741 137.921 187.789C138.74 187.913 140.171 188.131 142.378 188.543C144.302 188.894 146.15 189.254 148.471 189.753C148.618 189.784 148.765 189.816 148.911 189.848C150.87 190.274 153.123 190.797 155.861 191.482C156.279 191.586 156.706 191.695 157.141 191.809C160.077 192.572 162.678 193.63 162.972 194.003C163.268 194.38 161.209 193.909 158.294 193.106C157.362 192.849 156.473 192.618 155.62 192.406C153.715 191.931 152.064 191.539 150.514 191.187C150.371 191.154 150.228 191.122 150.084 191.09C147.73 190.561 145.509 190.098 143.125 189.648C142.327 189.497 141.504 189.348 140.736 189.214C139.353 188.981 137.776 188.74 135.898 188.506C135.519 188.459 135.131 188.412 134.734 188.367C132.181 188.078 129.214 187.827 125.886 187.73C119.588 187.569 111.941 187.849 102.757 190.141C100.438 190.727 98.0213 191.348 95.5087 192.024C92.041 192.957 88.7235 193.922 85.5277 194.944C70.8488 199.67 58.4945 205.5 47.5598 214.627C46.0638 215.888 44.6761 217.133 43.2411 218.531C42.1299 219.614 40.9942 220.787 39.7859 222.145C36.2548 226.187 31.692 231.357 25.8412 240.091C20.5465 248.561 12.3534 260.833 12.3958 278.771C12.9118 292.593 14.392 309.906 25.2644 326.224C27.3661 329.342 29.6276 332.517 32.0591 335.69C37.8103 343.193 44.5261 350.863 52.6039 357.98C55.6889 360.696 58.9682 363.322 62.4571 365.805C68.119 369.833 74.4186 373.547 81.4446 376.631C90.28 380.536 100.116 383.409 111.102 384.488C115.609 384.942 119.884 385.093 123.92 385.081C142.11 385.041 155.355 385.256 166.659 385.398C167.149 385.404 167.633 385.41 168.112 385.416C168.705 385.423 169.294 385.431 169.889 385.439C177.46 385.453 187.512 385.994 195.791 385.135C211.432 382.821 228.232 378.693 240.457 373.066C245.045 370.97 249.1 368.628 252.589 365.874C253.057 365.505 253.168 365.366 253.286 365.192C253.402 365.018 253.564 364.611 253.683 363.957C253.926 362.643 253.968 360.734 253.935 358.79C253.86 354.55 253.541 350.163 252.851 345.515C251.702 338.535 250.185 330.83 244.635 320.991C243.039 318.27 241.06 315.434 238.482 312.682C235.82 309.845 232.544 307.141 228.451 304.925C213.625 297.139 192.625 287.619 162.625 286.964C161.982 286.958 161.343 286.957 160.709 286.962C151.189 287.048 142.587 287.676 135.086 289.452C132.613 290.044 130.256 290.775 128.109 291.68C124.708 293.107 121.834 295.01 119.909 297.351C116.257 301.559 115.281 306.189 115.307 311.676C115.308 311.856 115.31 312.044 115.313 312.24C115.447 320.218 116.211 337.018 119.414 355.302C121.947 370.157 126.038 385.472 130.521 397.806C131.732 401.167 132.959 404.316 134.149 407.19C134.728 408.588 135.32 409.988 135.925 411.387C140.559 422.065 145.94 432.808 151.501 440.699C152.185 441.662 152.868 442.57 153.548 443.409C157.612 448.169 160.867 450.694 167.023 449.784C176.363 448.48 188.25 443.673 200.686 440.03C220.041 434.413 240.01 428.57 258.983 420.153C283.216 409.453 306.448 396.753 324.767 385.092C325.386 384.694 326.032 384.274 326.649 383.869C327.296 383.446 327.977 382.995 328.607 382.572C339.404 375.215 348.53 368.879 348.417 359.855C351.265 328.839 350.831 303.468 343.685 290.103C340.011 282.754 336.626 277.466 334.451 275.301C334.075 274.915 333.75 274.628 333.498 274.43C333.272 274.252 333.108 274.148 333.004 274.089C332.825 273.986 332.809 274.018 333.005 274.053C326.242 272.91 320.791 270.848 315.272 268.199C314.935 268.034 314.587 267.861 314.258 267.694C307.782 264.37 301.298 260.038 295.006 253.323C289.835 247.771 285.855 241.457 283.159 234.974C278.393 221.261 267.619 209.655 270.889 192.065C271.236 190.524 271.715 188.786 272.963 186.825C274.142 184.874 276.657 182.825 279.158 182.182C284.723 180.94 287.547 182.289 290.581 183.216C291.486 183.545 292.345 183.913 293.163 184.306C297.735 186.54 301.051 189.299 304.057 191.636C304.066 191.643 304.074 191.65 304.083 191.657C309.044 195.813 313.482 198.084 314.487 197.226C311.924 198.111 311.295 199.644 311.004 200.155C310.721 200.771 310.698 201.025 310.662 201.197C310.616 201.515 310.641 201.49 310.634 201.489C310.633 201.478 310.62 201.447 310.642 201.514C310.67 201.579 310.72 201.751 311.004 202.106C311.307 202.481 311.685 202.72 311.869 202.802C312.062 202.89 312.08 202.871 311.975 202.859C311.761 202.823 311.129 202.831 310.484 202.957C306.538 203.593 303.257 205.058 302.941 205.805C302.89 205.873 302.851 205.927 302.823 205.968C302.668 206.234 302.778 205.979 302.725 206.201C302.696 206.394 302.699 206.933 302.811 207.6C303.407 211.307 304.263 214.707 305.381 217.338C306.432 220.027 308.09 221.446 308.028 221.233C311.957 222.541 315.179 222.501 316.919 221.676C321.839 219.56 326.036 218.06 329.733 216.533C333.488 214.997 336.764 213.49 339.367 211.894C342.686 209.922 344.536 207.69 344.687 206.569C345.562 203.075 346.756 200.113 347.281 197.974C347.448 197.313 347.521 196.772 347.52 196.587C347.524 196.379 347.477 196.695 347.731 197.199C346.288 194.046 346.35 192.756 346.016 191.208C345.768 189.742 345.573 188.447 345.354 187.227C344.923 184.794 344.399 182.643 343.676 180.798C342.208 177.074 340.186 174.901 337.09 173.538C336.99 173.494 336.887 173.451 336.783 173.407C336.067 173.112 335.274 172.841 334.423 172.592C330.575 171.466 325.944 170.889 320.904 170.013C318.363 169.55 315.695 169.075 312.56 167.94C310.991 167.344 309.243 166.595 307.333 165.088C305.449 163.653 303.379 160.874 302.828 157.864C301.972 154.495 301.353 148.923 302.307 144.35C303.068 140.218 304.704 137.295 304.949 137.333C305.243 137.374 304.071 140.246 303.293 144.223C302.307 148.749 302.873 154.197 303.756 157.675C304.247 160.321 305.993 162.794 307.701 164.164C309.413 165.579 311.034 166.321 312.507 166.906C315.461 168.031 318.001 168.509 320.473 168.973C325.355 169.848 329.904 170.393 333.903 171.462C334.814 171.705 335.675 171.971 336.482 172.27C336.822 172.396 337.163 172.533 337.476 172.67C340.757 174.101 343.011 176.517 344.539 180.4C345.298 182.326 345.84 184.544 346.279 187.017C346.502 188.257 346.698 189.563 346.944 191.021C347.268 192.549 347.237 193.855 348.573 196.767C348.428 196.481 348.463 196.322 348.466 196.551C348.471 196.764 348.417 197.257 348.281 197.854C347.777 200.111 346.505 203.198 345.606 206.801C345.34 208.174 343.715 210.21 340.774 212.122C338.201 213.827 334.852 215.436 330.904 217.075C326.985 218.721 322.511 220.305 317.295 222.546C315.238 223.503 311.771 223.475 307.733 222.132C306.377 222.347 302.777 215.028 301.877 207.749C301.761 207.049 301.742 206.449 301.783 206.116C301.838 205.762 301.824 205.797 301.996 205.505C302.04 205.435 302.102 205.346 302.188 205.233C302.845 204.101 306.312 202.693 310.312 202.027C311.033 201.888 311.749 201.868 312.106 201.922C312.282 201.944 312.352 201.982 312.267 201.944C312.189 201.91 311.938 201.758 311.735 201.504C311.375 200.999 311.58 201.21 311.574 201.378C311.588 201.452 311.568 201.548 311.596 201.349C311.62 201.238 311.631 201.058 311.858 200.564C312.091 200.159 312.604 198.878 314.765 198.131C313.085 199.074 308.75 196.716 303.969 192.77C300.977 190.444 297.722 187.702 293.331 185.445C292.369 184.958 291.343 184.501 290.257 184.106C287.328 183.198 284.543 181.939 279.419 183.093C277.13 183.683 274.85 185.539 273.757 187.34C272.604 189.151 272.145 190.791 271.814 192.266C268.594 209.173 279.203 220.851 284.032 234.61C286.665 240.94 290.536 247.101 295.568 252.537C301.403 258.801 307.396 262.978 313.711 266.342C314.068 266.53 314.425 266.714 314.78 266.895C320.277 269.626 325.983 271.898 333.152 273.118C333.105 273.109 333.191 273.117 333.389 273.221C333.66 273.361 334.227 273.738 334.985 274.498C337.306 276.748 340.778 282.177 344.529 289.678C351.842 303.426 352.191 328.937 349.359 359.928C349.436 369.458 339.885 376.026 329.135 383.356C328.453 383.813 327.71 384.305 327.013 384.761C326.842 384.873 326.67 384.985 326.497 385.098C296.636 403.988 275.322 414.024 259.463 421.246C255.246 423.122 251.382 424.748 247.717 426.232C233.873 431.817 223.133 434.994 214.241 437.573C212.546 438.061 210.935 438.519 209.393 438.956C206.393 439.806 203.646 440.582 201.064 441.339C197.913 442.263 195.028 443.151 192.154 444.061C182.403 447.103 174.345 450.063 167.117 450.989C162.648 451.496 159.541 450.841 156.031 447.651C154.185 445.984 152.38 443.748 150.636 441.264C145.136 433.348 140.251 423.501 136.248 414.557C136.24 414.539 136.232 414.522 136.224 414.504C135.599 413.101 134.997 411.717 134.417 410.359ZM195.193 211.625C197.293 213.722 198.565 215.684 198.34 215.814C198.122 215.964 196.514 214.27 194.452 212.22C189.549 207.328 183.661 203.218 177.323 199.878C174.671 198.478 172.523 197.305 172.664 197.078C172.785 196.85 175.176 197.672 177.861 199.093C184.26 202.475 190.222 206.647 195.193 211.625ZM135.388 424.503C134.016 421.662 132.921 418.704 132.876 417.947C132.834 417.193 133.824 418.912 135.159 421.761C135.865 423.265 137.038 425.734 138.718 429.008C140.717 432.861 143.354 437.89 147.149 443.542C150.896 449.204 157.526 457.3 167.478 455.627C178.302 454.32 189.689 449.592 202.374 445.873C220.714 440.482 241.057 434.475 261.227 425.266C273.402 419.776 285.64 413.487 297.791 406.776C303.661 403.527 308.862 400.521 313.776 397.579C319.822 393.95 325.462 390.375 331.191 386.402C339.149 380.14 351.715 374.34 352.485 360.173C353.126 350.721 354.022 339.897 354.03 327.078C353.932 313.73 352.915 299.987 347.197 288.334C343.51 281.329 339.08 272.019 333.624 270.122C313.342 266.184 295.009 252.599 287.071 233.342C282.731 220.548 272.221 208.87 275.17 192.995C275.626 190.734 277.008 187.324 280.375 186.42C283.82 185.609 286.476 186.52 289.058 187.39C299.981 191.389 306.942 203.684 315.839 201.614C315.556 201.701 315.363 201.864 315.273 201.963C315.18 202.066 315.16 202.117 315.152 202.132C315.143 202.16 315.181 202.063 315.2 201.94C315.244 201.686 315.25 201.32 315.209 200.964C315.136 200.251 314.859 199.512 314.569 199.171C313.945 198.267 311.683 197.979 309.64 198.388C305.543 199.141 301.274 200.268 299.207 202.971C297.979 204.483 297.826 206.155 298.163 208.345C299.316 215.105 301.241 223.586 306.534 225.781C310.676 227.159 315.173 227.721 318.845 226.137C330.2 220.972 345.422 218.357 349.653 207.82C350.791 203.007 353.66 197.794 352.348 194.831C349.662 183.614 349.058 172.686 339.275 168.627C334.568 166.572 329.087 165.865 323.66 164.927C320.927 164.452 318.162 163.98 315.365 163.074C312.747 162.184 309.104 160.663 308.266 156.757C304.859 145.419 311.306 133.615 318.969 125.958C329.153 115.033 346.021 110.611 350.611 97.9898C351.622 93.5763 353.632 89.5474 354.253 85.6893C354.542 84.0626 353.581 81.8982 352.643 79.7796C348.661 70.1735 342.201 62.5268 336.489 53.3152C331.95 45.3303 327.619 37.0332 320.25 32.3631C312.332 27.653 301.938 27.1042 293.107 30.317C291.448 30.9039 289.83 31.5521 288.249 32.2816C282.949 34.7184 278.106 38.1225 274.841 42.7322C270.828 48.2706 267.614 55.297 270.549 60.7918C275.197 69.472 282.837 79.5427 291.835 79.4115C296.885 78.8082 304.04 75.5676 302.692 71.6388C302.186 68.8903 298.679 65.7259 299.241 60.4525C299.633 57.6247 301.247 54.6739 304.117 53.2241C307.691 51.512 311.34 51.6441 314.746 52.484C320.695 54.1119 328.328 56.2887 331.508 63.5488C333.851 69.9593 337.581 76.4893 334.523 84.9214C332.328 89.3993 328.332 93.0689 324.103 95.3523C323.951 95.4371 323.797 95.5218 323.641 95.6063C313.892 99.9453 303.272 111.389 287.053 109.054C280.987 108 275.838 104.274 271.769 100.105C259.544 85.8598 254.004 68.1763 249.611 52.6234C244.171 31.6233 239.389 14.3346 237.373 6.65056C236.542 3.53431 236.102 0.950324 236.372 0.946049C236.625 0.888496 237.486 3.40739 238.316 6.51665C240.321 14.1561 245.09 31.4038 250.525 52.3863C254.862 67.8101 260.502 85.555 272.441 99.4414C276.439 103.539 281.428 107.12 287.216 108.124C302.734 110.437 313.427 99.1698 323.191 94.7749C323.191 94.7746 323.191 94.7744 323.192 94.7742C327.494 92.5188 331.484 88.9728 333.682 84.4869C336.497 76.8925 332.996 70.2083 330.637 63.9192C327.72 57.1845 320.433 55.0026 314.507 53.3994C311.285 52.5956 307.786 52.5048 304.547 54.067C302.008 55.3456 300.538 57.9937 300.178 60.5863C299.629 65.2335 302.939 68.3064 303.611 71.413C304.927 76.6687 297.169 79.639 291.919 80.3543C281.931 80.363 274.509 70.0316 269.706 61.2231C266.509 55.1245 270.026 47.7877 274.072 42.1789C277.304 37.6177 282.01 34.2157 287.118 31.7667C288.961 30.8793 290.853 30.1086 292.794 29.4215C301.864 26.1354 312.498 26.6471 320.769 31.5558C328.426 36.4174 332.805 44.8845 337.344 52.8297C342.924 61.8164 349.567 69.7072 353.577 79.3593C354.511 81.5043 355.601 83.7268 355.278 85.8457C354.605 89.9717 352.608 93.9401 351.641 98.2348C346.521 111.907 329.672 115.961 319.796 126.754C312.259 134.375 306.161 145.566 309.467 156.512C310.107 159.629 313.207 161.047 315.754 161.889C318.42 162.747 321.153 163.212 323.871 163.676C329.284 164.603 334.815 165.274 339.809 167.427C350.346 171.663 351.188 184.087 353.595 194.191C355.271 198.665 352.037 203.442 351.054 208.172C345.956 220.3 330.661 222.26 319.461 227.565C315.235 229.386 310.368 228.715 306.036 227.297C299.227 224.212 297.865 215.522 296.525 208.607C296.117 206.283 296.341 203.791 297.87 201.955C300.547 198.55 305.145 197.52 309.329 196.701C311.614 196.296 314.378 196.278 315.909 198.068C316.51 198.809 316.825 199.792 316.941 200.766C316.997 201.255 317.001 201.752 316.924 202.227C316.853 202.684 316.654 203.202 316.355 203.288C305.077 205.361 298.716 192.547 288.428 189.114C286.051 188.287 283.476 187.557 280.887 188.202C278.527 188.822 277.427 191.288 276.996 193.392C274.155 207.804 284.397 219.752 288.879 232.588C296.522 251.139 314.466 264.349 333.943 268.095C341.737 271.096 345.049 280.261 349.051 287.4C355.076 299.703 356.024 313.757 356.122 327.331C356.096 340.232 355.114 350.985 354.355 360.319C353.067 375.874 339.855 381.207 331.845 387.371C326.366 391.019 320.952 394.362 315.167 397.85C310.248 400.81 305.011 403.851 299.082 407.145C286.627 414.05 274.09 420.509 261.61 426.139C241.338 435.398 220.893 441.428 202.641 446.798C189.916 450.527 178.601 455.257 167.554 456.593C157.06 458.36 149.986 449.629 146.335 444.074C143.234 439.472 140.975 435.347 139.2 432.033C137.411 428.666 136.156 426.092 135.388 424.503ZM128.656 285.093C138.14 281.873 149.11 281.051 160.621 280.856C183.796 280.432 209.446 287.361 231.434 299.41C239.529 303.762 245.922 310.676 250.205 318.282C257.61 331.502 259.807 345.992 260.249 358.59C260.296 362.675 260.606 367.999 256.706 370.881C255.496 371.873 254.249 372.798 253.018 373.642C231.204 387.074 214.668 388.626 199.365 391.311C199.198 391.335 199.032 391.359 198.866 391.382C198.159 391.482 197.448 391.578 196.745 391.671C181.644 392.65 166.386 391.002 142.104 390.607C136.451 390.484 130.384 390.391 123.881 390.351C110.055 390.358 94.3077 388.018 79.3746 381.339C69.4191 377.02 59.8674 371.029 51.2507 363.87C51.2291 363.852 51.2076 363.834 51.186 363.816C39.1596 353.849 28.898 341.738 20.4725 329.441C9.30124 313.275 6.78543 294.417 6.26929 279.787C6.25987 279.512 6.25108 279.238 6.24291 278.963C6.29334 252.375 22.2786 233.139 34.6785 217.858C55.94 193.688 82.6144 188.026 100.911 183.075C113.304 180.021 123.774 180.404 131.732 181.261C140.179 182.189 148.672 184.116 157.182 186.409C175.984 191.516 195.914 201.185 206.347 218.825C209.228 225.294 203.541 231.836 199.343 236.934L199.409 236.87C195.877 239.781 190.737 239.389 186.151 239.669C174.531 240.085 162.905 238.797 152.509 234.799C147.491 232.526 156.197 235.768 166.13 237.441C166.49 237.503 166.85 237.563 167.207 237.621C170.636 238.157 173.666 238.484 177.962 238.644C181.002 238.738 183.683 238.69 186.112 238.605C188.669 238.512 190.941 238.397 193.009 238.122C194.316 237.899 196.604 237.741 198.695 236L198.488 236.203C201.363 232.508 208.011 225.939 205.36 219.336C196.979 203.867 175.43 191.953 156.949 187.305C146.025 184.3 136.198 182.551 129.374 181.994C122.11 181.367 112.538 181.283 101.206 184.203C83.3816 189.252 57.0018 195.034 36.1101 219.06C23.9446 234.206 8.33959 253.337 8.33333 278.898C8.344 279.256 8.3557 279.614 8.36849 279.971C8.90797 294.32 10.9745 312.635 21.6396 328.658C29.6205 340.725 39.4257 352.715 51.2165 362.606C51.2912 362.669 51.366 362.731 51.4408 362.794C60.0656 370.022 69.6888 376.105 79.7562 380.471C94.4979 387.064 110.071 389.41 123.888 389.404C130.367 389.444 136.426 389.537 142.089 389.661C166.249 390.057 182.076 391.69 196.607 390.724C197.909 390.553 199.207 390.372 200.505 390.179C200.656 390.156 200.807 390.134 200.959 390.111C216.041 387.378 231.759 385.668 252.454 372.883C253.677 372.046 254.912 371.13 256.106 370.151C259.601 367.614 259.359 362.727 259.304 358.62C258.859 345.872 256.582 331.244 249.033 318.145C244.828 310.892 238.682 304.386 230.984 300.243C209.078 288.238 183.591 281.38 160.634 281.801C149.368 281.986 138.639 282.803 129.453 285.821C126.367 286.83 123.826 287.922 123.566 287.766C123.313 287.609 125.517 286.164 128.656 285.093ZM127.548 279.254C138.896 275.583 149.809 275.019 160.532 274.705C186.575 274.185 212.064 281.497 234.584 293.589C259.165 307.06 266.211 335.187 266.984 358.378C267.029 360.639 267.108 362.911 266.652 365.977C266.462 368.851 263.809 374.156 260.974 376.069C241.308 390.994 219.195 395.105 197.737 398.466C177.445 399.681 160.958 397.762 142.933 397.429C137.049 397.297 130.662 397.184 123.831 397.122C109.414 397.109 92.3976 394.475 76.7367 387.338C66.0783 382.642 55.9356 376.149 46.9074 368.51C46.5789 368.233 46.2524 367.954 45.9278 367.674C33.8396 357.288 23.7945 344.991 15.5975 332.715C3.49233 314.661 1.36205 294.455 0.845041 279.432C0.841897 279.331 0.838833 279.231 0.835848 279.131C1.02962 249.626 17.9094 230.052 30.4635 214.32C53.183 188.418 80.9591 182.611 99.4454 177.464C113.076 174.035 124.531 174.507 133.049 175.472C144.915 176.939 152.666 179.216 158.647 180.785C166.812 183.053 171.81 184.939 177.766 187.617C178.054 187.749 178.34 187.883 178.624 188.016C178.644 188.024 178.663 188.032 178.682 188.041C179.044 188.197 179.344 188.333 179.498 188.404C179.812 188.548 180.06 188.667 180.159 188.714C180.382 188.821 180.568 188.913 180.634 188.946C180.904 189.079 181.21 189.233 181.406 189.333C183.243 190.235 188.885 193.353 193.025 196.417C197.275 199.521 200.091 202.083 202.875 204.977C203.159 205.276 203.428 205.564 203.706 205.867C206.025 208.473 208.513 211.233 211.204 216.311C211.38 216.658 211.54 217.009 211.687 217.381C213.549 222.552 211.793 225.687 211.822 225.061C211.616 224.614 212.467 220.829 210.362 216.747C210.242 216.516 210.116 216.276 209.983 216.03C206.912 210.591 204.063 207.632 201.583 205.02C201.309 204.739 201.029 204.457 200.742 204.174C198.045 201.538 195.539 199.38 191.777 196.69C186.299 192.863 181.909 190.605 177.839 188.694C171.925 185.993 166.652 183.984 158.408 181.704C151.893 180.007 143.46 177.508 130.572 176.178C122.744 175.458 112.253 175.221 99.6847 178.38C81.6315 183.452 54.0205 188.983 31.1873 214.927C18.7575 230.5 1.97399 249.955 1.78013 279.102C1.78275 279.19 1.78544 279.278 1.78819 279.366C2.29793 294.343 4.43007 314.37 16.3819 332.188C24.5533 344.427 34.5558 356.662 46.5625 366.974C46.894 367.259 47.2276 367.543 47.5632 367.826C56.5228 375.4 66.57 381.825 77.1174 386.472C92.6719 393.558 109.509 396.161 123.838 396.177C130.664 396.24 137.043 396.352 142.919 396.484C161.025 396.652 177.79 398.38 197.53 397.048C218.922 393.553 240.883 389.158 259.799 374.64C262.35 372.875 264.597 368.355 264.797 365.683C265.211 362.865 265.137 360.646 265.083 358.438C264.246 335.526 257.228 308.241 233.66 295.297C211.492 283.325 186.42 275.898 160.552 276.106C150.095 276.281 139.455 276.696 128.402 279.972C122.415 281.885 116.114 284.894 111.516 290.52C106.092 296.533 104.271 305.994 104.763 312.655C104.986 318.192 105.338 323.566 105.807 328.816C108.312 356.52 113.888 380.141 121.287 401.027C126.579 415.726 132.423 429.082 139.898 441.702C140.628 442.912 141.582 444.478 142.836 446.36C144.57 448.884 146.654 452.108 150.514 455.593C154.155 459.228 161.68 461.878 167.898 461.018C176.38 460.199 184.377 457.367 193.36 454.652C196.772 453.595 200.305 452.506 203.978 451.427C208.8 450.01 213.95 448.576 219.339 446.993C232.94 443.031 248.023 437.966 263.726 430.959C274.877 425.992 286.35 420.215 298.16 413.772C304.109 410.52 309.39 407.504 314.378 404.559C321.42 400.386 327.895 396.395 334.783 391.725C339.187 388.691 343.828 385.547 348.709 381.147C353.514 377.048 358.984 369.393 359.24 360.702C359.891 352.051 360.723 342.166 360.898 330.458C360.858 317.265 360.984 301.3 353.356 285.231C351.454 281.459 349.45 277.668 346.979 273.851C344.198 270.251 342.592 265.536 334.699 263.302C317.278 260.036 300.041 247.285 293.457 230.679C288.331 217.079 279.199 204.246 281.944 194.467C282.103 193.722 282.349 193.15 282.463 192.998C282.518 192.917 282.516 192.943 282.455 192.992C282.397 193.041 282.297 193.085 282.29 193.086C282.552 192.919 284.919 193.197 286.678 193.909C292.42 196.068 297.429 201.65 303.843 205.682C307.367 207.971 312.907 209.938 317.891 208.274C320.337 207.438 321.072 205.848 321.476 205.064C321.875 204.184 321.999 203.548 322.095 202.973C322.263 201.838 322.227 200.945 322.124 200.057C321.878 198.307 321.433 196.61 319.957 194.736C315.421 190.063 311.24 191.218 308.371 191.512C303.307 192.504 297.641 193.686 293.612 198.724C292.449 200.154 291.362 202.507 291.121 204.458C290.834 206.434 290.992 208.048 291.203 209.46C291.597 212.003 292.075 214.328 292.652 216.496C293.48 219.581 294.473 222.328 295.887 224.898C297.566 227.875 299.995 231.084 304.305 232.57C307.516 233.613 310.966 234.478 315.407 234.211C317.495 234.067 319.656 233.6 321.689 232.725C327.648 230.201 333.997 228.125 340.149 225.254C345.998 222.228 353.593 219.188 356.592 209.567C357.092 207.555 357.9 205.385 358.699 202.795C359.283 200.233 361.019 196.924 358.678 191.583C357.409 186.418 356.469 167.924 342.113 162.251C336.345 159.787 330.795 159.139 325.432 158.232C322.775 157.796 320.114 157.351 317.888 156.686C316.791 156.362 315.8 155.943 315.289 155.601C315.029 155.433 314.914 155.308 314.902 155.295C314.89 155.276 314.942 155.389 314.935 155.398C314.613 153.912 314.392 152.906 314.265 151.789C313.954 149.279 314.545 147.168 314.827 147.037C315.129 146.91 314.953 148.699 315.144 151.036C315.246 152.327 315.469 153.404 315.865 155.209C315.845 155.062 315.726 154.804 315.656 154.719C315.587 154.626 315.619 154.686 315.812 154.81C316.19 155.067 317.106 155.467 318.153 155.775C320.28 156.413 322.917 156.859 325.565 157.292C330.919 158.203 336.523 158.837 342.499 161.385C357.369 167.205 358.458 186.699 359.52 191.151C362.074 197.022 360.177 200.459 359.605 203.066C358.792 205.701 357.993 207.849 357.509 209.798C354.291 220.021 346.45 223.027 340.551 226.109C334.331 229.012 327.959 231.095 322.063 233.594C319.794 234.571 317.383 235.059 315.084 235.179C310.657 235.375 307.178 234.501 304.009 233.47C298.649 231.556 296.213 227.606 294.465 224.224C293.185 221.625 292.283 218.92 291.533 215.953C291.039 213.984 290.62 211.884 290.268 209.61C290.05 208.144 289.877 206.45 290.183 204.33C290.435 202.24 291.625 199.663 292.858 198.152C297.169 192.775 303.063 191.598 308.199 190.582C311.194 190.301 315.621 188.954 320.688 194.135C322.325 196.217 322.793 198.047 323.062 199.938C323.173 200.898 323.215 201.862 323.03 203.114C322.924 203.75 322.789 204.457 322.335 205.459C321.875 206.348 321.035 208.197 318.17 209.178C312.709 211.002 306.714 208.735 303.073 206.317C296.674 202.201 291.69 196.779 286.353 194.797C285.472 194.471 284.571 194.216 283.805 194.087C283.059 193.942 282.375 194.019 282.551 193.995C282.661 193.965 282.878 193.865 283.031 193.741C283.189 193.619 283.263 193.506 283.256 193.513C283.237 193.514 283.011 193.989 282.868 194.668C280.169 203.742 289.141 216.674 294.329 230.315C300.757 246.589 317.796 259.179 334.846 262.368C343.478 264.847 344.901 269.69 347.771 273.334C350.276 277.204 352.289 281.016 354.201 284.806C361.941 301.13 361.789 317.12 361.845 330.323C361.675 342.174 360.835 352.109 360.183 360.775C359.938 369.701 354.207 377.726 349.347 381.847C344.393 386.311 339.742 389.457 335.313 392.511C328.765 396.953 322.541 400.807 315.783 404.829C310.773 407.802 305.478 410.839 299.466 414.138C287.336 420.782 275.558 426.727 264.107 431.827C248.654 438.721 233.801 443.745 220.406 447.668C214.714 449.348 209.284 450.857 204.242 452.338C200.875 453.328 197.631 454.324 194.492 455.295C184.987 458.168 176.727 461.121 167.972 461.965C161.043 462.985 152.788 459.537 149.302 455.78C145.477 452.134 143.562 449.087 142.035 446.883C141.42 445.963 140.907 445.163 140.494 444.513C132.216 431.137 126.028 416.945 120.391 401.34C112.813 379.954 107.249 355.912 104.811 328.291C104.366 323.209 104.031 318.009 103.817 312.692C103.299 305.924 105.227 296.058 110.783 289.922C115.416 284.254 121.673 281.2 127.548 279.254ZM287.422 24.7226C288.605 24.2327 289.748 23.8346 290.739 23.5361C292.544 22.9892 293.861 22.8027 294.066 22.9166C294.292 23.0591 292.991 23.5392 291.012 24.3163C290.289 24.6022 289.48 24.9183 288.6 25.2679C280.563 28.4149 273.825 33.2034 269.726 39.0542C265.588 44.8615 262.474 51.3159 263.26 58.0739C263.5 60.083 264.117 61.9928 264.973 63.6443C272.377 75.9259 277.685 84.7336 292.387 85.6204C293.494 85.515 294.392 85.3343 295.333 85.1177C298.371 84.3703 301.27 83.3515 304.17 81.3001C306.998 79.5761 310.164 74.5119 308.779 70.1431C307.164 64.9946 304.983 62.4486 305.463 61.3409C305.646 60.0702 306.312 59.1374 306.976 58.8307C308.336 58.1147 310.986 57.984 313.152 58.5822C319.044 60.0691 324.306 62.3242 325.695 66.022C328.204 71.7521 330.32 79.2848 328.906 82.017C327.516 84.7331 325.689 86.7538 323.222 88.4614C322.405 89.0289 321.538 89.5528 320.627 90.0465C308.358 96.4979 297.815 105.128 288.129 102.887C283.628 102.12 279.585 99.1958 276.19 95.743C264.352 81.666 259.618 64.6498 256.436 54.6303C256.049 53.2832 255.756 52.0217 255.587 51.0738C255.368 49.8756 255.292 49.0749 255.437 49.0628C255.575 49.0386 255.896 49.7703 256.274 50.8956C256.59 51.828 256.979 53.1013 257.375 54.4767C260.504 64.3609 265.337 81.3987 276.863 95.0795C280.186 98.4635 284.083 101.244 288.291 101.957C297.359 104.151 307.816 95.7599 320.177 89.2161C320.938 88.804 321.663 88.3719 322.349 87.9134C324.882 86.2197 326.671 84.3026 328.067 81.5831C329.237 79.6783 327.351 72.0043 324.826 66.392C323.693 63.2134 318.784 60.9609 312.913 59.4968C310.93 58.9346 308.43 59.1073 307.405 59.6731C307.207 59.7774 307.046 59.9061 306.845 60.2136C306.65 60.5116 306.465 60.9982 306.399 61.4746C306.343 61.777 306.416 62.4252 307.116 63.8482C307.76 65.2458 308.961 67.0705 309.698 69.9174C310.281 72.1076 310.091 74.9775 308.971 77.1864C307.88 79.4131 306.304 80.8951 304.814 82.0015C301.78 84.1729 298.819 85.2138 295.728 85.9959C294.688 86.2412 293.726 86.4417 292.47 86.5626C277.044 85.5961 271.905 76.8773 264.129 64.076C263.51 62.8788 263.003 61.55 262.668 60.1406C260.869 52.504 264.36 44.9151 268.956 38.5006C273.033 32.6877 279.629 27.9005 287.422 24.7226Z" fill="#FF7B00" fill-opacity="0.8"/>
</svg>
